<?xml version="1.0" encoding="UTF-8"?>
<svg version="1.1" xmlns="http://www.w3.org/2000/svg" width="471" height="527">
<path d="M0 0 C155.43 0 310.86 0 471 0 C471 173.91 471 347.82 471 527 C315.57 527 160.14 527 0 527 C0 353.09 0 179.18 0 0 Z " fill="#FEFEFE" transform="translate(0,0)"/>
<path d="M0 0 C0.66 0 1.32 0 2 0 C2.06058594 0.99 2.12117188 1.98 2.18359375 3 C2.70791534 13.04336198 2.70791534 13.04336198 4 23 C4.66 23.33 5.32 23.66 6 24 C6 24.66 6 25.32 6 26 C5.34 26.33 4.68 26.66 4 27 C4.165 27.5775 4.33 28.155 4.5 28.75 C5 31 5 31 5 35 C4.34 35 3.68 35 3 35 C3.309375 35.7425 3.61875 36.485 3.9375 37.25 C4.8094925 39.50692176 5.47667007 41.6450153 6 44 C4.515 44.495 4.515 44.495 3 45 C4.1094072 48.48670834 5.26337666 51.77484237 7 55 C6.2265625 55.5878125 6.2265625 55.5878125 5.4375 56.1875 C3.75403126 57.92457709 3.75403126 57.92457709 4 60.375 C4.86392866 63.2259149 4.86392866 63.2259149 7.5625 65.375 C10 68 10 68 10.3125 71.8125 C10.209375 72.864375 10.10625 73.91625 10 75 C12.31 75.33 14.62 75.66 17 76 C16.93296875 76.71542969 16.8659375 77.43085938 16.796875 78.16796875 C16.68451909 85.40556218 18.38915636 89.45646878 23.25 94.5625 C25.44189625 96.77544687 27.70071831 98.89934047 30 101 C30.52207031 101.48887695 31.04414063 101.97775391 31.58203125 102.48144531 C42.7296829 112.83182821 55.79351267 121.47659491 70 127 C71.670625 127.6496875 71.670625 127.6496875 73.375 128.3125 C84.69842565 130.46004624 96.10643628 129.42979814 105.875 123.0625 C108.99941115 120.81314834 112.04971173 118.47443532 115 116 C110.67619027 128.00120848 101.11710591 135.38976233 89.9765625 140.68359375 C85.11029224 142.8357369 80.49792989 144.76259344 75.1640625 145.26953125 C67.09039811 146.0478408 63.21892729 148.7053803 57.5703125 154.4921875 C53.22742218 158.72947562 49.99342139 160.80131572 44 162 C43.67 166.95 43.34 171.9 43 177 C44.09699219 176.98839844 45.19398438 176.97679687 46.32421875 176.96484375 C47.77864412 176.95546036 49.23307135 176.94636075 50.6875 176.9375 C51.40873047 176.92912109 52.12996094 176.92074219 52.87304688 176.91210938 C56.71555382 176.89456368 60.26639526 177.06475779 64 178 C64 178.33 64 178.66 64 179 C61.24993392 179.0270203 58.50013454 179.04684883 55.75 179.0625 C54.97269531 179.07087891 54.19539062 179.07925781 53.39453125 179.08789062 C52.64042969 179.09111328 51.88632812 179.09433594 51.109375 179.09765625 C50.41811523 179.10289307 49.72685547 179.10812988 49.01464844 179.11352539 C46.90026102 178.99437971 45.03358485 178.57618237 43 178 C43 179.98 43 181.96 43 184 C43.65073486 183.97905273 44.30146973 183.95810547 44.97192383 183.93652344 C47.91862555 183.85340662 50.8650809 183.80135516 53.8125 183.75 C54.83666016 183.71648437 55.86082031 183.68296875 56.91601562 183.6484375 C57.89892578 183.63554687 58.88183594 183.62265625 59.89453125 183.609375 C60.80050049 183.58842773 61.70646973 183.56748047 62.63989258 183.54589844 C65 184 65 184 66.7565918 185.71191406 C68.09006431 188.16573389 68.51058858 190.2683504 69 193 C68.3029747 192.97036163 67.6059494 192.94072327 66.88780212 192.91018677 C45.86113207 192.04554737 24.86311325 191.84188173 3.82055664 191.86962891 C-0.57812728 191.87535676 -4.97675105 191.87192376 -9.37543297 191.86617661 C-27.60758596 191.84610816 -45.79208706 191.92786885 -64 193 C-63.01 190.03 -62.02 187.06 -61 184 C-59.53949219 184.01160156 -58.07898438 184.02320313 -56.57421875 184.03515625 C-42.2603624 184.12151025 -42.2603624 184.12151025 -28 183 C-27.67 176.07 -27.34 169.14 -27 162 C-30.63 162 -34.26 162 -38 162 C-38 165.3 -38 168.6 -38 172 C-38.33 172 -38.66 172 -39 172 C-39.33 168.7 -39.66 165.4 -40 162 C-41.44375 161.505 -42.8875 161.01 -44.375 160.5 C-49.58787045 158.43703425 -53.44961029 155.54174056 -57.67578125 151.90234375 C-61.95651923 148.39861367 -65.50050769 146.69536617 -70.9375 145.6875 C-87.12766182 142.13847018 -100.51305749 134.71481906 -110 121 C-110.99556974 119.66335544 -111.99426222 118.32901064 -113 117 C-112.505 116.01 -112.505 116.01 -112 115 C-111.53851563 115.44730469 -111.07703125 115.89460938 -110.6015625 116.35546875 C-101.13034061 125.13413094 -90.57931073 129.64550789 -77.58203125 129.36328125 C-60.49959508 127.63082044 -45.63823627 116.94312478 -33 106 C-32.14792969 105.28070313 -31.29585938 104.56140625 -30.41796875 103.8203125 C-20.72333357 95.41926432 -15.08825284 89.12566183 -14 76 C-12.35 75.67 -10.7 75.34 -9 75 C-8.9071875 73.453125 -8.9071875 73.453125 -8.8125 71.875 C-8.03801203 68.18128815 -7.79682567 67.43426852 -5.4375 64.875 C-2.79857537 62.26640807 -2.79857537 62.26640807 -2.5625 59.25 C-2.81984552 56.80739337 -2.81984552 56.80739337 -5 55 C-4.46428571 51.46428571 -4.46428571 51.46428571 -3 50 C-2.95936168 48.33382885 -2.957279 46.66611905 -3 45 C-3.66 44.67 -4.32 44.34 -5 44 C-4.34 42.68 -3.68 41.36 -3 40 C-2.34 40 -1.68 40 -1 40 C-1.56371414 36.73045798 -2.49962266 35.17424117 -5 33 C-3.68 32.34 -2.36 31.68 -1 31 C-1 30.01 -1 29.02 -1 28 C-2.485 27.505 -2.485 27.505 -4 27 C-3.67 26.34 -3.34 25.68 -3 25 C-2.34 25 -1.68 25 -1 25 C-1 24.34 -1 23.68 -1 23 C-1.66 23 -2.32 23 -3 23 C-2.86722656 22.26136719 -2.73445313 21.52273437 -2.59765625 20.76171875 C-1.39479661 13.85186083 -0.52315859 6.9938043 0 0 Z " fill="#1E1B1B" transform="translate(220,65)"/>
<path d="M0 0 C7.56988982 -0.08325925 15.13856479 -0.10291446 22.7088623 -0.09069824 C26.62426678 -0.08536258 30.53955514 -0.09066583 34.45495605 -0.0970459 C40.86556541 -0.10096664 47.27481327 -0.06281347 53.68505859 0.00439453 C56.28679533 0.02829554 58.88863721 0.04240102 61.49047852 0.04760742 C65.33375748 0.05982337 69.17468016 0.1113967 73.01745605 0.17248535 C74.17504425 0.16933319 75.33263245 0.16618103 76.52529907 0.16293335 C81.80308017 0.28606109 85.47486501 0.41107558 89.56750488 3.95227051 C90.05987137 4.47503571 90.55223785 4.9978009 91.05952454 5.53640747 C93.6688442 8.21252272 97.00759577 9.67318593 100.33776855 11.28967285 C101.38879761 11.80497559 101.38879761 11.80497559 102.46105957 12.33068848 C107.71963049 14.82697978 112.68160496 16.57589003 118.52526855 17.03967285 C119.24585449 17.10799316 119.96644043 17.17631348 120.7088623 17.2467041 C131.30984832 17.75691198 141.03063416 14.22931158 149.52526855 8.03967285 C150.55085393 7.06593026 151.56131283 6.07446238 152.52526855 5.03967285 C151.21506629 10.03481899 149.00205995 13.382412 145.52526855 17.10217285 C144.79050293 17.89095825 144.79050293 17.89095825 144.04089355 18.69567871 C139.73071438 23.13985669 135.39529873 25.97057836 129.52526855 28.03967285 C128.6744873 28.34260254 127.82370605 28.64553223 126.94714355 28.9576416 C121.75579648 30.5742453 116.88970202 31.2125878 111.46276855 31.47717285 C100.51232823 32.1548874 93.86539546 36.10551565 85.60925293 42.9786377 C75.91471638 51.03967285 75.91471638 51.03967285 70.52526855 51.03967285 C70.52526855 55.98967285 70.52526855 60.93967285 70.52526855 66.03967285 C72.51300293 66.00486816 72.51300293 66.00486816 74.54089355 65.96936035 C76.28567958 65.95059921 78.03047171 65.93239938 79.77526855 65.91467285 C80.64796387 65.89791504 81.52065918 65.88115723 82.4197998 65.8638916 C83.26413574 65.85744629 84.10847168 65.85100098 84.97839355 65.84436035 C85.75344238 65.83388672 86.52849121 65.82341309 87.32702637 65.81262207 C89.52526855 66.03967285 89.52526855 66.03967285 93.52526855 68.03967285 C86.26526855 68.03967285 79.00526855 68.03967285 71.52526855 68.03967285 C71.52526855 69.68967285 71.52526855 71.33967285 71.52526855 73.03967285 C79.11526855 73.03967285 86.70526855 73.03967285 94.52526855 73.03967285 C96.52526855 78.03967285 96.52526855 78.03967285 96.52526855 82.03967285 C95.80580551 82.01003448 95.08634247 81.98039612 94.34507751 81.94985962 C72.57386465 81.08267026 50.83021196 80.8816158 29.0435791 80.90930176 C24.48020272 80.91502848 19.91688435 80.91159736 15.3535099 80.90584946 C-3.61443312 80.88572255 -22.53042473 80.97283292 -41.47473145 82.03967285 C-40.97674774 78.30479508 -40.59981388 76.22729651 -38.47473145 73.03967285 C-35.66408459 72.78824118 -33.09122975 72.71382505 -30.28723145 72.78967285 C-29.17251465 72.79740723 -29.17251465 72.79740723 -28.03527832 72.80529785 C-23.43160909 72.86985412 -19.01687752 73.293678 -14.47473145 74.03967285 C-14.47473145 73.37967285 -14.47473145 72.71967285 -14.47473145 72.03967285 C-10.18473145 72.03967285 -5.89473145 72.03967285 -1.47473145 72.03967285 C-1.7357666 70.55273926 -1.7357666 70.55273926 -2.0020752 69.0357666 C-2.57882841 64.9984941 -2.3611968 61.16973781 -2.03723145 57.10217285 C-1.98502441 56.4183252 -1.93281738 55.73447754 -1.87902832 55.02990723 C-1.75103247 53.36596116 -1.61385426 51.70272556 -1.47473145 50.03967285 C-6.09473145 50.03967285 -10.71473145 50.03967285 -15.47473145 50.03967285 C-15.47473145 53.00967285 -15.47473145 55.97967285 -15.47473145 59.03967285 C-15.80473145 59.03967285 -16.13473145 59.03967285 -16.47473145 59.03967285 C-16.47473145 56.06967285 -16.47473145 53.09967285 -16.47473145 50.03967285 C-17.50469238 49.96104004 -18.53465332 49.88240723 -19.5958252 49.8013916 C-28.14752423 48.12205493 -35.80778317 40.49369728 -41.47473145 34.03967285 C-41.47473145 33.37967285 -41.47473145 32.71967285 -41.47473145 32.03967285 C-42.7070752 32.0138916 -43.93941895 31.98811035 -45.20910645 31.96154785 C-60.48733213 31.50072687 -74.79492097 29.23682302 -85.83410645 17.53967285 C-89.05235006 13.59321353 -92.10161698 9.55771769 -94.47473145 5.03967285 C-94.14473145 4.37967285 -93.81473145 3.71967285 -93.47473145 3.03967285 C-93.02098145 3.74092285 -92.56723145 4.44217285 -92.09973145 5.16467285 C-84.82699732 13.13004832 -74.46927598 16.99434489 -63.84973145 17.53967285 C-51.52942732 17.19038588 -37.69273762 12.27318825 -28.92980957 3.48840332 C-24.91415662 0.15756512 -21.03324633 0.26487389 -15.98254395 0.23498535 C-15.03154816 0.21098663 -14.08055237 0.18698792 -13.10073853 0.16226196 C-8.73417185 0.06671813 -4.36725827 0.0498633 0 0 Z " fill="#1E1C1C" transform="translate(193.4747314453125,259.9603271484375)"/>
<path d="M0 0 C1.91657524 -0.00067596 3.83315039 -0.0016484 5.74972534 -0.00289917 C9.73826933 -0.00436171 13.7267907 -0.00226807 17.71533203 0.00244141 C22.789412 0.0081456 27.86343912 0.00484605 32.93751717 -0.00113106 C36.88581734 -0.0047693 40.83410528 -0.00358332 44.78240585 -0.00100327 C46.6520272 -0.0003434 48.52164971 -0.00112891 50.39126968 -0.00348282 C82.16538654 -0.03473288 82.16538654 -0.03473288 88.8046875 5.8828125 C101.16058999 15.76577689 113.73093039 18.47763891 129.3125 16.859375 C136.38141772 15.516534 143.36731199 12.61035769 148.3046875 7.3203125 C148.7584375 6.5984375 149.2121875 5.8765625 149.6796875 5.1328125 C150.3396875 5.4628125 150.9996875 5.7928125 151.6796875 6.1328125 C145.33419106 16.6588713 138.16157155 24.39938679 126.6796875 29.1328125 C125.90109375 29.48472656 125.1225 29.83664062 124.3203125 30.19921875 C118.82336157 32.14266738 113.21663255 32.24988267 107.4375 32.1953125 C106.04223696 32.18674514 104.64697326 32.17828599 103.25170898 32.16992188 C102.52764862 32.16371826 101.80358826 32.15751465 101.05758667 32.15112305 C90.39483342 32.064461 79.76830125 32.07367649 69.1171875 32.6328125 C39.56458621 34.05023353 9.85537718 33.44926631 -19.6953125 32.3203125 C-20.72207092 32.28537689 -21.74882935 32.25044128 -22.80670166 32.21444702 C-25.69494342 32.11298715 -28.58159444 31.99165348 -31.46875 31.86328125 C-32.325755 31.83500244 -33.18276001 31.80672363 -34.06573486 31.77758789 C-39.92531351 31.48029856 -39.92531351 31.48029856 -42.06265259 29.60005188 C-42.47768036 29.11586288 -42.89270813 28.63167389 -43.3203125 28.1328125 C-42.58022949 28.13804932 -41.84014648 28.14328613 -41.07763672 28.14868164 C-24.83839337 28.24647858 -8.61714747 28.11989659 7.6171875 27.6953125 C8.40281067 27.67566437 9.18843384 27.65601624 9.99786377 27.63577271 C20.57739528 27.36657167 31.12213379 26.86603843 41.6796875 26.1328125 C41.6796875 25.4728125 41.6796875 24.8128125 41.6796875 24.1328125 C-3.01461221 23.73802815 -3.01461221 23.73802815 -47.3203125 28.1328125 C-49.31999703 28.46803319 -51.31991464 28.80187519 -53.3203125 29.1328125 C-52.0003125 30.1228125 -50.6803125 31.1128125 -49.3203125 32.1328125 C-67.50920907 32.78565425 -80.38414622 30.55834164 -95.5078125 19.8828125 C-100.03579502 15.45545181 -104.3005727 10.1920319 -106.3203125 4.1328125 C-105.6603125 4.1328125 -105.0003125 4.1328125 -104.3203125 4.1328125 C-103.16605403 5.32101975 -102.01204705 6.50947245 -100.859375 7.69921875 C-92.35541466 15.62042038 -82.50484208 17.73403587 -71.16796875 17.484375 C-58.89405743 16.36290087 -47.52890287 11.19032908 -38.3203125 3.1328125 C-37.6603125 3.1328125 -37.0003125 3.1328125 -36.3203125 3.1328125 C-36.3203125 2.4728125 -36.3203125 1.8128125 -36.3203125 1.1328125 C-24.19773144 0.20116441 -12.15366387 -0.01534046 0 0 Z " fill="#1C1B1A" transform="translate(198.3203125,343.8671875)"/>
<path d="M0 0 C0 0.66 0 1.32 0 2 C1.19882813 1.51080078 1.19882813 1.51080078 2.421875 1.01171875 C6.80979626 -0.22897078 10.72035601 -0.25690584 15.25 -0.1875 C16.0646875 -0.18685547 16.879375 -0.18621094 17.71875 -0.18554688 C23.71830357 -0.14084821 23.71830357 -0.14084821 26 1 C28.09821215 0.60061233 28.09821215 0.60061233 30 0 C30 0.66 30 1.32 30 2 C30.84780029 1.67475342 31.69560059 1.34950684 32.5690918 1.0144043 C36.19954988 -0.0590002 39.11760452 -0.24365219 42.89453125 -0.23046875 C44.82135742 -0.22756836 44.82135742 -0.22756836 46.78710938 -0.22460938 C47.44735107 -0.21840576 48.10759277 -0.21220215 48.7878418 -0.20581055 C50.82418147 -0.18739436 52.86006956 -0.18530226 54.89648438 -0.18554688 C64.85967183 -0.14032817 64.85967183 -0.14032817 66 1 C68.64813008 1.38916263 71.27748703 1.71620662 73.9375 2 C75.13258179 2.13245117 75.13258179 2.13245117 76.35180664 2.26757812 C82.97307296 2.96817258 89.59304358 3.36777941 96.24780273 3.5703125 C99.99308932 3.71969957 101.80801681 3.87201121 105 6 C106.6721635 5.69543782 108.33808978 5.35629105 110 5 C112.44074404 5.10932784 114.87911946 5.28126916 117.3125 5.5 C122.71281549 5.94141938 127.659943 5.9808268 133 5 C133 5.66 133 6.32 133 7 C132.34 7 131.68 7 131 7 C131 7.66 131 8.32 131 9 C130.34 9 129.68 9 129 9 C128.67 9.66 128.34 10.32 128 11 C124.7 11 121.4 11 118 11 C118 10.34 118 9.68 118 9 C117.01 9.66 116.02 10.32 115 11 C108.27338366 11.32031506 108.27338366 11.32031506 105.10546875 10.5234375 C102.49125543 9.87352176 99.93322186 9.66110182 97.25 9.4375 C96.26515625 9.35371094 95.2803125 9.26992188 94.265625 9.18359375 C93.51796875 9.12300781 92.7703125 9.06242187 92 9 C92 9.66 92 10.32 92 11 C86.91913204 11.84681133 82.15171623 12.09038099 77 12 C77.33 11.01 77.66 10.02 78 9 C77.38511719 9.20496094 76.77023437 9.40992188 76.13671875 9.62109375 C72.7578125 10.74739583 69.37890625 11.87369792 66 13 C65.67 13.66 65.34 14.32 65 15 C62.69 15 60.38 15 58 15 C58 15.33 58 15.66 58 16 C59.72814161 16.19672365 61.45759197 16.38196799 63.1875 16.5625 C64.15042969 16.66691406 65.11335938 16.77132813 66.10546875 16.87890625 C68.97004266 16.99874672 71.22619969 16.6739647 74 16 C77.625 15.25 77.625 15.25 81 15 C81.42667969 15.47566406 81.85335937 15.95132812 82.29296875 16.44140625 C84.87312642 18.79720239 87.26406601 18.51802307 90.6875 18.6875 C91.86699219 18.75324219 93.04648437 18.81898438 94.26171875 18.88671875 C95.16535156 18.92410156 96.06898438 18.96148437 97 19 C97 18.34 97 17.68 97 17 C101.75 18.875 101.75 18.875 104 20 C104 21.32 104 22.64 104 24 C103.236875 23.814375 102.47375 23.62875 101.6875 23.4375 C97.43310253 22.93274098 93.62803047 23.33433513 89.390625 23.84375 C87 24 87 24 85 23 C80.16736418 23.27571791 80.16736418 23.27571791 76.0625 25.5625 C75.711875 26.036875 75.36125 26.51125 75 27 C74.01 26.4740625 74.01 26.4740625 73 25.9375 C68.9486909 24.67146591 66.16625445 25.29385518 62 26 C61.505 24.515 61.505 24.515 61 23 C57.99615946 23.6954344 57.99615946 23.6954344 55 25 C54.03122943 27.03243548 54.03122943 27.03243548 54 29 C55.98 29.495 55.98 29.495 58 30 C59.125 33.75 59.125 33.75 58 36 C55 36 52 36 49 36 C49 36.66 49 37.32 49 38 C47.35 38.33 45.7 38.66 44 39 C43.67 38.34 43.34 37.68 43 37 C41.453125 37.495 41.453125 37.495 39.875 38 C37.40196982 38.71717875 35.74463029 38.99444848 33.125 38.9375 C28.7585265 39.02482947 25.06173503 40.48361892 21 42 C20.67 41.34 20.34 40.68 20 40 C18.948125 40.474375 17.89625 40.94875 16.8125 41.4375 C13.89346486 42.67838538 11.1901968 43.72655456 8 44 C7.34 43.34 6.68 42.68 6 42 C2.64255888 41.75622117 2.64255888 41.75622117 -1.125 41.875 C-2.40632813 41.89304687 -3.68765625 41.91109375 -5.0078125 41.9296875 C-5.99523437 41.95289063 -6.98265625 41.97609375 -8 42 C-8 41.34 -8 40.68 -8 40 C-8.99 40.66 -9.98 41.32 -11 42 C-11.99 42 -12.98 42 -14 42 C-14.33 41.01 -14.66 40.02 -15 39 C-15.99 38.67 -16.98 38.34 -18 38 C-18.33 38.99 -18.66 39.98 -19 41 C-20.92578125 41.765625 -20.92578125 41.765625 -23.3125 42.25 C-24.09238281 42.42015625 -24.87226563 42.5903125 -25.67578125 42.765625 C-28.07989391 43.00805653 -29.69565775 42.63076918 -32 42 C-32.33 42.33 -32.66 42.66 -33 43 C-34.66617115 43.04063832 -36.33388095 43.042721 -38 43 C-37.375 40.625 -37.375 40.625 -36 38 C-29.56304103 34.6989954 -21.11696915 34.92278153 -14 35 C-14 34.01 -14 33.02 -14 32 C-22.26747851 31.76341079 -29.92046224 32.18655665 -38 34 C-38.38218767 32.34385343 -38.71395102 30.67542976 -39 29 C-38 28 -38 28 -34.5625 27.625 C-33.386875 27.41875 -32.21125 27.2125 -31 27 C-30.34 26.01 -29.68 25.02 -29 24 C-29.99 23.67 -30.98 23.34 -32 23 C-31.67 21.68 -31.34 20.36 -31 19 C-27.25 17.875 -27.25 17.875 -25 19 C-25.33 17.68 -25.66 16.36 -26 15 C-26.99 15.33 -27.98 15.66 -29 16 C-29.99 15.01 -30.98 14.02 -32 13 C-28.77208445 10.8480563 -27.71599191 10.79913557 -24 11 C-24 11.66 -24 12.32 -24 13 C-23.01 13 -22.02 13 -21 13 C-21 12.34 -21 11.68 -21 11 C-13.71428571 7.57142857 -13.71428571 7.57142857 -9 8 C-9.495 7.01 -9.495 7.01 -10 6 C-13.48254713 5.25248627 -13.48254713 5.25248627 -17 5 C-17.33 5.33 -17.66 5.66 -18 6 C-23.52941176 6.23529412 -23.52941176 6.23529412 -26 5 C-26 4.01 -26 3.02 -26 2 C-26.51949219 2.22816406 -27.03898437 2.45632813 -27.57421875 2.69140625 C-31.96653473 4.50191727 -34.29854352 5.07461862 -39 4 C-39.474375 4.495 -39.94875 4.99 -40.4375 5.5 C-40.953125 5.995 -41.46875 6.49 -42 7 C-45.1875 6.6875 -45.1875 6.6875 -48 6 C-48.625 4.125 -48.625 4.125 -49 2 C-47 0 -47 0 -43.6875 -0.1875 C-40.6506665 -0.03308474 -37.96059328 0.39046609 -35 1 C-34.67 0.67 -34.34 0.34 -34 0 C-31.64686445 -0.07271741 -29.29166332 -0.08370868 -26.9375 -0.0625 C-25.64714844 -0.05347656 -24.35679687 -0.04445313 -23.02734375 -0.03515625 C-22.02832031 -0.02355469 -21.02929688 -0.01195312 -20 0 C-20 0.66 -20 1.32 -20 2 C-19.01 2 -18.02 2 -17 2 C-16.67 1.01 -16.34 0.02 -16 -1 C-11.37482863 -3.22008226 -4.71482912 -1.37515849 0 0 Z " fill="#1E1D1B" transform="translate(243,380)"/>
<path d="M0 0 C8.91 0 17.82 0 27 0 C27 0.33 27 0.66 27 1 C23.04 1 19.08 1 15 1 C15 5.95 15 10.9 15 16 C19.62 16 24.24 16 29 16 C29 11.05 29 6.1 29 1 C29.33 1 29.66 1 30 1 C30.495 7.93 30.495 7.93 31 15 C41.89 15.495 41.89 15.495 53 16 C53 11.38 53 6.76 53 2 C53.33 2 53.66 2 54 2 C54 6.62 54 11.24 54 16 C58.62 16 63.24 16 68 16 C68 11.05 68 6.1 68 1 C68.66 1 69.32 1 70 1 C70 6.61 70 12.22 70 18 C65.05 17.67 60.1 17.34 55 17 C55 18.98 55 20.96 55 23 C55.73605469 22.90460938 56.47210938 22.80921875 57.23046875 22.7109375 C58.20628906 22.60007812 59.18210937 22.48921875 60.1875 22.375 C61.15042969 22.25898438 62.11335938 22.14296875 63.10546875 22.0234375 C66.28376759 21.99770229 68.1204006 22.72848857 71 24 C73.66572015 24.49313497 76.29815717 24.72523632 79 25 C79 24.34 79 23.68 79 23 C80.32 23 81.64 23 83 23 C83 23.66 83 24.32 83 25 C83.66 25 84.32 25 85 25 C85 22.36 85 19.72 85 17 C88.08325358 16.9417747 91.16636505 16.90632866 94.25 16.875 C95.55904297 16.84986328 95.55904297 16.84986328 96.89453125 16.82421875 C97.73886719 16.81777344 98.58320313 16.81132812 99.453125 16.8046875 C100.22817383 16.79421387 101.00322266 16.78374023 101.80175781 16.77294922 C104 17 104 17 108 19 C100.74 19 93.48 19 86 19 C86 20.65 86 22.3 86 24 C93.59 24 101.18 24 109 24 C111 29 111 29 111 33 C110.28053696 32.97036163 109.56107391 32.94072327 108.81980896 32.91018677 C87.04859609 32.04299741 65.3049434 31.84194295 43.51831055 31.86962891 C38.95493417 31.87535562 34.39161579 31.87192451 29.82824135 31.86617661 C10.86029832 31.84604969 -8.05569328 31.93316007 -27 33 C-26.5020163 29.26512223 -26.12508244 27.18762365 -24 24 C-21.18935314 23.74856833 -18.6164983 23.6741522 -15.8125 23.75 C-14.6977832 23.75773437 -14.6977832 23.75773437 -13.56054688 23.765625 C-8.95687765 23.83018127 -4.54214607 24.25400515 0 25 C0 24.34 0 23.68 0 23 C4.29 23 8.58 23 13 23 C12.82597656 22.00871094 12.65195313 21.01742188 12.47265625 19.99609375 C11.89590304 15.95882125 12.11353465 12.13006496 12.4375 8.0625 C12.48970703 7.37865234 12.54191406 6.69480469 12.59570312 5.99023438 C12.72369898 4.32628831 12.86087719 2.6630527 13 1 C8.71 1 4.42 1 0 1 C0 0.67 0 0.34 0 0 Z " fill="#2C2A28" transform="translate(179,309)"/>
<path d="M0 0 C2.03515625 0.484375 2.03515625 0.484375 6.03515625 2.484375 C6.03515625 7.104375 6.03515625 11.724375 6.03515625 16.484375 C6.69515625 16.484375 7.35515625 16.484375 8.03515625 16.484375 C8.03515625 11.864375 8.03515625 7.244375 8.03515625 2.484375 C11.66515625 2.484375 15.29515625 2.484375 19.03515625 2.484375 C19.03515625 9.414375 19.03515625 16.344375 19.03515625 23.484375 C15.40515625 23.484375 11.77515625 23.484375 8.03515625 23.484375 C8.03515625 22.164375 8.03515625 20.844375 8.03515625 19.484375 C7.37515625 19.484375 6.71515625 19.484375 6.03515625 19.484375 C6.03515625 20.804375 6.03515625 22.124375 6.03515625 23.484375 C5.19210938 23.53335938 4.3490625 23.58234375 3.48046875 23.6328125 C2.38476562 23.70757812 1.2890625 23.78234375 0.16015625 23.859375 C-0.93039063 23.92898437 -2.0209375 23.99859375 -3.14453125 24.0703125 C-6.09530849 24.21690991 -6.09530849 24.21690991 -7.96484375 26.484375 C-8.29484375 25.494375 -8.62484375 24.504375 -8.96484375 23.484375 C-9.59575928 23.48961182 -10.2266748 23.49484863 -10.87670898 23.50024414 C-13.71857722 23.52095326 -16.56042963 23.53401566 -19.40234375 23.546875 C-20.89217773 23.55944336 -20.89217773 23.55944336 -22.41210938 23.57226562 C-23.35634766 23.57548828 -24.30058594 23.57871094 -25.2734375 23.58203125 C-26.58526001 23.58988647 -26.58526001 23.58988647 -27.92358398 23.59790039 C-29.96484375 23.484375 -29.96484375 23.484375 -30.96484375 22.484375 C-31.05153807 20.9956564 -31.07187869 19.50293 -31.0625 18.01171875 C-31.05927734 17.11259766 -31.05605469 16.21347656 -31.05273438 15.28710938 C-31.04435547 14.34158203 -31.03597656 13.39605469 -31.02734375 12.421875 C-31.02283203 11.47248047 -31.01832031 10.52308594 -31.01367188 9.54492188 C-31.00184485 7.19134435 -30.985364 4.83789023 -30.96484375 2.484375 C-30.31410889 2.46455566 -29.66337402 2.44473633 -28.99291992 2.42431641 C-26.04565224 2.32908201 -23.0990949 2.21939682 -20.15234375 2.109375 C-19.12818359 2.0784375 -18.10402344 2.0475 -17.04882812 2.015625 C-15.57446289 1.95761719 -15.57446289 1.95761719 -14.0703125 1.8984375 C-13.16434326 1.8670166 -12.25837402 1.8355957 -11.32495117 1.80322266 C-6.84518961 1.19801229 -4.97717618 -0.65211557 0 0 Z " fill="#424140" transform="translate(240.96484375,224.515625)"/>
<path d="M0 0 C2.31 0 4.62 0 7 0 C6.35546875 0.17273438 5.7109375 0.34546875 5.046875 0.5234375 C2.59554118 1.92982628 2.59554118 1.92982628 2.390625 5.4765625 C2.32418219 6.858573 2.2780748 8.2416781 2.25 9.625 C2.20552734 10.68460938 2.20552734 10.68460938 2.16015625 11.765625 C2.08944643 13.50980047 2.04245965 15.25490827 2 17 C3.09699219 16.98839844 4.19398438 16.97679687 5.32421875 16.96484375 C6.77864412 16.95546036 8.23307135 16.94636075 9.6875 16.9375 C10.40873047 16.92912109 11.12996094 16.92074219 11.87304688 16.91210938 C15.71555382 16.89456368 19.26639526 17.06475779 23 18 C23 18.33 23 18.66 23 19 C20.24993392 19.0270203 17.50013454 19.04684883 14.75 19.0625 C13.97269531 19.07087891 13.19539063 19.07925781 12.39453125 19.08789062 C11.26337891 19.09272461 11.26337891 19.09272461 10.109375 19.09765625 C9.07248535 19.10551147 9.07248535 19.10551147 8.01464844 19.11352539 C5.90026102 18.99437971 4.03358485 18.57618237 2 18 C2 19.98 2 21.96 2 24 C2.65073486 23.97905273 3.30146973 23.95810547 3.97192383 23.93652344 C6.91862555 23.85340662 9.8650809 23.80135516 12.8125 23.75 C13.83666016 23.71648437 14.86082031 23.68296875 15.91601562 23.6484375 C16.89892578 23.63554687 17.88183594 23.62265625 18.89453125 23.609375 C19.80050049 23.58842773 20.70646973 23.56748047 21.63989258 23.54589844 C24 24 24 24 25.7565918 25.71191406 C27.08953192 28.1647542 27.61754988 30.24635914 28 33 C24.05703678 32.87870806 20.11417943 32.75440135 16.17138672 32.62768555 C14.19633538 32.56477232 12.2212154 32.50402525 10.24609375 32.44335938 C3.30195886 32.2187978 -3.62730202 31.91736851 -10.5625 31.5 C-21.409136 30.85920365 -32.26314027 30.65638104 -43.125 30.4375 C-45.1627664 30.39416054 -47.20052689 30.35054227 -49.23828125 30.30664062 C-54.15879223 30.20122555 -59.07936679 30.09953928 -64 30 C-64 29.67 -64 29.34 -64 29 C-63.39937744 28.94465088 -62.79875488 28.88930176 -62.17993164 28.83227539 C-59.47366869 28.58029218 -56.76810116 28.3214883 -54.0625 28.0625 C-53.11697266 27.97548828 -52.17144531 27.88847656 -51.19726562 27.79882812 C-50.29814453 27.71181641 -49.39902344 27.62480469 -48.47265625 27.53515625 C-47.64000244 27.456604 -46.80734863 27.37805176 -45.94946289 27.29711914 C-43.999388 27.19688602 -43.999388 27.19688602 -43 26 C-45.31 25.34 -47.62 24.68 -50 24 C-50 23.67 -50 23.34 -50 23 C-46.54173658 22.94210994 -43.08359707 22.90644179 -39.625 22.875 C-38.64015625 22.85824219 -37.6553125 22.84148437 -36.640625 22.82421875 C-35.22910156 22.81455078 -35.22910156 22.81455078 -33.7890625 22.8046875 C-32.48509521 22.78897705 -32.48509521 22.78897705 -31.15478516 22.77294922 C-29 23 -29 23 -27 25 C-27 24.34 -27 23.68 -27 23 C-22.71 23 -18.42 23 -14 23 C-14 21.68 -14 20.36 -14 19 C-13.34 19 -12.68 19 -12 19 C-12 20.32 -12 21.64 -12 23 C-8.37 23 -4.74 23 -1 23 C-0.67 15.41 -0.34 7.82 0 0 Z " fill="#1E1B19" transform="translate(261,225)"/>
<path d="M0 0 C0.99 0.99 0.99 0.99 2 2 C5.12814514 2.24360073 5.12814514 2.24360073 8.625 2.125 C9.81351562 2.10695313 11.00203125 2.08890625 12.2265625 2.0703125 C13.59941406 2.03550781 13.59941406 2.03550781 15 2 C15 2.66 15 3.32 15 4 C16.0725 3.649375 17.145 3.29875 18.25 2.9375 C23.2 1.7 23.2 1.7 26 3 C27.75 4.5625 27.75 4.5625 29 6 C27.046875 5.93489583 25.09375 5.86979167 23.140625 5.8046875 C20.96451664 5.86179736 20.96451664 5.86179736 19.140625 7.00390625 C16.18271138 8.38030766 13.74297287 8.15547514 10.5 8.0625 C6.09736364 7.89831113 6.09736364 7.89831113 1.78125 8.55859375 C0 9 0 9 -3 8 C-5.89230524 8.53891187 -5.89230524 8.53891187 -9 9.4375 C-12.93457513 10.51275766 -16.11917948 11.03017359 -20.19140625 10.96484375 C-20.97386719 10.95582031 -21.75632812 10.94679688 -22.5625 10.9375 C-23.34753906 10.92589844 -24.13257813 10.91429687 -24.94140625 10.90234375 C-27.06503723 10.86404829 -27.06503723 10.86404829 -29 12 C-29 11.34 -29 10.68 -29 10 C-30.32 10.33 -31.64 10.66 -33 11 C-33.33 12.32 -33.66 13.64 -34 15 C-34.37125 14.505 -34.7425 14.01 -35.125 13.5 C-37.8023572 11.35811424 -39.64172556 11.73133804 -43 12 C-43.721875 12.16113281 -44.44375 12.32226562 -45.1875 12.48828125 C-49.51964266 13.27649054 -53.90028756 13.35532594 -58.29296875 13.51757812 C-62.00713326 13.70155076 -63.83682395 13.89121596 -67 16 C-69.55859375 16.16015625 -69.55859375 16.16015625 -72.4375 16.0625 C-75.85159516 15.95566437 -78.72165702 16.00022164 -82 17 C-82 17.66 -82 18.32 -82 19 C-87.36991485 22.05108798 -87.36991485 22.05108798 -90.3125 21.8125 C-92 21 -92 21 -93 19 C-92.05125 19.020625 -91.1025 19.04125 -90.125 19.0625 C-87.09333717 19.22551826 -87.09333717 19.22551826 -85 18 C-85.66 17.34 -86.32 16.68 -87 16 C-86.30132812 15.76925781 -85.60265625 15.53851563 -84.8828125 15.30078125 C-83.97273437 14.97464844 -83.06265625 14.64851563 -82.125 14.3125 C-81.22007812 13.99925781 -80.31515625 13.68601562 -79.3828125 13.36328125 C-76.39386801 11.65321301 -75.98908101 10.22232183 -75 7 C-74 6 -74 6 -70.9375 5.9375 C-69.4834375 5.9684375 -69.4834375 5.9684375 -68 6 C-67.34 7.32 -66.68 8.64 -66 10 C-64.80375 9.54625 -63.6075 9.0925 -62.375 8.625 C-57.12550598 6.86136873 -51.86700497 6.17996818 -46.390625 5.46875 C-38.97699318 4.49776526 -38.97699318 4.49776526 -32 2 C-29.3827887 1.87283606 -26.80519353 1.81022745 -24.1875 1.8125 C-23.43154541 1.81185547 -22.67559082 1.81121094 -21.89672852 1.81054688 C-15.12063517 1.87333473 -8.65714961 2.70330303 -2 4 C-2 3.01 -2 2.02 -2 1 C-1.34 0.67 -0.68 0.34 0 0 Z " fill="#1F1D1A" transform="translate(263,423)"/>
<path d="M0 0 C4.62 0 9.24 0 14 0 C14 1.98 14 3.96 14 6 C14.33 6 14.66 6 15 6 C15.33 4.02 15.66 2.04 16 0 C23.26 0 30.52 0 38 0 C38 1.98 38 3.96 38 6 C32.06 6.33 26.12 6.66 20 7 C22.97 7.495 22.97 7.495 26 8 C25.67 8.99 25.34 9.98 25 11 C22.23492291 12.04369031 19.53296095 12.14490963 16.59863281 12.20532227 C15.3077475 12.2352401 15.3077475 12.2352401 13.99078369 12.26576233 C13.07085632 12.28247482 12.15092896 12.29918732 11.203125 12.31640625 C9.77996979 12.3475779 9.77996979 12.3475779 8.32806396 12.37937927 C5.30211518 12.44467934 2.2760808 12.50366888 -0.75 12.5625 C-2.80339421 12.6057038 -4.85677982 12.64931869 -6.91015625 12.69335938 C-11.9400168 12.80034073 -16.96996332 12.90166323 -22 13 C-19.525 13.495 -19.525 13.495 -17 14 C-17 14.33 -17 14.66 -17 15 C-24.92 15.33 -32.84 15.66 -41 16 C-40 10 -40 10 -38 7 C-35.18935314 6.74856833 -32.6164983 6.6741522 -29.8125 6.75 C-28.6977832 6.75773437 -28.6977832 6.75773437 -27.56054688 6.765625 C-22.95687765 6.83018127 -18.54214607 7.25400515 -14 8 C-14 7.34 -14 6.68 -14 6 C-9.38 6 -4.76 6 0 6 C0 4.02 0 2.04 0 0 Z " fill="#252220" transform="translate(193,326)"/>
<path d="M0 0 C3.96 0 7.92 0 12 0 C12 1.98 12 3.96 12 6 C10.02 6 8.04 6 6 6 C6.495 6.495 6.495 6.495 7 7 C8.53202706 6.74804092 10.05257128 6.42403223 11.5625 6.0625 C12.38878906 5.86785156 13.21507812 5.67320312 14.06640625 5.47265625 C14.70449219 5.31667969 15.34257812 5.16070312 16 5 C16.495 5.99 16.495 5.99 17 7 C19.3140622 7.73075648 21.64828869 8.40138258 24 9 C22 11 22 11 9 12 C27.315 12.495 27.315 12.495 46 13 C46 13.33 46 13.66 46 14 C44.91150002 14.0154612 44.91150002 14.0154612 43.80101013 14.03123474 C36.84738494 14.13060666 29.8938172 14.23327426 22.9402914 14.33933926 C19.36833849 14.39371564 15.79637736 14.44696486 12.22436523 14.49731445 C-4.8645121 14.7390855 -21.92922292 15.12701993 -39 16 C-38.01 13.03 -37.02 10.06 -36 7 C-33.82664063 7.01740234 -33.82664063 7.01740234 -31.609375 7.03515625 C-17.75459987 7.13601447 -17.75459987 7.13601447 -3.94921875 6.12109375 C-2.98435547 6.06115234 -2.98435547 6.06115234 -2 6 C-1.505 6.495 -1.505 6.495 -1 7 C-0.67 4.69 -0.34 2.38 0 0 Z " fill="#262220" transform="translate(195,242)"/>
<path d="M0 0 C0 1.32 0 2.64 0 4 C-6.62477721 5.01431996 -13.05668083 5.08526521 -19.75 5 C-21.78640461 4.97444913 -23.82287242 4.95343092 -25.859375 4.9375 C-26.75108398 4.92589844 -27.64279297 4.91429687 -28.56152344 4.90234375 C-30.8608236 4.99442626 -32.80018374 5.34990886 -35 6 C-35 5.34 -35 4.68 -35 4 C-36.65 4.66 -38.3 5.32 -40 6 C-40.495 5.505 -40.495 5.505 -41 5 C-43.905506 4.89909377 -46.78216783 4.86134926 -49.6875 4.875 C-50.49123047 4.87113281 -51.29496094 4.86726563 -52.12304688 4.86328125 C-56.52795572 4.8704847 -60.66382846 5.11735442 -65 6 C-65 5.34 -65 4.68 -65 4 C-66.91583647 3.8041991 -68.83272539 3.61867786 -70.75 3.4375 C-71.81734375 3.33308594 -72.8846875 3.22867187 -73.984375 3.12109375 C-76.65659792 3.01378946 -78.52400736 3.03390007 -81 4 C-81.33 4.66 -81.66 5.32 -82 6 C-82.99 6 -83.98 6 -85 6 C-85 5.34 -85 4.68 -85 4 C-87.29225435 4.11371497 -89.58382388 4.24130964 -91.875 4.375 C-93.78925781 4.47941406 -93.78925781 4.47941406 -95.7421875 4.5859375 C-99.08061699 4.67241106 -99.08061699 4.67241106 -101 7 C-101 6.34 -101 5.68 -101 5 C-104.63 4.67 -108.26 4.34 -112 4 C-111.67 2.68 -111.34 1.36 -111 0 C-110.34141495 0.00222061 -109.6828299 0.00444122 -109.00428772 0.00672913 C-102.00961869 0.02924032 -95.01496029 0.04409253 -88.02026367 0.05493164 C-85.42650941 0.05989163 -82.83275783 0.0666617 -80.23901367 0.07543945 C-64.87381921 0.12605141 -49.56100179 -0.04984406 -34.21142578 -0.77124023 C-22.74392472 -1.30675458 -11.43453897 -0.98664743 0 0 Z " fill="#E9E8E7" transform="translate(308,376)"/>
<path d="M0 0 C4.29 0 8.58 0 13 0 C13 6.93 13 13.86 13 21 C11.68 21 10.36 21 9 21 C9 21.66 9 22.32 9 23 C1.72156863 23.25098039 1.72156863 23.25098039 -1.875 22 C-6.25986376 20.5968436 -10.4342097 20.83758058 -15 21 C-15 19.02 -15 17.04 -15 15 C-12.87506859 14.97306425 -10.75004088 14.95363372 -8.625 14.9375 C-7.44164062 14.92589844 -6.25828125 14.91429687 -5.0390625 14.90234375 C-2 15 -2 15 0 16 C0 10.72 0 5.44 0 0 Z " fill="#3B3939" transform="translate(249,311)"/>
<path d="M0 0 C4.62 0 9.24 0 14 0 C14 7.26 14 14.52 14 22 C9.71 22 5.42 22 1 22 C1 22.66 1 23.32 1 24 C-3.95 23.67 -8.9 23.34 -14 23 C-14 22.67 -14 22.34 -14 22 C-9.71 22 -5.42 22 -1 22 C-1 20.35 -1 18.7 -1 17 C-1.59425781 17.0721875 -2.18851563 17.144375 -2.80078125 17.21875 C-9.22562641 17.93817279 -15.53847873 18.11055835 -22 18 C-20 16 -20 16 -18.02880859 15.77294922 C-17.24328613 15.78342285 -16.45776367 15.79389648 -15.6484375 15.8046875 C-14.79765625 15.81113281 -13.946875 15.81757813 -13.0703125 15.82421875 C-11.73613281 15.84935547 -11.73613281 15.84935547 -10.375 15.875 C-9.02921875 15.88853516 -9.02921875 15.88853516 -7.65625 15.90234375 C-5.43738678 15.92594868 -3.2186603 15.96182038 -1 16 C-0.67 10.72 -0.34 5.44 0 0 Z " fill="#4B494A" transform="translate(178,310)"/>
<path d="M0 0 C0 0.66 0 1.32 0 2 C-10.30226216 5.43408739 -22.97665132 4.29525427 -33.8125 4.5625 C-34.62817444 4.58367889 -35.44384888 4.60485779 -36.28424072 4.62667847 C-52.85757417 5.05259189 -69.42221595 5.11269148 -86 5 C-85.67 4.01 -85.34 3.02 -85 2 C-77.96269434 1.22052132 -70.94967175 0.71065985 -63.875 0.4375 C-62.22600708 0.37381226 -62.22600708 0.37381226 -60.54370117 0.30883789 C-40.37555796 -0.35326444 -20.17583005 -0.08049033 0 0 Z " fill="#DADAD9" transform="translate(240,368)"/>
<path d="M0 0 C4.29 0 8.58 0 13 0 C13.02683201 3.47921735 13.0467567 6.95823039 13.0625 10.4375 C13.07087891 11.43072266 13.07925781 12.42394531 13.08789062 13.44726562 C13.09111328 14.39150391 13.09433594 15.33574219 13.09765625 16.30859375 C13.10289307 17.18314209 13.10812988 18.05769043 13.11352539 18.95874023 C13 21 13 21 12 22 C9.98405418 22.23427778 7.961526 22.41336124 5.9375 22.5625 C4.28041016 22.68818359 4.28041016 22.68818359 2.58984375 22.81640625 C1.73519531 22.87699219 0.88054687 22.93757813 0 23 C0 20.69 0 18.38 0 16 C-0.86963379 16.24447876 -0.86963379 16.24447876 -1.75683594 16.49389648 C-5.22673123 17.27677556 -8.712623 17.10312359 -12.25 17.0625 C-12.99507812 17.05798828 -13.74015625 17.05347656 -14.5078125 17.04882812 C-16.3385764 17.03709246 -18.16929873 17.0191585 -20 17 C-20 16.67 -20 16.34 -20 16 C-13.28327457 14.96665763 -6.79665108 14.92276533 0 15 C0 10.05 0 5.1 0 0 Z " fill="#5F5E5E" transform="translate(180,227)"/>
<path d="M0 0 C0.66 0 1.32 0 2 0 C2.495 1.98 2.495 1.98 3 4 C6.3 4.33 9.6 4.66 13 5 C11 7 11 7 8.375 7.125 C7.59125 7.08375 6.8075 7.0425 6 7 C6 7.66 6 8.32 6 9 C6.99 9.33 7.98 9.66 9 10 C2.02203832 10.91623395 -4.78342939 11.13231811 -11.81640625 11.09765625 C-13.46200783 11.09553383 -13.46200783 11.09553383 -15.14085388 11.09336853 C-18.61476469 11.08781012 -22.08860896 11.07526546 -25.5625 11.0625 C-27.93033761 11.05747962 -30.29817623 11.05291766 -32.66601562 11.04882812 C-38.44403278 11.03785435 -44.22201164 11.02115811 -50 11 C-50 10.67 -50 10.34 -50 10 C-49.39937744 9.94465088 -48.79875488 9.88930176 -48.17993164 9.83227539 C-45.47366869 9.58029218 -42.76810116 9.3214883 -40.0625 9.0625 C-39.11697266 8.97548828 -38.17144531 8.88847656 -37.19726562 8.79882812 C-36.29814453 8.71181641 -35.39902344 8.62480469 -34.47265625 8.53515625 C-33.64000244 8.456604 -32.80734863 8.37805176 -31.94946289 8.29711914 C-29.999388 8.19688602 -29.999388 8.19688602 -29 7 C-31.31 6.34 -33.62 5.68 -36 5 C-36 4.67 -36 4.34 -36 4 C-32.54173658 3.94210994 -29.08359707 3.90644179 -25.625 3.875 C-24.64015625 3.85824219 -23.6553125 3.84148437 -22.640625 3.82421875 C-21.22910156 3.81455078 -21.22910156 3.81455078 -19.7890625 3.8046875 C-18.48509521 3.78897705 -18.48509521 3.78897705 -17.15478516 3.77294922 C-15 4 -15 4 -13 6 C-13 5.34 -13 4.68 -13 4 C-8.71 4 -4.42 4 0 4 C0 2.68 0 1.36 0 0 Z " fill="#191513" transform="translate(247,244)"/>
<path d="M0 0 C3.01057878 2.09637161 5.35390285 2.06437483 8.98828125 2.24609375 C10.15875 2.31183594 11.32921875 2.37757813 12.53515625 2.4453125 C13.4271875 2.48269531 14.31921875 2.52007812 15.23828125 2.55859375 C15.23828125 1.89859375 15.23828125 1.23859375 15.23828125 0.55859375 C19.98828125 2.43359375 19.98828125 2.43359375 22.23828125 3.55859375 C22.23828125 4.87859375 22.23828125 6.19859375 22.23828125 7.55859375 C21.47515625 7.37296875 20.71203125 7.18734375 19.92578125 6.99609375 C15.67138378 6.49133473 11.86631172 6.89292888 7.62890625 7.40234375 C5.23828125 7.55859375 5.23828125 7.55859375 3.23828125 6.55859375 C-1.59435457 6.83431166 -1.59435457 6.83431166 -5.69921875 9.12109375 C-6.22515625 9.83265625 -6.22515625 9.83265625 -6.76171875 10.55859375 C-7.42171875 10.20796875 -8.08171875 9.85734375 -8.76171875 9.49609375 C-12.81302785 8.23005966 -15.5954643 8.85244893 -19.76171875 9.55859375 C-20.09171875 8.56859375 -20.42171875 7.57859375 -20.76171875 6.55859375 C-22.41171875 6.55859375 -24.06171875 6.55859375 -25.76171875 6.55859375 C-25.25567883 4.38985123 -24.76188062 2.55891748 -23.76171875 0.55859375 C-23.02566406 0.57019531 -22.28960937 0.58179688 -21.53125 0.59375 C-20.55542969 0.60277344 -19.57960938 0.61179687 -18.57421875 0.62109375 C-17.12982422 0.63849609 -17.12982422 0.63849609 -15.65625 0.65625 C-11.8396894 0.52748615 -8.39653626 -0.28594074 -4.69921875 -1.19140625 C-1.76171875 -1.44140625 -1.76171875 -1.44140625 0 0 Z " fill="#191813" transform="translate(324.76171875,396.44140625)"/>
<path d="M0 0 C6.93 0 13.86 0 21 0 C21 4.62 21 9.24 21 14 C14.07 14 7.14 14 0 14 C0 9.38 0 4.76 0 0 Z " fill="#FBFBFB" transform="translate(210,311)"/>
<path d="M0 0 C7.26 0 14.52 0 22 0 C22 4.29 22 8.58 22 13 C14.74 13 7.48 13 0 13 C0 8.71 0 4.42 0 0 Z " fill="#FAFAF9" transform="translate(210,227)"/>
<path d="M0 0 C1.875 0.8125 1.875 0.8125 3.875 2.8125 C4.10546875 5.08984375 4.10546875 5.08984375 4.0625 7.75 C4.05283203 9.06291016 4.05283203 9.06291016 4.04296875 10.40234375 C3.875 12.8125 3.875 12.8125 2.875 15.8125 C3.535 16.59625 4.195 17.38 4.875 18.1875 C6.875 20.8125 6.875 20.8125 6.875 23.4375 C5.61988716 26.418393 4.81044833 27.42202448 1.875 28.8125 C-1.93783745 28.74560811 -4.21415586 28.60948862 -7.125 26.0625 C-8.40633396 23.17949859 -8.13550518 21.76628439 -7.125 18.8125 C-6.465 18.1525 -5.805 17.4925 -5.125 16.8125 C-5.31249016 13.21001055 -5.77510396 9.67602026 -6.2265625 6.09765625 C-6.125 2.8125 -6.125 2.8125 -4.28125 0.859375 C-2.125 -0.1875 -2.125 -0.1875 0 0 Z " fill="#171613" transform="translate(222.125,34.1875)"/>
<path d="M0 0 C0.66 0.66 1.32 1.32 2 2 C5.12814514 2.24360073 5.12814514 2.24360073 8.625 2.125 C9.81351562 2.10695313 11.00203125 2.08890625 12.2265625 2.0703125 C13.14179688 2.04710937 14.05703125 2.02390625 15 2 C15 2.66 15 3.32 15 4 C16.0725 3.649375 17.145 3.29875 18.25 2.9375 C23.2 1.7 23.2 1.7 26 3 C27.75 4.5625 27.75 4.5625 29 6 C27.046875 5.93489583 25.09375 5.86979167 23.140625 5.8046875 C20.96451664 5.86179736 20.96451664 5.86179736 19.140625 7.00390625 C16.18271138 8.38030766 13.74297287 8.15547514 10.5 8.0625 C6.09736364 7.89831113 6.09736364 7.89831113 1.78125 8.55859375 C0 9 0 9 -3 8 C-5.89230524 8.53891187 -5.89230524 8.53891187 -9 9.4375 C-14.25463314 10.87350881 -17.86178883 11.10664128 -23.1875 10 C-24.08855469 9.814375 -24.98960937 9.62875 -25.91796875 9.4375 C-26.60503906 9.293125 -27.29210937 9.14875 -28 9 C-27.67 8.34 -27.34 7.68 -27 7 C-24.03 7 -21.06 7 -18 7 C-17.67 5.68 -17.34 4.36 -17 3 C-15.06257659 2.97296619 -13.12504521 2.95358875 -11.1875 2.9375 C-10.10855469 2.92589844 -9.02960938 2.91429687 -7.91796875 2.90234375 C-5 3 -5 3 -2 4 C-2 3.01 -2 2.02 -2 1 C-1.34 0.67 -0.68 0.34 0 0 Z " fill="#191615" transform="translate(263,423)"/>
<path d="M0 0 C3.63 0 7.26 0 11 0 C11 6.93 11 13.86 11 21 C7.37 21 3.74 21 0 21 C0 14.07 0 7.14 0 0 Z " fill="#E6E6E6" transform="translate(249,227)"/>
<path d="M0 0 C0 1.65 0 3.3 0 5 C0.99 5 1.98 5 3 5 C3.99 5 4.98 5 6 5 C7.125 8.75 7.125 8.75 6 11 C3 11 0 11 -3 11 C-3 11.66 -3 12.32 -3 13 C-4.65 13.33 -6.3 13.66 -8 14 C-8.33 13.34 -8.66 12.68 -9 12 C-10.65 12.33 -12.3 12.66 -14 13 C-14.433125 12.360625 -14.86625 11.72125 -15.3125 11.0625 C-16.91239177 8.73253997 -16.91239177 8.73253997 -20 8 C-19.67 6.35 -19.34 4.7 -19 3 C-18.01 2.67 -17.02 2.34 -16 2 C-16.33 2.99 -16.66 3.98 -17 5 C-15.35 5 -13.7 5 -12 5 C-11.67 4.34 -11.34 3.68 -11 3 C-11.66 3 -12.32 3 -13 3 C-13 2.34 -13 1.68 -13 1 C-8.59085217 -0.10228696 -4.51617599 -0.07654536 0 0 Z " fill="#21211F" transform="translate(295,405)"/>
<path d="M0 0 C8.91 0 17.82 0 27 0 C27 0.33 27 0.66 27 1 C23.04 1 19.08 1 15 1 C15 5.95 15 10.9 15 16 C19.62 16 24.24 16 29 16 C29 11.05 29 6.1 29 1 C29.33 1 29.66 1 30 1 C30.495 7.93 30.495 7.93 31 15 C41.89 15.495 41.89 15.495 53 16 C53 11.38 53 6.76 53 2 C53.33 2 53.66 2 54 2 C54 6.62 54 11.24 54 16 C58.62 16 63.24 16 68 16 C68 11.05 68 6.1 68 1 C68.66 1 69.32 1 70 1 C70 6.61 70 12.22 70 18 C64.72 17.67 59.44 17.34 54 17 C53.67 18.32 53.34 19.64 53 21 C53 19.68 53 18.36 53 17 C45.41 17 37.82 17 30 17 C30 18.98 30 20.96 30 23 C29 24 29 24 26.49609375 24.09765625 C25.48675781 24.08605469 24.47742188 24.07445312 23.4375 24.0625 C22.42558594 24.05347656 21.41367188 24.04445313 20.37109375 24.03515625 C19.19740234 24.01775391 19.19740234 24.01775391 18 24 C18 23.67 18 23.34 18 23 C21.3 23 24.6 23 28 23 C28 21.02 28 19.04 28 17 C26.98679688 17.12568359 26.98679688 17.12568359 25.953125 17.25390625 C25.06109375 17.35574219 24.1690625 17.45757812 23.25 17.5625 C22.36828125 17.66691406 21.4865625 17.77132813 20.578125 17.87890625 C18.11567549 17.99456676 16.33461936 17.73638695 14 17 C14 18.98 14 20.96 14 23 C13.67 23 13.34 23 13 23 C12.09750144 17.85910079 12.02013605 13.30273626 12.4375 8.0625 C12.48970703 7.37865234 12.54191406 6.69480469 12.59570312 5.99023438 C12.72369898 4.32628831 12.86087719 2.6630527 13 1 C8.71 1 4.42 1 0 1 C0 0.67 0 0.34 0 0 Z " fill="#0B0A09" transform="translate(179,309)"/>
<path d="M0 0 C3.3 0.33 6.6 0.66 10 1 C10 1.66 10 2.32 10 3 C38.32812923 3.93040957 66.66173485 4.48157695 95 5 C95 5.33 95 5.66 95 6 C91.38405347 6.82587005 88.02733703 7.13529527 84.32128906 7.16113281 C83.20111389 7.17074036 82.08093872 7.1803479 80.92681885 7.19024658 C79.71862488 7.19449646 78.51043091 7.19874634 77.265625 7.203125 C75.36753082 7.21167511 75.36753082 7.21167511 73.43109131 7.22039795 C70.74113388 7.22984943 68.05128788 7.2367427 65.36132812 7.24023438 C62.6561083 7.24456016 59.95121806 7.25821709 57.24609375 7.28125 C13.05201685 7.6295777 13.05201685 7.6295777 0 2 C0 1.34 0 0.68 0 0 Z " fill="#DEDCDB" transform="translate(157,286)"/>
<path d="M0 0 C1.4540625 0.0309375 1.4540625 0.0309375 2.9375 0.0625 C3.5975 1.3825 4.2575 2.7025 4.9375 4.0625 C8.5675 3.0725 12.1975 2.0825 15.9375 1.0625 C16.9275 2.0525 17.9175 3.0425 18.9375 4.0625 C21.03739652 5.23824711 21.03739652 5.23824711 22.9375 6.0625 C21.81730469 6.18367188 20.69710937 6.30484375 19.54296875 6.4296875 C18.07026364 6.59853267 16.59760996 6.76782697 15.125 6.9375 C14.38701172 7.01613281 13.64902344 7.09476562 12.88867188 7.17578125 C9.22243819 7.60710286 7.05798255 7.9821783 3.9375 10.0625 C1.37890625 10.22265625 1.37890625 10.22265625 -1.5 10.125 C-4.91409516 10.01816437 -7.78415702 10.06272164 -11.0625 11.0625 C-11.0625 11.7225 -11.0625 12.3825 -11.0625 13.0625 C-16.43241485 16.11358798 -16.43241485 16.11358798 -19.375 15.875 C-21.0625 15.0625 -21.0625 15.0625 -22.0625 13.0625 C-21.11375 13.083125 -20.165 13.10375 -19.1875 13.125 C-16.15583717 13.28801826 -16.15583717 13.28801826 -14.0625 12.0625 C-14.7225 11.4025 -15.3825 10.7425 -16.0625 10.0625 C-15.36382812 9.83175781 -14.66515625 9.60101563 -13.9453125 9.36328125 C-13.03523437 9.03714844 -12.12515625 8.71101563 -11.1875 8.375 C-10.28257812 8.06175781 -9.37765625 7.74851562 -8.4453125 7.42578125 C-5.45636801 5.71571301 -5.05158101 4.28482183 -4.0625 1.0625 C-3.0625 0.0625 -3.0625 0.0625 0 0 Z " fill="#22211F" transform="translate(192.0625,428.9375)"/>
<path d="M0 0 C7.59 0 15.18 0 23 0 C25 5 25 5 25 9 C20.74976862 8.88060501 16.49971595 8.75629836 12.24975586 8.62768555 C10.80773698 8.58470988 9.36567933 8.54301352 7.92358398 8.50268555 C0.24044167 8.28697167 -7.37125304 8.01432502 -15 7 C-12.28336207 4.28336207 -10.69805347 4.69246879 -6.8984375 4.5859375 C-5.68671875 4.54726563 -4.475 4.50859375 -3.2265625 4.46875 C-1.95554687 4.4378125 -0.68453125 4.406875 0.625 4.375 C1.90375 4.33632813 3.1825 4.29765625 4.5 4.2578125 C7.66642211 4.16329244 10.83319166 4.080548 14 4 C9.38 3.01 4.76 2.02 0 1 C0 0.67 0 0.34 0 0 Z " fill="#181715" transform="translate(265,333)"/>
<path d="M0 0 C6.93 0 13.86 0 21 0 C21 0.33 21 0.66 21 1 C17.37 1.66 13.74 2.32 10 3 C10 3.66 10 4.32 10 5 C10.64066406 4.82726562 11.28132813 4.65453125 11.94140625 4.4765625 C16.00599354 3.84325516 19.84562438 4.10777547 23.9375 4.375 C24.72318359 4.41882813 25.50886719 4.46265625 26.31835938 4.5078125 C30.6062107 4.76616003 34.77177655 5.19914869 39 6 C39 6.33 39 6.66 39 7 C-5.38617833 8.09681934 -5.38617833 8.09681934 -23.69384766 8.17724609 C-25.06138211 8.1840659 -26.42890392 8.19430362 -27.79638672 8.20800781 C-29.67148217 8.22557094 -31.54669837 8.22845891 -33.421875 8.23046875 C-34.45924805 8.23457764 -35.49662109 8.23868652 -36.56542969 8.24291992 C-39 8 -39 8 -41 6 C-40.44511902 5.98969254 -39.89023804 5.97938507 -39.31854248 5.96876526 C-33.54346198 5.86058684 -27.76853393 5.74599805 -21.99365234 5.62768555 C-19.83841135 5.58437309 -17.68313686 5.54269537 -15.52783203 5.50268555 C-12.42991033 5.44489382 -9.33215666 5.38122477 -6.234375 5.31640625 C-5.27070007 5.29969376 -4.30702515 5.28298126 -3.31414795 5.26576233 C-2.41351624 5.24581711 -1.51288452 5.22587189 -0.58496094 5.20532227 C0.20557678 5.18977798 0.9961145 5.1742337 1.81060791 5.15821838 C4.01195401 4.99913613 5.91218228 4.71967178 8 4 C8.33 3.34 8.66 2.68 9 2 C6.03 1.67 3.06 1.34 0 1 C0 0.67 0 0.34 0 0 Z " fill="#0E0C09" transform="translate(210,332)"/>
<path d="M0 0 C4.29 0 8.58 0 13 0 C13 4.62 13 9.24 13 14 C8.71 14 4.42 14 0 14 C0 9.38 0 4.76 0 0 Z " fill="#F5F5F5" transform="translate(249,311)"/>
<path d="M0 0 C4.29 0 8.58 0 13 0 C13 4.62 13 9.24 13 14 C8.71 14 4.42 14 0 14 C0 9.38 0 4.76 0 0 Z " fill="#F7F7F7" transform="translate(194,311)"/>
<path d="M0 0 C-0.825 0.433125 -1.65 0.86625 -2.5 1.3125 C-3.325 1.869375 -4.15 2.42625 -5 3 C-5 3.99 -5 4.98 -5 6 C-5 6.33 -5 6.66 -5 7 C-8.62528568 7.20140476 -10.86501708 6.85776765 -14 5 C-14 5.99 -14 6.98 -14 8 C-18.98980316 8.10395423 -23.72072427 7.93715158 -28.671875 7.22265625 C-33.75956814 6.73608157 -38.89464628 6.92995704 -44 7 C-44.66 5.68 -45.32 4.36 -46 3 C-44.02 2.34 -42.04 1.68 -40 1 C-40 1.66 -40 2.32 -40 3 C-39.11248047 2.89171875 -39.11248047 2.89171875 -38.20703125 2.78125 C-29.1316726 1.71530249 -29.1316726 1.71530249 -26 2 C-25.34 2.66 -24.68 3.32 -24 4 C-20.55834679 3.64700993 -18.93127462 2.95418308 -16 1 C-15.29875 1.185625 -14.5975 1.37125 -13.875 1.5625 C-10.0582744 2.14330607 -7.53138463 0.97526258 -3.98828125 -0.40625 C-2 -1 -2 -1 0 0 Z " fill="#E6E6E5" transform="translate(275,419)"/>
<path d="M0 0 C3.96 0 7.92 0 12 0 C12 4.62 12 9.24 12 14 C8.04 14 4.08 14 0 14 C0 9.38 0 4.76 0 0 Z " fill="#F7F7F7" transform="translate(234,311)"/>
<path d="M0 0 C3.96 0 7.92 0 12 0 C12 4.62 12 9.24 12 14 C8.04 14 4.08 14 0 14 C0 9.38 0 4.76 0 0 Z " fill="#FBFBFB" transform="translate(179,311)"/>
<path d="M0 0 C3.96 0 7.92 0 12 0 C12 4.62 12 9.24 12 14 C8.04 14 4.08 14 0 14 C0 9.38 0 4.76 0 0 Z " fill="#F2F1F1" transform="translate(195,227)"/>
<path d="M0 0 C3.0368335 0.15441526 5.72690672 0.57796609 8.6875 1.1875 C9.0175 0.8575 9.3475 0.5275 9.6875 0.1875 C12.04063555 0.11478259 14.39583668 0.10379132 16.75 0.125 C18.04035156 0.13402344 19.33070313 0.14304687 20.66015625 0.15234375 C21.65917969 0.16394531 22.65820312 0.17554688 23.6875 0.1875 C23.6875 0.8475 23.6875 1.5075 23.6875 2.1875 C24.6775 2.1875 25.6675 2.1875 26.6875 2.1875 C27.0175 1.5275 27.3475 0.8675 27.6875 0.1875 C28.3475 1.5075 29.0075 2.8275 29.6875 4.1875 C26.28409693 6.28190189 23.64312822 6.44547575 19.6875 6.1875 C19.0275 5.8575 18.3675 5.5275 17.6875 5.1875 C17.6875 4.1975 17.6875 3.2075 17.6875 2.1875 C17.16800781 2.41566406 16.64851563 2.64382813 16.11328125 2.87890625 C11.72096527 4.68941727 9.38895648 5.26211862 4.6875 4.1875 C4.213125 4.6825 3.73875 5.1775 3.25 5.6875 C2.734375 6.1825 2.21875 6.6775 1.6875 7.1875 C-1.5 6.875 -1.5 6.875 -4.3125 6.1875 C-4.9375 4.3125 -4.9375 4.3125 -5.3125 2.1875 C-3.3125 0.1875 -3.3125 0.1875 0 0 Z " fill="#242421" transform="translate(199.3125,379.8125)"/>
<path d="M0 0 C3.63 0 7.26 0 11 0 C11 4.29 11 8.58 11 13 C7.37 13 3.74 13 0 13 C0 8.71 0 4.42 0 0 Z " fill="#F9F9F9" transform="translate(235,227)"/>
<path d="M0 0 C3.3 0 6.6 0 10 0 C10 4.62 10 9.24 10 14 C6.7 14 3.4 14 0 14 C0 9.38 0 4.76 0 0 Z " fill="#FBFBFB" transform="translate(182,227)"/>
<path d="M0 0 C0.33 0.66 0.66 1.32 1 2 C2.98 2 4.96 2 7 2 C7 5.20395416 6.25664978 7.09399739 5 10 C4.443125 9.2265625 4.443125 9.2265625 3.875 8.4375 C1.99891246 6.64984052 1.99891246 6.64984052 -0.9375 7.375 C-2.4534375 7.684375 -2.4534375 7.684375 -4 8 C-6.375 7.5625 -6.375 7.5625 -8 7 C-8.33 7.66 -8.66 8.32 -9 9 C-12.63 8.67 -16.26 8.34 -20 8 C-20 7.01 -20 6.02 -20 5 C-18.948125 5.0825 -17.89625 5.165 -16.8125 5.25 C-12.37770762 4.95919394 -11.23214709 3.88272579 -8 1 C-5.08717359 -0.0592096 -3.21586011 0 0 0 Z " fill="#E6E5E4" transform="translate(321,389)"/>
<path d="M0 0 C0.33 0.99 0.66 1.98 1 3 C2.11375 2.95875 3.2275 2.9175 4.375 2.875 C8 3 8 3 10 5 C13.58343976 5.16677282 13.58343976 5.16677282 17 5 C17.66 6.32 18.32 7.64 19 9 C18.236875 9.12375 17.47375 9.2475 16.6875 9.375 C11.78358776 10.20617157 6.89230526 11.10336754 2 12 C2 11.34 2 10.68 2 10 C1.01 10 0.02 10 -1 10 C-0.814375 9.4225 -0.62875 8.845 -0.4375 8.25 C0.04394633 5.77399031 -0.36051901 4.39805371 -1 2 C-0.67 1.34 -0.34 0.68 0 0 Z " fill="#1A1713" transform="translate(262,409)"/>
<path d="M0 0 C3.04636727 0.98072186 4.31352998 2.97970105 5.94140625 5.625 C5.28140625 5.625 4.62140625 5.625 3.94140625 5.625 C3.94140625 7.605 3.94140625 9.585 3.94140625 11.625 C-0.80859375 12.625 -0.80859375 12.625 -3.05859375 12.625 C-4.04859375 13.12 -4.04859375 13.12 -5.05859375 13.625 C-5.05859375 12.635 -5.05859375 11.645 -5.05859375 10.625 C-6.04859375 10.625 -7.03859375 10.625 -8.05859375 10.625 C-8.05859375 9.965 -8.05859375 9.305 -8.05859375 8.625 C-6.40859375 8.625 -4.75859375 8.625 -3.05859375 8.625 C-3.05859375 7.635 -3.05859375 6.645 -3.05859375 5.625 C-4.37859375 5.625 -5.69859375 5.625 -7.05859375 5.625 C-7.71859375 4.305 -8.37859375 2.985 -9.05859375 1.625 C-5.65940239 -0.64112757 -3.97211015 -0.5852096 0 0 Z " fill="#CECDCC" transform="translate(205.05859375,391.375)"/>
<path d="M0 0 C9.9 0.33 19.8 0.66 30 1 C29.67 2.65 29.34 4.3 29 6 C28.01 6 27.02 6 26 6 C26 5.34 26 4.68 26 4 C23.70774565 4.11371497 21.41617612 4.24130964 19.125 4.375 C17.21074219 4.47941406 17.21074219 4.47941406 15.2578125 4.5859375 C11.91938301 4.67241106 11.91938301 4.67241106 10 7 C10 6.34 10 5.68 10 5 C6.37 4.67 2.74 4.34 -1 4 C-0.67 2.68 -0.34 1.36 0 0 Z " fill="#F7F7F6" transform="translate(197,376)"/>
<path d="M0 0 C1.95825873 -0.02694851 3.91662226 -0.04637218 5.875 -0.0625 C7.51082031 -0.07990234 7.51082031 -0.07990234 9.1796875 -0.09765625 C12 0 12 0 14 1 C14 2.32 14 3.64 14 5 C12.0636296 5.50435694 10.12585854 6.00333874 8.1875 6.5 C7.10855469 6.7784375 6.02960938 7.056875 4.91796875 7.34375 C0.88240374 8.25134695 -2.19328302 7.82996716 -6.1875 7 C-7.08855469 6.814375 -7.98960937 6.62875 -8.91796875 6.4375 C-9.60503906 6.293125 -10.29210937 6.14875 -11 6 C-10.67 5.34 -10.34 4.68 -10 4 C-7.03 4 -4.06 4 -1 4 C-0.67 2.68 -0.34 1.36 0 0 Z " fill="#14110E" transform="translate(246,426)"/>
<path d="M0 0 C7.26 0 14.52 0 22 0 C22 1.65 22 3.3 22 5 C14.74 5 7.48 5 0 5 C0 3.35 0 1.7 0 0 Z " fill="#F8F8F8" transform="translate(210,242)"/>
<path d="M0 0 C0.66 0 1.32 0 2 0 C2.06058594 0.99 2.12117187 1.98 2.18359375 3 C2.70791534 13.04336198 2.70791534 13.04336198 4 23 C4.66 23.33 5.32 23.66 6 24 C6 24.66 6 25.32 6 26 C2.21812119 27.83691257 0.05431692 28.15837626 -4 27 C-3.67 26.34 -3.34 25.68 -3 25 C-2.34 25 -1.68 25 -1 25 C-1 24.34 -1 23.68 -1 23 C-1.66 23 -2.32 23 -3 23 C-2.86722656 22.26136719 -2.73445312 21.52273437 -2.59765625 20.76171875 C-1.39479661 13.85186083 -0.52315859 6.9938043 0 0 Z " fill="#201F1C" transform="translate(220,65)"/>
<path d="M0 0 C0.99 0.66 1.98 1.32 3 2 C1.68 2.99 0.36 3.98 -1 5 C-0.67 6.98 -0.34 8.96 0 11 C-1.19625 10.979375 -2.3925 10.95875 -3.625 10.9375 C-7.18004869 10.93117429 -10.50555624 11.30111125 -14 12 C-14.8125 10.3125 -14.8125 10.3125 -15 8 C-12.5625 5.25 -12.5625 5.25 -10 3 C-10.33 2.34 -10.66 1.68 -11 1 C-7.97580475 1.58803797 -4.98241547 2.22678118 -2 3 C-1.34 2.01 -0.68 1.02 0 0 Z " fill="#C1C1C0" transform="translate(320,403)"/>
<path d="M0 0 C1.63001953 0.01353516 1.63001953 0.01353516 3.29296875 0.02734375 C4.12441406 0.03894531 4.95585937 0.05054688 5.8125 0.0625 C7.36147985 3.1604597 6.64489539 6.32466552 6.375 9.6875 C6.32279297 10.39390625 6.27058594 11.1003125 6.21679688 11.828125 C6.08708793 13.57329987 5.95045046 15.31795725 5.8125 17.0625 C5.4825 17.0625 5.1525 17.0625 4.8125 17.0625 C4.8125 12.4425 4.8125 7.8225 4.8125 3.0625 C0.8525 3.0625 -3.1075 3.0625 -7.1875 3.0625 C-7.1875 7.6825 -7.1875 12.3025 -7.1875 17.0625 C-8.1775 17.0625 -9.1675 17.0625 -10.1875 17.0625 C-10.1875 12.4425 -10.1875 7.8225 -10.1875 3.0625 C-17.1175 3.0625 -24.0475 3.0625 -31.1875 3.0625 C-31.1875 2.7325 -31.1875 2.4025 -31.1875 2.0625 C-30.53676514 2.03744385 -29.88603027 2.0123877 -29.21557617 1.98657227 C-26.26851954 1.87056298 -23.3217787 1.74785885 -20.375 1.625 C-19.35083984 1.58568359 -18.32667969 1.54636719 -17.27148438 1.50585938 C-16.28857422 1.46396484 -15.30566406 1.42207031 -14.29296875 1.37890625 C-13.38699951 1.34224854 -12.48103027 1.30559082 -11.54760742 1.26782227 C-7.52564466 0.91792357 -4.14560038 -0.04457635 0 0 Z " fill="#3D3C3B" transform="translate(241.1875,307.9375)"/>
<path d="M0 0 C6.93 0 13.86 0 21 0 C21 1.65 21 3.3 21 5 C14.07 5 7.14 5 0 5 C0 3.35 0 1.7 0 0 Z " fill="#F6F5F5" transform="translate(210,326)"/>
<path d="M0 0 C5.76171564 -0.02494748 11.52339898 -0.0429758 17.28515625 -0.05493164 C19.24023996 -0.05992238 21.19532 -0.06671734 23.15039062 -0.07543945 C48.3664215 -0.18501832 48.3664215 -0.18501832 54 1 C54.495 1.99 54.495 1.99 55 3 C47.97066386 2.88224517 40.94147876 2.75741691 33.91235352 2.62768555 C31.52143192 2.58439114 29.13048049 2.54271218 26.73950195 2.50268555 C23.30150365 2.44485006 19.86365471 2.38119359 16.42578125 2.31640625 C15.35789871 2.29969376 14.29001617 2.28298126 13.18977356 2.26576233 C11.68878365 2.2358445 11.68878365 2.2358445 10.1574707 2.20532227 C9.28032913 2.18977798 8.40318756 2.1742337 7.49946594 2.15821838 C4.92412348 1.99519695 2.5157444 1.56280119 0 1 C0 0.67 0 0.34 0 0 Z " fill="#110E0D" transform="translate(209,260)"/>
<path d="M0 0 C-0.33 2.64 -0.66 5.28 -1 8 C-2.32 8 -3.64 8 -5 8 C-5 7.34 -5 6.68 -5 6 C-5.99 5.67 -6.98 5.34 -8 5 C-8.33 5.99 -8.66 6.98 -9 8 C-10.258125 8.185625 -11.51625 8.37125 -12.8125 8.5625 C-13.87404297 8.71912109 -13.87404297 8.71912109 -14.95703125 8.87890625 C-17 9 -17 9 -20 8 C-19.67 6.35 -19.34 4.7 -19 3 C-18.01 2.67 -17.02 2.34 -16 2 C-16.33 2.99 -16.66 3.98 -17 5 C-15.35 5 -13.7 5 -12 5 C-11.67 4.34 -11.34 3.68 -11 3 C-11.66 3 -12.32 3 -13 3 C-13 2.34 -13 1.68 -13 1 C-8.59085217 -0.10228696 -4.51617599 -0.07654536 0 0 Z " fill="#D8D7D6" transform="translate(295,405)"/>
<path d="M0 0 C4.75 1.875 4.75 1.875 7 3 C7 4.32 7 5.64 7 7 C6.236875 6.814375 5.47375 6.62875 4.6875 6.4375 C1.34445273 6.04086727 -1.18902405 6.17403625 -4.5 6.5625 C-8.83478201 7.01723871 -12.03047309 7.08922469 -16 5 C-16.33 4.01 -16.66 3.02 -17 2 C-11.06975197 1.02959578 -5.93609666 1.10683731 0 2 C0 1.34 0 0.68 0 0 Z " fill="#151513" transform="translate(340,397)"/>
<path d="M0 0 C0.33 0.66 0.66 1.32 1 2 C2.98 2 4.96 2 7 2 C5.7260411 4.03833424 4.38938077 6.03852126 3 8 C2.34 8 1.68 8 1 8 C1 8.66 1 9.32 1 10 C0.34 10 -0.32 10 -1 10 C-1.33 10.99 -1.66 11.98 -2 13 C-2.5534764 10.92446352 -3 9.15634036 -3 7 C-4.32 7.33 -5.64 7.66 -7 8 C-7.6875 5.6875 -7.6875 5.6875 -8 3 C-5.90994325 -0.36731366 -3.75103888 -0.30413829 0 0 Z " fill="#F2F2F2" transform="translate(304,403)"/>
<path d="M0 0 C0 0.99 0 1.98 0 3 C-7.26 3.99 -14.52 4.98 -22 6 C-21.67 4.35 -21.34 2.7 -21 1 C-13.80298461 -1.39900513 -7.47743661 -0.84349132 0 0 Z " fill="#E1E1E0" transform="translate(229,412)"/>
<path d="M0 0 C2.76262553 0.3810518 3.84143894 0.83597132 5.8125 2.875 C6.204375 3.57625 6.59625 4.2775 7 5 C6.67 5.99 6.34 6.98 6 8 C5.34 8 4.68 8 4 8 C4.350625 8.763125 4.70125 9.52625 5.0625 10.3125 C6 13 6 13 5 16 C1.7317654 12.85281112 -1.1310659 9.50647501 -4 6 C-2.68 5.34 -1.36 4.68 0 4 C0 2.68 0 1.36 0 0 Z " fill="#120F0D" transform="translate(219,92)"/>
<path d="M0 0 C3.28816227 0.26073218 6.5802055 0.41115778 9.875 0.5625 C10.75414062 0.60568359 11.63328125 0.64886719 12.5390625 0.69335938 C14.69255797 0.79869339 16.84626064 0.89977649 19 1 C19 1.33 19 1.66 19 2 C2.5 2 -14 2 -31 2 C-31 1.67 -31 1.34 -31 1 C-25.64882061 0.15920217 -20.34424286 -0.31836237 -14.9375 -0.625 C-13.77250977 -0.70234375 -13.77250977 -0.70234375 -12.58398438 -0.78125 C-8.18279001 -1.03466339 -4.35446093 -0.79525915 0 0 Z " fill="#110D0B" transform="translate(228,253)"/>
<path d="M0 0 C1.2684375 0.12568359 1.2684375 0.12568359 2.5625 0.25390625 C8.92574237 0.82515187 14.70148662 1.11150236 21 0 C21 0.66 21 1.32 21 2 C20.34 2 19.68 2 19 2 C19 2.66 19 3.32 19 4 C18.34 4 17.68 4 17 4 C16.67 4.66 16.34 5.32 16 6 C12.7 6 9.4 6 6 6 C6 5.34 6 4.68 6 4 C5.01 4.33 4.02 4.66 3 5 C3 4.34 3 3.68 3 3 C2.34 3 1.68 3 1 3 C0.67 2.01 0.34 1.02 0 0 Z " fill="#262625" transform="translate(355,385)"/>
<path d="M0 0 C0.99 0.33 1.98 0.66 3 1 C3 7.93 3 14.86 3 22 C0.03 22.66 -2.94 23.32 -6 24 C-6 23.34 -6 22.68 -6 22 C-4.02 22 -2.04 22 0 22 C0 14.74 0 7.48 0 0 Z " fill="#0C0807" transform="translate(207,226)"/>
<path d="M0 0 C3.96 0 7.92 0 12 0 C12 1.98 12 3.96 12 6 C8.04 6 4.08 6 0 6 C0 4.02 0 2.04 0 0 Z " fill="#E4E3E3" transform="translate(235,242)"/>
<path d="M0 0 C6.93 0 13.86 0 21 0 C21 0.33 21 0.66 21 1 C17.37 1.66 13.74 2.32 10 3 C10 3.66 10 4.32 10 5 C10.63292969 4.82597656 11.26585937 4.65195312 11.91796875 4.47265625 C16.10995154 3.82977929 20.09508686 4.14790652 24.3125 4.4375 C25.14845703 4.48970703 25.98441406 4.54191406 26.84570312 4.59570312 C28.89750789 4.72467371 30.94881306 4.86155021 33 5 C33 5.33 33 5.66 33 6 C23.43 6 13.86 6 4 6 C5.32 5.34 6.64 4.68 8 4 C8.33 3.34 8.66 2.68 9 2 C6.03 1.67 3.06 1.34 0 1 C0 0.67 0 0.34 0 0 Z " fill="#161311" transform="translate(210,332)"/>
<path d="M0 0 C4.29 0 8.58 0 13 0 C13 8.25 13 16.5 13 25 C12.34 25 11.68 25 11 25 C11 22.69 11 20.38 11 18 C9.35 18 7.7 18 6 18 C6 17.67 6 17.34 6 17 C7.65 17 9.3 17 11 17 C11 11.72 11 6.44 11 1 C7.37 1 3.74 1 0 1 C0 0.67 0 0.34 0 0 Z " fill="#131211" transform="translate(251,309)"/>
<path d="M0 0 C3.63 0 7.26 0 11 0 C11 1.98 11 3.96 11 6 C7.37 6 3.74 6 0 6 C0 4.02 0 2.04 0 0 Z " fill="#EFEEEE" transform="translate(196,242)"/>
<path d="M0 0 C0 0.66 0 1.32 0 2 C0.598125 1.79375 1.19625 1.5875 1.8125 1.375 C4 1 4 1 7 3 C7 3.66 7 4.32 7 5 C5.54182203 5.16802051 4.0834516 5.33437143 2.625 5.5 C1.40683594 5.63921875 1.40683594 5.63921875 0.1640625 5.78125 C-2.88733049 6.08969406 -5.93414235 6 -9 6 C-7.01260984 0.46369883 -5.82303895 -0.15323787 0 0 Z " fill="#0B0B07" transform="translate(214,417)"/>
<path d="M0 0 C4.29 0 8.58 0 13 0 C13 1.65 13 3.3 13 5 C8.71 5 4.42 5 0 5 C0 3.35 0 1.7 0 0 Z " fill="#EEECED" transform="translate(179,327)"/>
<path d="M0 0 C0.4125 0.37511719 0.825 0.75023437 1.25 1.13671875 C5.11415155 4.56097804 9.00734534 7.36661025 13.49609375 9.921875 C13.99238281 10.27765625 14.48867187 10.6334375 15 11 C15 11.66 15 12.32 15 13 C14.34 13 13.68 13 13 13 C12.67 14.32 12.34 15.64 12 17 C7.28428722 12.41527924 3.14174731 7.81223252 0 2 C0 1.34 0 0.68 0 0 Z " fill="#181614" transform="translate(99,263)"/>
<path d="M0 0 C3.3 0 6.6 0 10 0 C10 1.98 10 3.96 10 6 C6.7 6 3.4 6 0 6 C0 4.02 0 2.04 0 0 Z " fill="#E1E1E1" transform="translate(234,326)"/>
<path d="M0 0 C0.33 0 0.66 0 1 0 C1 5.28 1 10.56 1 16 C4.96 16 8.92 16 13 16 C13 16.33 13 16.66 13 17 C9.04 17 5.08 17 1 17 C1 19.64 1 22.28 1 25 C0.34 24.67 -0.32 24.34 -1 24 C-1.02887236 20.18751574 -1.04675492 16.3750593 -1.0625 12.5625 C-1.07087891 11.47388672 -1.07925781 10.38527344 -1.08789062 9.26367188 C-1.09111328 8.22919922 -1.09433594 7.19472656 -1.09765625 6.12890625 C-1.10289307 5.17056885 -1.10812988 4.21223145 -1.11352539 3.22485352 C-1 1 -1 1 0 0 Z " fill="#161413" transform="translate(194,225)"/>
<path d="M0 0 C1.65 0 3.3 0 5 0 C5.33 1.32 5.66 2.64 6 4 C4.02 4.33 2.04 4.66 0 5 C0 5.99 0 6.98 0 8 C0.66 8.33 1.32 8.66 2 9 C1.34 10.32 0.68 11.64 0 13 C-1.65 13 -3.3 13 -5 13 C-4.67 12.34 -4.34 11.68 -4 11 C-4 10.01 -4 9.02 -4 8 C-3.68578929 5.99690671 -3.3548954 3.99628664 -3 2 C-2.01 2 -1.02 2 0 2 C0 1.34 0 0.68 0 0 Z " fill="#ECECEB" transform="translate(212,395)"/>
<path d="M0 0 C3.625 0.1875 3.625 0.1875 6.625 2.1875 C5.965 2.1875 5.305 2.1875 4.625 2.1875 C4.398125 2.826875 4.17125 3.46625 3.9375 4.125 C2.625 6.1875 2.625 6.1875 0.1875 7.0625 C-2.375 7.1875 -2.375 7.1875 -5.375 5.1875 C-4.25703267 0.23650181 -4.25703267 0.23650181 0 0 Z " fill="#141312" transform="translate(199.375,379.8125)"/>
<path d="M0 0 C0.66 0 1.32 0 2 0 C3.14662549 1.18034977 4.29148521 2.36248446 5.42578125 3.5546875 C8.28524046 6.17999744 11.6585862 8.0515329 15 10 C13.68 10.33 12.36 10.66 11 11 C11.66 11.33 12.32 11.66 13 12 C12.67 13.32 12.34 14.64 12 16 C6.90455449 11.04609465 3.01083503 6.47329531 0 0 Z " fill="#222120" transform="translate(92,348)"/>
<path d="M0 0 C3.63 0 7.26 0 11 0 C11 1.65 11 3.3 11 5 C7.37 5 3.74 5 0 5 C0 3.35 0 1.7 0 0 Z " fill="#EBEBEB" transform="translate(251,327)"/>
<path d="M0 0 C3.63 0 7.26 0 11 0 C10 3 10 3 8 4 C5.795636 4.22950319 3.58607827 4.41075933 1.375 4.5625 C0.18648437 4.64628906 -1.00203125 4.73007812 -2.2265625 4.81640625 C-3.59941406 4.90728516 -3.59941406 4.90728516 -5 5 C-5.33 4.01 -5.66 3.02 -6 2 C-4.33333333 2 -2.66666667 2 -1 2 C-0.67 1.34 -0.34 0.68 0 0 Z " fill="#373737" transform="translate(154,382)"/>
<path d="M0 0 C0 0.66 0 1.32 0 2 C-14.85 1.505 -14.85 1.505 -30 1 C-30 0.67 -30 0.34 -30 0 C-20.19093699 -1.12103577 -9.69634624 -2.28790192 0 0 Z " fill="#383634" transform="translate(289,256)"/>
<path d="M0 0 C3.3 0 6.6 0 10 0 C10 1.65 10 3.3 10 5 C6.7 5 3.4 5 0 5 C0 3.35 0 1.7 0 0 Z " fill="#FBFBFB" transform="translate(250,243)"/>
<path d="M0 0 C3.3 0 6.6 0 10 0 C10 1.65 10 3.3 10 5 C6.7 5 3.4 5 0 5 C0 3.35 0 1.7 0 0 Z " fill="#FCFCFC" transform="translate(182,243)"/>
<path d="M0 0 C1.98 0 3.96 0 6 0 C6.66 1.32 7.32 2.64 8 4 C3.67551867 4.73832608 -0.65535464 5.39174965 -5 6 C-3.625 4 -3.625 4 -2 2 C-1.34 2 -0.68 2 0 2 C0 1.34 0 0.68 0 0 Z " fill="#0B0A08" transform="translate(273,414)"/>
<path d="M0 0 C0.33 0.99 0.66 1.98 1 3 C2.65 3 4.3 3 6 3 C6 3.99 6 4.98 6 6 C3.36 6 0.72 6 -2 6 C-2 5.34 -2 4.68 -2 4 C-2.99 4.33 -3.98 4.66 -5 5 C-5.99 4.01 -6.98 3.02 -8 2 C-4.77208445 -0.1519437 -3.71599191 -0.20086443 0 0 Z " fill="#2B2B29" transform="translate(219,391)"/>
<path d="M0 0 C1.9375 0.75 1.9375 0.75 3.9375 2.75 C4.1328125 5.1328125 4.1328125 5.1328125 4.0625 7.875 C4.04445312 8.78507812 4.02640625 9.69515625 4.0078125 10.6328125 C3.98460937 11.33148438 3.96140625 12.03015625 3.9375 12.75 C2.9475 12.42 1.9575 12.09 0.9375 11.75 C0.6075 9.11 0.2775 6.47 -0.0625 3.75 C-1.3825 3.75 -2.7025 3.75 -4.0625 3.75 C-4.7225 4.74 -5.3825 5.73 -6.0625 6.75 C-5.75 4.375 -5.75 4.375 -5.0625 1.75 C-2.0625 -0.25 -2.0625 -0.25 0 0 Z " fill="#1D1C1B" transform="translate(222.0625,34.25)"/>
<path d="M0 0 C2.64 0 5.28 0 8 0 C6.75023244 3.65316671 6.32901247 4.78065836 3 7 C-0.1875 6.625 -0.1875 6.625 -3 6 C-3 5.34 -3 4.68 -3 4 C-2.01 3.34 -1.02 2.68 0 2 C0 1.34 0 0.68 0 0 Z " fill="#12110B" transform="translate(325,384)"/>
<path d="M0 0 C0.33 0.66 0.66 1.32 1 2 C3.01669827 3.13350534 3.01669827 3.13350534 5 4 C0.03926578 5.32286246 -4.91111512 5.08893197 -10 5 C-8.68 4.34 -7.36 3.68 -6 3 C-6.99 2.34 -7.98 1.68 -9 1 C-5.63579264 -0.58865348 -3.5299383 -1.5128307 0 0 Z " fill="#34332F" transform="translate(210,431)"/>
<path d="M0 0 C0.66 1.32 1.32 2.64 2 4 C-2.38585329 4.70173653 -6.55790643 5.10834375 -11 5 C-11 4.34 -11 3.68 -11 3 C-7.14243493 0.84694043 -4.44870215 -0.39253254 0 0 Z " fill="#171717" transform="translate(193,400)"/>
<path d="M0 0 C2.31 0.33 4.62 0.66 7 1 C6.34 2.65 5.68 4.3 5 6 C5.99 6.33 6.98 6.66 8 7 C8 7.66 8 8.32 8 9 C4.93795671 8.66896829 3.39949096 8.39949096 1.1875 6.1875 C0 4 0 4 0 0 Z " fill="#161311" transform="translate(111,275)"/>
<path d="M0 0 C0.99 0 1.98 0 3 0 C3 2.64 3 5.28 3 8 C2.01 8 1.02 8 0 8 C0 7.34 0 6.68 0 6 C-6.93 6 -13.86 6 -21 6 C-21 5.67 -21 5.34 -21 5 C-14.07 5 -7.14 5 0 5 C0 3.35 0 1.7 0 0 Z " fill="#464544" transform="translate(232,242)"/>
<path d="M0 0 C1.65 0 3.3 0 5 0 C5 0.66 5 1.32 5 2 C4.34 2 3.68 2 3 2 C3 2.99 3 3.98 3 5 C3.99 4.67 4.98 4.34 6 4 C9.23014784 6.15343189 10.75686537 7.27059611 12 11 C7.08258206 10.56611018 4.4410806 8.4410806 1 5 C0.125 2.1875 0.125 2.1875 0 0 Z " fill="#151310" transform="translate(103,359)"/>
<path d="M0 0 C1.93166016 0.01740234 1.93166016 0.01740234 3.90234375 0.03515625 C5.19269531 0.04417969 6.48304688 0.05320312 7.8125 0.0625 C8.81152344 0.07410156 9.81054688 0.08570313 10.83984375 0.09765625 C10.83984375 0.42765625 10.83984375 0.75765625 10.83984375 1.09765625 C10.24816406 1.21882813 9.65648437 1.34 9.046875 1.46484375 C3.95312666 2.53509562 3.95312666 2.53509562 -0.91015625 4.34765625 C-3.16015625 5.09765625 -3.16015625 5.09765625 -5.97265625 4.22265625 C-6.69453125 3.85140625 -7.41640625 3.48015625 -8.16015625 3.09765625 C-7.52078125 2.78828125 -6.88140625 2.47890625 -6.22265625 2.16015625 C-2.15891863 0.06671566 -2.15891863 0.06671566 0 0 Z " fill="#6D6C6B" transform="translate(212.16015625,379.90234375)"/>
<path d="M0 0 C2.64 0 5.28 0 8 0 C8 1.65 8 3.3 8 5 C5.36 5 2.72 5 0 5 C0 3.35 0 1.7 0 0 Z " fill="#E4E4E4" transform="translate(199,326)"/>
<path d="M0 0 C2.45862401 -0.05383848 4.9160755 -0.09359038 7.375 -0.125 C8.42300781 -0.15013672 8.42300781 -0.15013672 9.4921875 -0.17578125 C11.32897486 -0.19344267 13.16601963 -0.10303261 15 0 C15.66 0.66 16.32 1.32 17 2 C10.74692761 2.83288874 5.23182639 3.03863773 -1 2 C-0.67 1.34 -0.34 0.68 0 0 Z " fill="#0F0D0D" transform="translate(157,333)"/>
<path d="M0 0 C5.49152542 0.61016949 5.49152542 0.61016949 7.875 2.4375 C9 4 9 4 9 6 C5.7 5.67 2.4 5.34 -1 5 C-0.67 3.35 -0.34 1.7 0 0 Z " fill="#EEEEED" transform="translate(264,407)"/>
<path d="M0 0 C1.98 0 3.96 0 6 0 C6 2.31 6 4.62 6 7 C4.68 7 3.36 7 2 7 C2 6.34 2 5.68 2 5 C1.34 4.67 0.68 4.34 0 4 C0 2.68 0 1.36 0 0 Z " fill="#ECECEB" transform="translate(288,406)"/>
<path d="M0 0 C1.0625 1.8125 1.0625 1.8125 2 4 C1.67 4.99 1.34 5.98 1 7 C1.99 7.33 2.98 7.66 4 8 C2.35 8 0.7 8 -1 8 C-1.33 8.66 -1.66 9.32 -2 10 C-2.66 9.67 -3.32 9.34 -4 9 C-4 8.34 -4 7.68 -4 7 C-3.01 7 -2.02 7 -1 7 C-2.88807863 4.30274481 -4.19824644 2.86783571 -7 1 C-4 0 -4 0 0 0 Z " fill="#2B2925" transform="translate(274,406)"/>
<path d="M0 0 C0.33 0.66 0.66 1.32 1 2 C0.07544441 3.508013 -0.8650747 5.00624917 -1.8125 6.5 C-2.59560547 7.75296875 -2.59560547 7.75296875 -3.39453125 9.03125 C-3.92433594 9.6809375 -4.45414062 10.330625 -5 11 C-7.62113708 11 -9.50935112 10.68707555 -12 10 C-9.67861566 8.21431974 -7.34515607 6.58089989 -4.875 5 C-1.83047878 3.14250507 -1.83047878 3.14250507 0 0 Z " fill="#242222" transform="translate(345,265)"/>
<path d="M0 0 C0.763125 0.20625 1.52625 0.4125 2.3125 0.625 C1.9825 1.945 1.6525 3.265 1.3125 4.625 C-0.6675 4.955 -2.6475 5.285 -4.6875 5.625 C-5.0175 4.305 -5.3475 2.985 -5.6875 1.625 C-2.6875 -0.375 -2.6875 -0.375 0 0 Z " fill="#4D4D4B" transform="translate(310.6875,409.375)"/>
<path d="M0 0 C0.66 0.33 1.32 0.66 2 1 C1.67 2.98 1.34 4.96 1 7 C2.32 7.33 3.64 7.66 5 8 C2.69 8.33 0.38 8.66 -2 9 C-2.103125 8.38125 -2.20625 7.7625 -2.3125 7.125 C-2.87525373 4.63473516 -2.87525373 4.63473516 -6 3 C-4.03533587 1.93224776 -2.03144641 0.93446535 0 0 Z " fill="#2B2A28" transform="translate(323,395)"/>
<path d="M0 0 C-0.825 0.433125 -1.65 0.86625 -2.5 1.3125 C-3.7375 2.1478125 -3.7375 2.1478125 -5 3 C-5 3.99 -5 4.98 -5 6 C-5 6.33 -5 6.66 -5 7 C-6.65 7 -8.3 7 -10 7 C-10.33 5.35 -10.66 3.7 -11 2 C-9.54494642 1.47007308 -8.08581873 0.9513211 -6.625 0.4375 C-5.81289063 0.14746094 -5.00078125 -0.14257812 -4.1640625 -0.44140625 C-2 -1 -2 -1 0 0 Z " fill="#D3D3D2" transform="translate(275,419)"/>
<path d="M0 0 C-0.99 0.66 -1.98 1.32 -3 2 C-0.36 2.33 2.28 2.66 5 3 C5 3.33 5 3.66 5 4 C0.05 4 -4.9 4 -10 4 C-10 3.01 -10 2.02 -10 1 C-6.78548731 -0.60725635 -3.56387464 -0.05748185 0 0 Z " fill="#090806" transform="translate(225,372)"/>
<path d="M0 0 C5.94 0.33 11.88 0.66 18 1 C18 1.33 18 1.66 18 2 C11.4 2.66 4.8 3.32 -2 4 C-1.34 2.68 -0.68 1.36 0 0 Z " fill="#100E0B" transform="translate(156,367)"/>
<path d="M0 0 C0 0.66 0 1.32 0 2 C-3.06533164 3.53266582 -6.26754272 3.10276471 -9.625 3.0625 C-10.33140625 3.05798828 -11.0378125 3.05347656 -11.765625 3.04882812 C-13.51045275 3.03703875 -15.255237 3.01910324 -17 3 C-14.55711177 0.55711177 -13.55789995 0.64786596 -10.1875 0.375 C-9.33542969 0.30023438 -8.48335938 0.22546875 -7.60546875 0.1484375 C-5.06358048 0.00362228 -2.54536793 -0.02741869 0 0 Z " fill="#171613" transform="translate(314,288)"/>
<path d="M0 0 C-0.40584995 2.84094967 -0.86297046 3.87153481 -3 5.875 C-5.49147225 8.52218926 -5.67660307 10.4426338 -6 14 C-6.66 14 -7.32 14 -8 14 C-8.42244894 10.55000031 -8.62172957 7.99399975 -6.734375 4.9765625 C-2.55 0 -2.55 0 0 0 Z " fill="#141311" transform="translate(220,126)"/>
<path d="M0 0 C0.66 0 1.32 0 2 0 C2 4.95 2 9.9 2 15 C1.01 15 0.02 15 -1 15 C-0.67 10.05 -0.34 5.1 0 0 Z " fill="#666664" transform="translate(220,65)"/>
<path d="M0 0 C4.90952146 -0.09263248 8.36774367 0.45591456 13 2 C12.34 2.66 11.68 3.32 11 4 C8.3984375 3.9765625 8.3984375 3.9765625 5.375 3.625 C4.37210937 3.51414062 3.36921875 3.40328125 2.3359375 3.2890625 C1.17964844 3.14597656 1.17964844 3.14597656 0 3 C0 2.01 0 1.02 0 0 Z " fill="#8D8B8A" transform="translate(301,394)"/>
<path d="M0 0 C0.94875 0.350625 1.8975 0.70125 2.875 1.0625 C2.545 2.3825 2.215 3.7025 1.875 5.0625 C-0.435 4.4025 -2.745 3.7425 -5.125 3.0625 C-5.125 2.0725 -5.125 1.0825 -5.125 0.0625 C-3.125 -0.9375 -3.125 -0.9375 0 0 Z " fill="#222220" transform="translate(202.125,391.9375)"/>
<path d="M0 0 C3.63 0 7.26 0 11 0 C11 0.66 11 1.32 11 2 C8.36 2 5.72 2 3 2 C3 5.63 3 9.26 3 13 C2.67 13 2.34 13 2 13 C1.93941406 12.31292969 1.87882813 11.62585938 1.81640625 10.91796875 C1.73261719 10.01691406 1.64882812 9.11585938 1.5625 8.1875 C1.48128906 7.29417969 1.40007812 6.40085938 1.31640625 5.48046875 C1.06510233 2.87256441 1.06510233 2.87256441 0 0 Z " fill="#100E0C" transform="translate(179,224)"/>
<path d="M0 0 C3.99881788 0.61520275 6.80358226 2.60268669 10 5 C10 5.66 10 6.32 10 7 C10.66 7.66 11.32 8.32 12 9 C8 9 8 9 6 7.25 C5.34 6.5075 4.68 5.765 4 5 C3.2575 4.278125 2.515 3.55625 1.75 2.8125 C0 1 0 1 0 0 Z " fill="#161512" transform="translate(259,176)"/>
<path d="M0 0 C1.67542976 0.28604898 3.34385343 0.61781233 5 1 C6.125 4.75 6.125 4.75 5 7 C3.35 6.67 1.7 6.34 0 6 C0 5.34 0 4.68 0 4 C-0.66 4 -1.32 4 -2 4 C-1 1 -1 1 0 0 Z " fill="#363532" transform="translate(296,409)"/>
<path d="M0 0 C0.598125 0.20625 1.19625 0.4125 1.8125 0.625 C1.4825 1.285 1.1525 1.945 0.8125 2.625 C1.1425 2.955 1.4725 3.285 1.8125 3.625 C1.8125 4.285 1.8125 4.945 1.8125 5.625 C-0.1675 5.625 -2.1475 5.625 -4.1875 5.625 C-4.5175 4.305 -4.8475 2.985 -5.1875 1.625 C-2.1875 -0.375 -2.1875 -0.375 0 0 Z " fill="#282626" transform="translate(216.1875,398.375)"/>
<path d="M0 0 C3.3 0.33 6.6 0.66 10 1 C10 1.66 10 2.32 10 3 C11.98 3 13.96 3 16 3 C16 3.33 16 3.66 16 4 C14.27119018 4.05449838 12.54187288 4.09301688 10.8125 4.125 C9.84957031 4.14820313 8.88664063 4.17140625 7.89453125 4.1953125 C4.87187222 3.9913544 2.73230015 3.26874632 0 2 C0 1.34 0 0.68 0 0 Z " fill="#D7D5D4" transform="translate(157,286)"/>
<path d="M0 0 C0 1.32 0 2.64 0 4 C-7.42857143 4.14285714 -7.42857143 4.14285714 -11 3 C-11 2.34 -11 1.68 -11 1 C-9.54182203 0.83197949 -8.0834516 0.66562857 -6.625 0.5 C-5.81289063 0.4071875 -5.00078125 0.314375 -4.1640625 0.21875 C-2 0 -2 0 0 0 Z " fill="#1B1B1A" transform="translate(290,338)"/>
<path d="M0 0 C0.99 0.33 1.98 0.66 3 1 C3 5.62 3 10.24 3 15 C2.01 14.67 1.02 14.34 0 14 C0 9.38 0 4.76 0 0 Z " fill="#131211" transform="translate(207,226)"/>
<path d="M0 0 C0.99 0 1.98 0 3 0 C3 0.66 3 1.32 3 2 C3.5775 1.67 4.155 1.34 4.75 1 C7 0 7 0 11 0 C10.67 0.99 10.34 1.98 10 3 C5.545 3.495 5.545 3.495 1 4 C0.67 2.68 0.34 1.36 0 0 Z " fill="#353535" transform="translate(361,400)"/>
<path d="M0 0 C-0.33 1.32 -0.66 2.64 -1 4 C-2.64666203 3.8864371 -4.29236082 3.75882619 -5.9375 3.625 C-6.85402344 3.55539062 -7.77054688 3.48578125 -8.71484375 3.4140625 C-9.84599609 3.20910156 -9.84599609 3.20910156 -11 3 C-11.33 2.34 -11.66 1.68 -12 1 C-8.0186217 -0.3271261 -4.14954773 -0.06915913 0 0 Z " fill="#151210" transform="translate(233,372)"/>
<path d="M0 0 C0.99 0.66 1.98 1.32 3 2 C1.88290172 4.23419656 0.93084565 5.41394821 -1 7 C-3.6875 7.6875 -3.6875 7.6875 -6 8 C-6 6.68 -6 5.36 -6 4 C-4.35 3.67 -2.7 3.34 -1 3 C-0.67 2.01 -0.34 1.02 0 0 Z " fill="#12110D" transform="translate(230,411)"/>
<path d="M0 0 C1.2065625 0.0309375 1.2065625 0.0309375 2.4375 0.0625 C2.4375 1.72916667 2.4375 3.39583333 2.4375 5.0625 C0.7875 5.3925 -0.8625 5.7225 -2.5625 6.0625 C-2.94468767 4.40635343 -3.27645102 2.73792976 -3.5625 1.0625 C-2.5625 0.0625 -2.5625 0.0625 0 0 Z " fill="#141413" transform="translate(207.5625,407.9375)"/>
<path d="M0 0 C4.95 0 9.9 0 15 0 C12 3 12 3 9.3359375 3.14453125 C8.35882813 3.03496094 7.38171875 2.92539062 6.375 2.8125 C5.39273437 2.71582031 4.41046875 2.61914062 3.3984375 2.51953125 C2.60695313 2.34808594 1.81546875 2.17664063 1 2 C0.67 1.34 0.34 0.68 0 0 Z " fill="#0E0C0B" transform="translate(310,278)"/>
<path d="M0 0 C-1 3 -1 3 -3 4 C-4.99960012 4.039992 -7.00047242 4.04346799 -9 4 C-8.67 3.01 -8.34 2.02 -8 1 C-5.29120665 -0.35439668 -2.99066732 -0.06501451 0 0 Z " fill="#1F1F1E" transform="translate(191,381)"/>
<path d="M0 0 C7.50769231 -0.36923077 7.50769231 -0.36923077 10 1.5 C10.495 2.2425 10.495 2.2425 11 3 C10.67 3.99 10.34 4.98 10 6 C10 5.34 10 4.68 10 4 C9.01 4.33 8.02 4.66 7 5 C6.67 4.34 6.34 3.68 6 3 C2.97065509 2.34227572 2.97065509 2.34227572 0 2 C0 1.34 0 0.68 0 0 Z " fill="#151412" transform="translate(272,262)"/>
<path d="M0 0 C0.66 0 1.32 0 2 0 C2.33 3.96 2.66 7.92 3 12 C2.01 11.67 1.02 11.34 0 11 C0 7.37 0 3.74 0 0 Z " fill="#0F0F0C" transform="translate(234,142)"/>
<path d="M0 0 C1.65 0 3.3 0 5 0 C5.33 1.32 5.66 2.64 6 4 C3.36 4 0.72 4 -2 4 C-1.34 2.68 -0.68 1.36 0 0 Z " fill="#EDEDEC" transform="translate(244,421)"/>
<path d="M0 0 C6.875 2.75 6.875 2.75 8 5 C7.360625 4.814375 6.72125 4.62875 6.0625 4.4375 C5.0415625 4.2209375 5.0415625 4.2209375 4 4 C3.67 4.33 3.34 4.66 3 5 C1.33382885 5.04063832 -0.33388095 5.042721 -2 5 C-1.34 3.35 -0.68 1.7 0 0 Z " fill="#242522" transform="translate(207,418)"/>
<path d="M0 0 C1.32 0 2.64 0 4 0 C4 0.99 4 1.98 4 3 C4.66 3 5.32 3 6 3 C5.67 3.99 5.34 4.98 5 6 C3.02 6 1.04 6 -1 6 C-0.67 4.02 -0.34 2.04 0 0 Z " fill="#151312" transform="translate(278,405)"/>
<path d="M0 0 C1.32 0.33 2.64 0.66 4 1 C4 1.66 4 2.32 4 3 C3.34 3 2.68 3 2 3 C1.34 4.32 0.68 5.64 0 7 C-0.99 6.67 -1.98 6.34 -3 6 C-2.67 4.68 -2.34 3.36 -2 2 C-1.34 2 -0.68 2 0 2 C0 1.34 0 0.68 0 0 Z " fill="#0B0B09" transform="translate(318,400)"/>
<path d="M0 0 C-0.33 0.99 -0.66 1.98 -1 3 C-4.375 3.625 -4.375 3.625 -8 4 C-8.66 3.34 -9.32 2.68 -10 2 C-8.68 2 -7.36 2 -6 2 C-6 1.34 -6 0.68 -6 0 C-3.50907189 -1.24546405 -2.58919267 -0.7767578 0 0 Z " fill="#0F0F0E" transform="translate(228,391)"/>
<path d="M0 0 C0.7425 0.639375 1.485 1.27875 2.25 1.9375 C4.7111121 3.78333407 6.03466926 4.56069174 9 5 C8.67 6.32 8.34 7.64 8 9 C4.7 6.69 1.4 4.38 -2 2 C-1.34 1.34 -0.68 0.68 0 0 Z " fill="#282524" transform="translate(164,215)"/>
<path d="M0 0 C2.66666667 0.66666667 5.33333333 1.33333333 8 2 C7.67 2.99 7.34 3.98 7 5 C4.03 4.505 4.03 4.505 1 4 C0.67 2.68 0.34 1.36 0 0 Z " fill="#242321" transform="translate(295,425)"/>
<path d="M0 0 C1.32 0.99 2.64 1.98 4 3 C3.34 4.32 2.68 5.64 2 7 C0.35 7 -1.3 7 -3 7 C-2.67 6.34 -2.34 5.68 -2 5 C-2 4.01 -2 3.02 -2 2 C-1.34 1.34 -0.68 0.68 0 0 Z " fill="#C9C9C8" transform="translate(210,401)"/>
<path d="M0 0 C1.3921875 0.3403125 1.3921875 0.3403125 2.8125 0.6875 C2.4825 1.6775 2.1525 2.6675 1.8125 3.6875 C3.7925 3.6875 5.7725 3.6875 7.8125 3.6875 C7.8125 4.0175 7.8125 4.3475 7.8125 4.6875 C5.1725 5.0175 2.5325 5.3475 -0.1875 5.6875 C0.1425 4.6975 0.4725 3.7075 0.8125 2.6875 C-1.4975 2.6875 -3.8075 2.6875 -6.1875 2.6875 C-4.14987265 -0.14253799 -3.59070275 -0.35202968 0 0 Z " fill="#302E2C" transform="translate(320.1875,386.3125)"/>
<path d="M0 0 C0.66 0.33 1.32 0.66 2 1 C1.10085301 2.51056694 0.18003899 4.00825429 -0.75 5.5 C-1.26046875 6.3353125 -1.7709375 7.170625 -2.296875 8.03125 C-2.85890625 8.6809375 -3.4209375 9.330625 -4 10 C-5.32 10 -6.64 10 -8 10 C-7.59007812 9.52949219 -7.18015625 9.05898438 -6.7578125 8.57421875 C-6.21898437 7.95160156 -5.68015625 7.32898438 -5.125 6.6875 C-4.59132813 6.07261719 -4.05765625 5.45773437 -3.5078125 4.82421875 C-1.8359553 2.86501788 -1.8359553 2.86501788 0 0 Z " fill="#2E2D2D" transform="translate(348,349)"/>
<path d="M0 0 C2.79794127 0.01798163 5.56201769 0.11890813 8.3515625 0.33203125 C4.87634457 2.6488432 2.44260244 2.75785021 -1.6484375 3.33203125 C-3.98432073 4.28787563 -3.98432073 4.28787563 -5.6484375 5.33203125 C-4.52887184 1.88721383 -3.69126529 0.46276925 0 0 Z " fill="#100D0D" transform="translate(169.6484375,261.66796875)"/>
<path d="M0 0 C-0.66 0 -1.32 0 -2 0 C-1.67 0.99 -1.34 1.98 -1 3 C-4.28976808 4.09658936 -5.71303767 3.79953138 -9 3 C-6.27596221 -1.08605669 -4.4643819 -1.38549783 0 0 Z " fill="#1B1813" transform="translate(327,384)"/>
<path d="M0 0 C0.33 0 0.66 0 1 0 C1.103125 0.94875 1.20625 1.8975 1.3125 2.875 C1.68539295 6.29107501 1.68539295 6.29107501 5 8 C2.69 8 0.38 8 -2 8 C-2 7.67 -2 7.34 -2 7 C-4.64 6.67 -7.28 6.34 -10 6 C-10 5.67 -10 5.34 -10 5 C-6.7 5 -3.4 5 0 5 C0 3.35 0 1.7 0 0 Z " fill="#3C3936" transform="translate(260,243)"/>
<path d="M0 0 C0.66 0.99 1.32 1.98 2 3 C0.8553125 3.4021875 0.8553125 3.4021875 -0.3125 3.8125 C-2.90496926 4.95800967 -4.08815544 5.99711522 -6 8 C-6.66 8 -7.32 8 -8 8 C-6.9802693 4.22699642 -6.34127338 3.19793856 -2.875 1.1875 C-1.92625 0.795625 -0.9775 0.40375 0 0 Z " fill="#11100E" transform="translate(288,208)"/>
<path d="M0 0 C1.32 0 2.64 0 4 0 C4 1.98 4 3.96 4 6 C2.68 6 1.36 6 0 6 C0 4.02 0 2.04 0 0 Z " fill="#C0BFBF" transform="translate(193,326)"/>
<path d="M0 0 C0 0.33 0 0.66 0 1 C-7.42857143 3.14285714 -7.42857143 3.14285714 -11 4 C-10.1875 2.0625 -10.1875 2.0625 -9 0 C-5.52176885 -1.15941038 -3.54104422 -0.70820884 0 0 Z " fill="#0A0906" transform="translate(206,434)"/>
<path d="M0 0 C0 1.32 0 2.64 0 4 C-1.65 3.67 -3.3 3.34 -5 3 C-5.33 2.01 -5.66 1.02 -6 0 C-3.50907189 -1.24546405 -2.58919267 -0.7767578 0 0 Z " fill="#31302F" transform="translate(199,410)"/>
<path d="M0 0 C0.66 0 1.32 0 2 0 C2.33 1.32 2.66 2.64 3 4 C4.32 3.67 5.64 3.34 7 3 C6.67 3.66 6.34 4.32 6 5 C3.69 5 1.38 5 -1 5 C-1 4.34 -1 3.68 -1 3 C-1.66 2.67 -2.32 2.34 -3 2 C-2.01 2 -1.02 2 0 2 C0 1.34 0 0.68 0 0 Z " fill="#413E3C" transform="translate(168,284)"/>
<path d="M0 0 C3.3 0 6.6 0 10 0 C10 1.32 10 2.64 10 4 C9.67 3.34 9.34 2.68 9 2 C6.36 2 3.72 2 1 2 C0.67 1.34 0.34 0.68 0 0 Z " fill="#13100E" transform="translate(276,250)"/>
<path d="M0 0 C2.31 0 4.62 0 7 0 C6.67 1.32 6.34 2.64 6 4 C3.36 3.67 0.72 3.34 -2 3 C-1.34 2.67 -0.68 2.34 0 2 C0 1.34 0 0.68 0 0 Z " fill="#D5D4D3" transform="translate(250,423)"/>
<path d="M0 0 C0.556875 0.226875 1.11375 0.45375 1.6875 0.6875 C-0.7875 2.1725 -0.7875 2.1725 -3.3125 3.6875 C-1.9925 4.3475 -0.6725 5.0075 0.6875 5.6875 C-2.1875 5.875 -2.1875 5.875 -5.3125 5.6875 C-5.9725 4.6975 -6.6325 3.7075 -7.3125 2.6875 C-2.88173077 -0.38942308 -2.88173077 -0.38942308 0 0 Z " fill="#282825" transform="translate(215.3125,406.3125)"/>
<path d="M0 0 C0 0.99 0 1.98 0 3 C-2.64 3 -5.28 3 -8 3 C-8 2.34 -8 1.68 -8 1 C-5.29120665 -0.35439668 -2.99066732 -0.06501451 0 0 Z " fill="#ECEBE9" transform="translate(298,393)"/>
<path d="M0 0 C1.32 0.33 2.64 0.66 4 1 C4 1.66 4 2.32 4 3 C4.66 3 5.32 3 6 3 C6 3.99 6 4.98 6 6 C3.83125748 5.49396008 2.00032373 5.00016187 0 4 C0 2.68 0 1.36 0 0 Z " fill="#10100E" transform="translate(352,385)"/>
<path d="M0 0 C0.99 0.33 1.98 0.66 3 1 C4.1875 4.0625 4.1875 4.0625 5 7 C4.01 7 3.02 7 2 7 C0 4 0 4 0 0 Z " fill="#22211F" transform="translate(214,54)"/>
<path d="M0 0 C2.97 0 5.94 0 9 0 C8.34 1.32 7.68 2.64 7 4 C5.35 3.67 3.7 3.34 2 3 C2 2.34 2 1.68 2 1 C1.34 0.67 0.68 0.34 0 0 Z " fill="#0A0A06" transform="translate(208,430)"/>
<path d="M0 0 C0.66 0.33 1.32 0.66 2 1 C2 1.66 2 2.32 2 3 C2.598125 2.79375 3.19625 2.5875 3.8125 2.375 C6 2 6 2 9 4 C5.37 4 1.74 4 -2 4 C-2.33 3.34 -2.66 2.68 -3 2 C-2.01 1.34 -1.02 0.68 0 0 Z " fill="#050404" transform="translate(214,407)"/>
<path d="M0 0 C0 0.66 0 1.32 0 2 C-0.66 2 -1.32 2 -2 2 C-2 2.66 -2 3.32 -2 4 C-2.66 4 -3.32 4 -4 4 C-4.33 4.66 -4.66 5.32 -5 6 C-5.33 5.01 -5.66 4.02 -6 3 C-6.66 2.34 -7.32 1.68 -8 1 C-5.10765685 0.17361624 -3.11257569 0 0 0 Z " fill="#8C8B8B" transform="translate(376,385)"/>
<path d="M0 0 C2.97 0 5.94 0 9 0 C8.67 0.66 8.34 1.32 8 2 C5.67843403 2.40729228 3.3431213 2.74438677 1 3 C0.67 2.01 0.34 1.02 0 0 Z " fill="#1A1717" transform="translate(184,332)"/>
<path d="M0 0 C-1.0975223 2.99324263 -1.67682892 3.84610901 -4.625 5.25 C-5.40875 5.4975 -6.1925 5.745 -7 6 C-6.1875 3.5625 -6.1875 3.5625 -5 1 C-2 0 -2 0 0 0 Z " fill="#10110F" transform="translate(289,293)"/>
<path d="M0 0 C0.8353125 0.556875 0.8353125 0.556875 1.6875 1.125 C-0.9525 2.115 -3.5925 3.105 -6.3125 4.125 C-6.6425 3.135 -6.9725 2.145 -7.3125 1.125 C-2.88173077 -1.09038462 -2.88173077 -1.09038462 0 0 Z " fill="#272727" transform="translate(186.3125,436.875)"/>
<path d="M0 0 C0.66 0 1.32 0 2 0 C1.67 0.99 1.34 1.98 1 3 C2.32 3.66 3.64 4.32 5 5 C2.69 5.33 0.38 5.66 -2 6 C-1.125 1.125 -1.125 1.125 0 0 Z " fill="#BFBDBB" transform="translate(277,407)"/>
<path d="M0 0 C1.65 0 3.3 0 5 0 C5 1.32 5 2.64 5 4 C4.34 4 3.68 4 3 4 C2.67 4.99 2.34 5.98 2 7 C1.855625 6.401875 1.71125 5.80375 1.5625 5.1875 C1.1127561 3.43849596 0.57107659 1.71322977 0 0 Z " fill="#E1E0E0" transform="translate(300,409)"/>
<path d="M0 0 C-0.99 0.33 -1.98 0.66 -3 1 C-3 1.66 -3 2.32 -3 3 C-5.64 3 -8.28 3 -11 3 C-6.86621405 0.2441427 -4.94796454 -0.10756445 0 0 Z " fill="#14130E" transform="translate(298,402)"/>
<path d="M0 0 C1.65 0 3.3 0 5 0 C4.67 1.32 4.34 2.64 4 4 C2.68 4 1.36 4 0 4 C0 2.68 0 1.36 0 0 Z " fill="#33302F" transform="translate(204,400)"/>
<path d="M0 0 C2.31 0 4.62 0 7 0 C6 3 6 3 3 5 C3 4.01 3 3.02 3 2 C2.01 2 1.02 2 0 2 C0 1.34 0 0.68 0 0 Z " fill="#989897" transform="translate(197,400)"/>
<path d="M0 0 C1.98 0 3.96 0 6 0 C6 1.32 6 2.64 6 4 C4.35 3.67 2.7 3.34 1 3 C0.67 2.01 0.34 1.02 0 0 Z " fill="#1A1A1A" transform="translate(135,383)"/>
<path d="M0 0 C0.99 0.33 1.98 0.66 3 1 C0.03 3.475 0.03 3.475 -3 6 C-3.66 5.67 -4.32 5.34 -5 5 C-3.35 3.35 -1.7 1.7 0 0 Z " fill="#131210" transform="translate(157,350)"/>
<path d="M0 0 C2.64 1.98 5.28 3.96 8 6 C7.01 6.495 7.01 6.495 6 7 C5.67 7.66 5.34 8.32 5 9 C4.16094435 7.87926138 3.32892169 6.75325453 2.5 5.625 C2.0359375 4.99851563 1.571875 4.37203125 1.09375 3.7265625 C0 2 0 2 0 0 Z " fill="#323232" transform="translate(107,180)"/>
<path d="M0 0 C1.32 0.66 2.64 1.32 4 2 C3.34 3.32 2.68 4.64 2 6 C1.01 6 0.02 6 -1 6 C-0.67 4.02 -0.34 2.04 0 0 Z " fill="#0C0C08" transform="translate(223,116)"/>
<path d="M0 0 C3.0625 0.1875 3.0625 0.1875 5.0625 2.1875 C2.14767222 2.99717438 0.60136783 3.40595993 -2.25 2.25 C-2.806875 1.899375 -3.36375 1.54875 -3.9375 1.1875 C-2.9375 0.1875 -2.9375 0.1875 0 0 Z " fill="#0B0906" transform="translate(238.9375,429.8125)"/>
<path d="M0 0 C2.475 0.495 2.475 0.495 5 1 C5.33 2.32 5.66 3.64 6 5 C4.35 5 2.7 5 1 5 C0.67 3.35 0.34 1.7 0 0 Z " fill="#D1D0CF" transform="translate(238,421)"/>
<path d="M0 0 C0.598125 0.350625 1.19625 0.70125 1.8125 1.0625 C1.8125 1.7225 1.8125 2.3825 1.8125 3.0625 C-0.1675 3.0625 -2.1475 3.0625 -4.1875 3.0625 C-4.5175 2.0725 -4.8475 1.0825 -5.1875 0.0625 C-2.1875 -0.9375 -2.1875 -0.9375 0 0 Z " fill="#060605" transform="translate(328.1875,398.9375)"/>
<path d="M0 0 C1.65 0 3.3 0 5 0 C5 1.32 5 2.64 5 4 C3.35 4 1.7 4 0 4 C0 2.68 0 1.36 0 0 Z " fill="#494848" transform="translate(365,387)"/>
<path d="M0 0 C0.66 0 1.32 0 2 0 C1.67 1.65 1.34 3.3 1 5 C-0.32 5 -1.64 5 -3 5 C-1.125 1.125 -1.125 1.125 0 0 Z " fill="#D1D0D0" transform="translate(236,408)"/>
<path d="M0 0 C0.66 0.33 1.32 0.66 2 1 C0 4 0 4 -3.125 4.6875 C-4.07375 4.790625 -5.0225 4.89375 -6 5 C-6 4.34 -6 3.68 -6 3 C-4.03533587 1.93224776 -2.03144641 0.93446535 0 0 Z " fill="#494949" transform="translate(188,400)"/>
<path d="M0 0 C2.31 0 4.62 0 7 0 C7 0.99 7 1.98 7 3 C5.02 3 3.04 3 1 3 C0.67 2.01 0.34 1.02 0 0 Z " fill="#CCCCCB" transform="translate(218,394)"/>
<path d="M0 0 C2.31 0 4.62 0 7 0 C5.71034824 1.37562854 4.37310707 2.70766393 3 4 C2.34 4 1.68 4 1 4 C0.67 2.68 0.34 1.36 0 0 Z " fill="#151412" transform="translate(216,381)"/>
<path d="M0 0 C2.64 0 5.28 0 8 0 C8 0.33 8 0.66 8 1 C6.02 1.33 4.04 1.66 2 2 C2.66 2.66 3.32 3.32 4 4 C2.35 4 0.7 4 -1 4 C-0.67 2.68 -0.34 1.36 0 0 Z " fill="#BBB9BA" transform="translate(197,376)"/>
<path d="M0 0 C0.99 0 1.98 0 3 0 C3 1.98 3 3.96 3 6 C2.01 5.67 1.02 5.34 0 5 C0 3.35 0 1.7 0 0 Z " fill="#5F5D5C" transform="translate(244,326)"/>
<path d="M0 0 C3.36720387 1.39332574 4.9859524 2.9789286 7 6 C3.75728494 5.4409112 2.06942576 4.5867822 0 2 C0 1.34 0 0.68 0 0 Z " fill="#151412" transform="translate(155,295)"/>
<path d="M0 0 C-0.66 0.66 -1.32 1.32 -2 2 C-4.72869407 1.96712417 -7.2966618 1.43602229 -10 1 C-10 0.67 -10 0.34 -10 0 C-6.33694766 -0.74926071 -3.57644848 -1.2380014 0 0 Z " fill="#262423" transform="translate(331,277)"/>
<path d="M0 0 C4.95 0.99 4.95 0.99 10 2 C10 2.33 10 2.66 10 3 C2.25 3.125 2.25 3.125 0 2 C0 1.34 0 0.68 0 0 Z " fill="#100E0B" transform="translate(299,275)"/>
<path d="M0 0 C2.31 1.98 4.62 3.96 7 6 C6.01 6.495 6.01 6.495 5 7 C4.67 7.66 4.34 8.32 4 9 C0 2.25 0 2.25 0 0 Z " fill="#454545" transform="translate(99,263)"/>
<path d="M0 0 C0.99 0.99 1.98 1.98 3 3 C1.68 4.32 0.36 5.64 -1 7 C-1.625 5.1875 -1.625 5.1875 -2 3 C-1.34 2.01 -0.68 1.02 0 0 Z " fill="#14120E" transform="translate(220,107)"/>
</svg>
