<?xml version="1.0" standalone="no"?><!DOCTYPE svg PUBLIC "-//W3C//DTD SVG 1.1//EN" "http://www.w3.org/Graphics/SVG/1.1/DTD/svg11.dtd"><svg t="1742031066256" class="icon" viewBox="0 0 1024 1024" version="1.1" xmlns="http://www.w3.org/2000/svg" p-id="3210" xmlns:xlink="http://www.w3.org/1999/xlink" width="200" height="200"><path d="M60.235294 0h30.117647v30.117647H60.235294zM60.235294 993.882353h30.117647v30.117647H60.235294zM30.117647 60.235294v30.117647H0V60.235294zM1024 60.235294v30.117647h-30.117647V60.235294zM30.117647 30.117647h30.117647v30.117647H30.117647z" fill="#FFB902" p-id="3211"></path><path d="M60.235294 30.117647h30.117647v30.117647H60.235294zM30.117647 60.235294h30.117647v30.117647H30.117647zM150.588235 30.117647h30.117647v30.117647h-30.117647zM873.411765 30.117647h30.117647v30.117647h-30.117647zM90.352941 30.117647h30.117647v30.117647H90.352941zM60.235294 60.235294h30.117647v30.117647H60.235294z" fill="#FFFFFF" p-id="3212"></path><path d="M150.588235 120.470588h30.117647v30.117647h-30.117647z" fill="#FFD908" p-id="3213"></path><path d="M150.588235 150.588235h30.117647v30.117647h-30.117647z" fill="#FFFFFF" p-id="3214"></path><path d="M120.470588 150.588235h30.117647v30.117647H120.470588z" fill="#FFD908" p-id="3215"></path><path d="M150.588235 180.705882h30.117647v30.117647h-30.117647z" fill="#FBFD04" p-id="3216"></path><path d="M120.470588 180.705882h30.117647v30.117647H120.470588z" fill="#FFD908" p-id="3217"></path><path d="M150.588235 210.823529h30.117647v30.117647h-30.117647z" fill="#FFB902" p-id="3218"></path><path d="M120.470588 210.823529h30.117647v30.117647H120.470588zM150.588235 240.941176h30.117647v30.117648h-30.117647zM120.470588 240.941176h30.117647v30.117648H120.470588zM150.588235 271.058824h30.117647v30.117647h-30.117647zM120.470588 271.058824h30.117647v30.117647H120.470588zM150.588235 301.176471h30.117647v30.117647h-30.117647zM120.470588 301.176471h30.117647v30.117647H120.470588zM150.588235 331.294118h30.117647v30.117647h-30.117647zM120.470588 331.294118h30.117647v30.117647H120.470588zM150.588235 361.411765h30.117647v30.117647h-30.117647zM120.470588 361.411765h30.117647v30.117647H120.470588zM150.588235 391.529412h30.117647v30.117647h-30.117647zM120.470588 391.529412h30.117647v30.117647H120.470588zM150.588235 421.647059h30.117647v30.117647h-30.117647zM120.470588 421.647059h30.117647v30.117647H120.470588zM150.588235 451.764706h30.117647v30.117647h-30.117647zM120.470588 451.764706h30.117647v30.117647H120.470588zM150.588235 481.882353h30.117647v30.117647h-30.117647zM120.470588 481.882353h30.117647v30.117647H120.470588zM150.588235 512h30.117647v30.117647h-30.117647zM120.470588 512h30.117647v30.117647H120.470588zM150.588235 542.117647h30.117647v30.117647h-30.117647zM120.470588 542.117647h30.117647v30.117647H120.470588zM150.588235 572.235294h30.117647v30.117647h-30.117647zM120.470588 572.235294h30.117647v30.117647H120.470588zM150.588235 602.352941h30.117647v30.117647h-30.117647zM120.470588 602.352941h30.117647v30.117647H120.470588zM150.588235 632.470588h30.117647v30.117647h-30.117647zM120.470588 632.470588h30.117647v30.117647H120.470588zM150.588235 662.588235h30.117647v30.117647h-30.117647zM120.470588 662.588235h30.117647v30.117647H120.470588zM150.588235 692.705882h30.117647v30.117647h-30.117647zM120.470588 692.705882h30.117647v30.117647H120.470588zM150.588235 722.823529h30.117647v30.117647h-30.117647zM120.470588 722.823529h30.117647v30.117647H120.470588zM150.588235 752.941176h30.117647v30.117648h-30.117647zM120.470588 752.941176h30.117647v30.117648H120.470588zM150.588235 783.058824h30.117647v30.117647h-30.117647zM120.470588 783.058824h30.117647v30.117647H120.470588z" fill="#FFD908" p-id="3219"></path><path d="M150.588235 783.058824h30.117647v30.117647h-30.117647zM120.470588 783.058824h30.117647v30.117647H120.470588z" fill="#FFD908" p-id="3220"></path><path d="M150.588235 783.058824h30.117647v30.117647h-30.117647zM120.470588 783.058824h30.117647v30.117647H120.470588z" fill="#FFD908" p-id="3221"></path><path d="M150.588235 813.176471h30.117647v30.117647h-30.117647z" fill="#FFFFFF" p-id="3222"></path><path d="M120.470588 813.176471h30.117647v30.117647H120.470588z" fill="#FFD908" p-id="3223"></path><path d="M150.588235 843.294118h30.117647v30.117647h-30.117647z" fill="#FBFD04" p-id="3224"></path><path d="M120.470588 843.294118h30.117647v30.117647H120.470588zM180.705882 120.470588h30.117647v30.117647h-30.117647z" fill="#FFD908" p-id="3225"></path><path d="M180.705882 150.588235h30.117647v30.117647h-30.117647zM180.705882 180.705882h30.117647v30.117647h-30.117647z" fill="#FBFD04" p-id="3226"></path><path d="M180.705882 210.823529h30.117647v30.117647h-30.117647z" fill="#FFB902" p-id="3227"></path><path d="M180.705882 240.941176h30.117647v30.117648h-30.117647zM180.705882 271.058824h30.117647v30.117647h-30.117647zM180.705882 301.176471h30.117647v30.117647h-30.117647zM180.705882 331.294118h30.117647v30.117647h-30.117647zM180.705882 361.411765h30.117647v30.117647h-30.117647zM180.705882 391.529412h30.117647v30.117647h-30.117647zM180.705882 421.647059h30.117647v30.117647h-30.117647zM180.705882 451.764706h30.117647v30.117647h-30.117647zM180.705882 481.882353h30.117647v30.117647h-30.117647zM180.705882 512h30.117647v30.117647h-30.117647zM180.705882 542.117647h30.117647v30.117647h-30.117647zM180.705882 572.235294h30.117647v30.117647h-30.117647zM180.705882 602.352941h30.117647v30.117647h-30.117647zM180.705882 632.470588h30.117647v30.117647h-30.117647zM180.705882 662.588235h30.117647v30.117647h-30.117647zM180.705882 692.705882h30.117647v30.117647h-30.117647zM180.705882 722.823529h30.117647v30.117647h-30.117647zM180.705882 752.941176h30.117647v30.117648h-30.117647zM180.705882 783.058824h30.117647v30.117647h-30.117647z" fill="#FFD908" p-id="3228"></path><path d="M180.705882 783.058824h30.117647v30.117647h-30.117647z" fill="#FFD908" p-id="3229"></path><path d="M180.705882 783.058824h30.117647v30.117647h-30.117647z" fill="#FFD908" p-id="3230"></path><path d="M180.705882 813.176471h30.117647v30.117647h-30.117647zM180.705882 843.294118h30.117647v30.117647h-30.117647z" fill="#FBFD04" p-id="3231"></path><path d="M210.823529 120.470588h30.117647v30.117647h-30.117647z" fill="#FFD908" p-id="3232"></path><path d="M210.823529 150.588235h30.117647v30.117647h-30.117647zM210.823529 180.705882h30.117647v30.117647h-30.117647z" fill="#FFB902" p-id="3233"></path><path d="M210.823529 210.823529h30.117647v30.117647h-30.117647zM210.823529 240.941176h30.117647v30.117648h-30.117647zM210.823529 271.058824h30.117647v30.117647h-30.117647zM210.823529 301.176471h30.117647v30.117647h-30.117647zM210.823529 331.294118h30.117647v30.117647h-30.117647zM210.823529 361.411765h30.117647v30.117647h-30.117647zM210.823529 391.529412h30.117647v30.117647h-30.117647zM210.823529 421.647059h30.117647v30.117647h-30.117647zM210.823529 451.764706h30.117647v30.117647h-30.117647zM210.823529 481.882353h30.117647v30.117647h-30.117647zM210.823529 512h30.117647v30.117647h-30.117647zM210.823529 542.117647h30.117647v30.117647h-30.117647zM210.823529 572.235294h30.117647v30.117647h-30.117647zM210.823529 602.352941h30.117647v30.117647h-30.117647zM210.823529 632.470588h30.117647v30.117647h-30.117647zM210.823529 662.588235h30.117647v30.117647h-30.117647zM210.823529 692.705882h30.117647v30.117647h-30.117647zM210.823529 722.823529h30.117647v30.117647h-30.117647zM210.823529 752.941176h30.117647v30.117648h-30.117647zM210.823529 783.058824h30.117647v30.117647h-30.117647z" fill="#FFD908" p-id="3234"></path><path d="M210.823529 783.058824h30.117647v30.117647h-30.117647z" fill="#FFD908" p-id="3235"></path><path d="M210.823529 783.058824h30.117647v30.117647h-30.117647z" fill="#FFD908" p-id="3236"></path><path d="M210.823529 813.176471h30.117647v30.117647h-30.117647zM210.823529 843.294118h30.117647v30.117647h-30.117647z" fill="#FFB902" p-id="3237"></path><path d="M210.823529 873.411765h30.117647v30.117647h-30.117647zM240.941176 120.470588h30.117648v30.117647h-30.117648zM240.941176 150.588235h30.117648v30.117647h-30.117648zM240.941176 180.705882h30.117648v30.117647h-30.117648zM240.941176 210.823529h30.117648v30.117647h-30.117648zM240.941176 240.941176h30.117648v30.117648h-30.117648zM240.941176 271.058824h30.117648v30.117647h-30.117648zM240.941176 301.176471h30.117648v30.117647h-30.117648zM240.941176 331.294118h30.117648v30.117647h-30.117648zM240.941176 361.411765h30.117648v30.117647h-30.117648zM240.941176 391.529412h30.117648v30.117647h-30.117648zM240.941176 421.647059h30.117648v30.117647h-30.117648zM240.941176 451.764706h30.117648v30.117647h-30.117648zM240.941176 481.882353h30.117648v30.117647h-30.117648zM240.941176 512h30.117648v30.117647h-30.117648zM240.941176 542.117647h30.117648v30.117647h-30.117648zM240.941176 572.235294h30.117648v30.117647h-30.117648zM240.941176 602.352941h30.117648v30.117647h-30.117648zM240.941176 632.470588h30.117648v30.117647h-30.117648zM240.941176 662.588235h30.117648v30.117647h-30.117648zM240.941176 692.705882h30.117648v30.117647h-30.117648zM240.941176 722.823529h30.117648v30.117647h-30.117648zM240.941176 752.941176h30.117648v30.117648h-30.117648zM240.941176 783.058824h30.117648v30.117647h-30.117648z" fill="#FFD908" p-id="3238"></path><path d="M240.941176 783.058824h30.117648v30.117647h-30.117648z" fill="#FFD908" p-id="3239"></path><path d="M240.941176 783.058824h30.117648v30.117647h-30.117648zM240.941176 813.176471h30.117648v30.117647h-30.117648zM240.941176 843.294118h30.117648v30.117647h-30.117648zM240.941176 873.411765h30.117648v30.117647h-30.117648zM271.058824 120.470588h30.117647v30.117647h-30.117647zM271.058824 150.588235h30.117647v30.117647h-30.117647zM271.058824 180.705882h30.117647v30.117647h-30.117647zM271.058824 210.823529h30.117647v30.117647h-30.117647zM271.058824 240.941176h30.117647v30.117648h-30.117647zM271.058824 271.058824h30.117647v30.117647h-30.117647z" fill="#FFD908" p-id="3240"></path><path d="M271.058824 301.176471h30.117647v30.117647h-30.117647z" fill="#FFFFFF" p-id="3241"></path><path d="M271.058824 331.294118h30.117647v30.117647h-30.117647z" fill="#FBFD04" p-id="3242"></path><path d="M271.058824 361.411765h30.117647v30.117647h-30.117647zM271.058824 391.529412h30.117647v30.117647h-30.117647zM271.058824 421.647059h30.117647v30.117647h-30.117647zM271.058824 451.764706h30.117647v30.117647h-30.117647zM271.058824 481.882353h30.117647v30.117647h-30.117647zM271.058824 512h30.117647v30.117647h-30.117647zM271.058824 542.117647h30.117647v30.117647h-30.117647zM271.058824 572.235294h30.117647v30.117647h-30.117647zM271.058824 602.352941h30.117647v30.117647h-30.117647zM271.058824 632.470588h30.117647v30.117647h-30.117647zM271.058824 662.588235h30.117647v30.117647h-30.117647zM271.058824 692.705882h30.117647v30.117647h-30.117647zM271.058824 722.823529h30.117647v30.117647h-30.117647zM271.058824 752.941176h30.117647v30.117648h-30.117647zM271.058824 783.058824h30.117647v30.117647h-30.117647z" fill="#FFD908" p-id="3243"></path><path d="M271.058824 783.058824h30.117647v30.117647h-30.117647z" fill="#FFD908" p-id="3244"></path><path d="M271.058824 783.058824h30.117647v30.117647h-30.117647zM271.058824 813.176471h30.117647v30.117647h-30.117647zM271.058824 843.294118h30.117647v30.117647h-30.117647zM271.058824 873.411765h30.117647v30.117647h-30.117647zM301.176471 120.470588h30.117647v30.117647h-30.117647zM301.176471 150.588235h30.117647v30.117647h-30.117647zM301.176471 180.705882h30.117647v30.117647h-30.117647zM301.176471 210.823529h30.117647v30.117647h-30.117647z" fill="#FFD908" p-id="3245"></path><path d="M301.176471 240.941176h30.117647v30.117648h-30.117647zM301.176471 271.058824h30.117647v30.117647h-30.117647z" fill="#FFFFFF" p-id="3246"></path><path d="M301.176471 301.176471h30.117647v30.117647h-30.117647zM301.176471 331.294118h30.117647v30.117647h-30.117647zM301.176471 361.411765h30.117647v30.117647h-30.117647z" fill="#FBFD04" p-id="3247"></path><path d="M301.176471 391.529412h30.117647v30.117647h-30.117647zM301.176471 421.647059h30.117647v30.117647h-30.117647zM301.176471 451.764706h30.117647v30.117647h-30.117647zM301.176471 481.882353h30.117647v30.117647h-30.117647zM301.176471 512h30.117647v30.117647h-30.117647zM301.176471 542.117647h30.117647v30.117647h-30.117647zM301.176471 572.235294h30.117647v30.117647h-30.117647zM301.176471 602.352941h30.117647v30.117647h-30.117647zM301.176471 632.470588h30.117647v30.117647h-30.117647zM301.176471 662.588235h30.117647v30.117647h-30.117647zM301.176471 692.705882h30.117647v30.117647h-30.117647zM301.176471 722.823529h30.117647v30.117647h-30.117647zM301.176471 752.941176h30.117647v30.117648h-30.117647zM301.176471 783.058824h30.117647v30.117647h-30.117647z" fill="#FFD908" p-id="3248"></path><path d="M301.176471 783.058824h30.117647v30.117647h-30.117647z" fill="#FFD908" p-id="3249"></path><path d="M301.176471 783.058824h30.117647v30.117647h-30.117647zM301.176471 813.176471h30.117647v30.117647h-30.117647zM301.176471 843.294118h30.117647v30.117647h-30.117647zM301.176471 873.411765h30.117647v30.117647h-30.117647zM331.294118 120.470588h30.117647v30.117647h-30.117647zM331.294118 150.588235h30.117647v30.117647h-30.117647z" fill="#FFD908" p-id="3250"></path><path d="M331.294118 180.705882h30.117647v30.117647h-30.117647zM331.294118 210.823529h30.117647v30.117647h-30.117647z" fill="#FFFFFF" p-id="3251"></path><path d="M331.294118 240.941176h30.117647v30.117648h-30.117647zM331.294118 271.058824h30.117647v30.117647h-30.117647zM331.294118 301.176471h30.117647v30.117647h-30.117647zM331.294118 331.294118h30.117647v30.117647h-30.117647zM331.294118 361.411765h30.117647v30.117647h-30.117647zM331.294118 391.529412h30.117647v30.117647h-30.117647z" fill="#FBFD04" p-id="3252"></path><path d="M331.294118 421.647059h30.117647v30.117647h-30.117647z" fill="#FFB902" p-id="3253"></path><path d="M331.294118 451.764706h30.117647v30.117647h-30.117647zM331.294118 481.882353h30.117647v30.117647h-30.117647zM331.294118 512h30.117647v30.117647h-30.117647zM331.294118 542.117647h30.117647v30.117647h-30.117647zM331.294118 572.235294h30.117647v30.117647h-30.117647zM331.294118 602.352941h30.117647v30.117647h-30.117647zM331.294118 632.470588h30.117647v30.117647h-30.117647zM331.294118 662.588235h30.117647v30.117647h-30.117647zM331.294118 692.705882h30.117647v30.117647h-30.117647zM331.294118 722.823529h30.117647v30.117647h-30.117647zM331.294118 752.941176h30.117647v30.117648h-30.117647zM331.294118 783.058824h30.117647v30.117647h-30.117647z" fill="#FFD908" p-id="3254"></path><path d="M331.294118 783.058824h30.117647v30.117647h-30.117647z" fill="#FFD908" p-id="3255"></path><path d="M331.294118 783.058824h30.117647v30.117647h-30.117647zM331.294118 813.176471h30.117647v30.117647h-30.117647zM331.294118 843.294118h30.117647v30.117647h-30.117647zM331.294118 873.411765h30.117647v30.117647h-30.117647zM361.411765 120.470588h30.117647v30.117647h-30.117647zM361.411765 150.588235h30.117647v30.117647h-30.117647z" fill="#FFD908" p-id="3256"></path><path d="M361.411765 180.705882h30.117647v30.117647h-30.117647z" fill="#FFFFFF" p-id="3257"></path><path d="M361.411765 210.823529h30.117647v30.117647h-30.117647zM361.411765 240.941176h30.117647v30.117648h-30.117647zM361.411765 271.058824h30.117647v30.117647h-30.117647zM361.411765 301.176471h30.117647v30.117647h-30.117647zM361.411765 331.294118h30.117647v30.117647h-30.117647zM361.411765 361.411765h30.117647v30.117647h-30.117647zM361.411765 391.529412h30.117647v30.117647h-30.117647z" fill="#FBFD04" p-id="3258"></path><path d="M361.411765 421.647059h30.117647v30.117647h-30.117647z" fill="#FFB902" p-id="3259"></path><path d="M361.411765 451.764706h30.117647v30.117647h-30.117647zM361.411765 481.882353h30.117647v30.117647h-30.117647zM361.411765 512h30.117647v30.117647h-30.117647zM361.411765 542.117647h30.117647v30.117647h-30.117647zM361.411765 572.235294h30.117647v30.117647h-30.117647zM361.411765 602.352941h30.117647v30.117647h-30.117647zM361.411765 632.470588h30.117647v30.117647h-30.117647zM361.411765 662.588235h30.117647v30.117647h-30.117647zM361.411765 692.705882h30.117647v30.117647h-30.117647zM361.411765 722.823529h30.117647v30.117647h-30.117647zM361.411765 752.941176h30.117647v30.117648h-30.117647zM361.411765 783.058824h30.117647v30.117647h-30.117647z" fill="#FFD908" p-id="3260"></path><path d="M361.411765 783.058824h30.117647v30.117647h-30.117647z" fill="#FFD908" p-id="3261"></path><path d="M361.411765 783.058824h30.117647v30.117647h-30.117647zM361.411765 813.176471h30.117647v30.117647h-30.117647zM361.411765 843.294118h30.117647v30.117647h-30.117647zM361.411765 873.411765h30.117647v30.117647h-30.117647zM391.529412 120.470588h30.117647v30.117647h-30.117647z" fill="#FFD908" p-id="3262"></path><path d="M391.529412 150.588235h30.117647v30.117647h-30.117647z" fill="#FFFFFF" p-id="3263"></path><path d="M391.529412 180.705882h30.117647v30.117647h-30.117647zM391.529412 210.823529h30.117647v30.117647h-30.117647zM391.529412 240.941176h30.117647v30.117648h-30.117647z" fill="#FBFD04" p-id="3264"></path><path d="M391.529412 271.058824h30.117647v30.117647h-30.117647zM391.529412 301.176471h30.117647v30.117647h-30.117647z" fill="#FFB902" p-id="3265"></path><path d="M391.529412 331.294118h30.117647v30.117647h-30.117647zM391.529412 361.411765h30.117647v30.117647h-30.117647z" fill="#FBFD04" p-id="3266"></path><path d="M391.529412 391.529412h30.117647v30.117647h-30.117647z" fill="#FFB902" p-id="3267"></path><path d="M391.529412 421.647059h30.117647v30.117647h-30.117647zM391.529412 451.764706h30.117647v30.117647h-30.117647zM391.529412 481.882353h30.117647v30.117647h-30.117647zM391.529412 512h30.117647v30.117647h-30.117647zM391.529412 542.117647h30.117647v30.117647h-30.117647zM391.529412 572.235294h30.117647v30.117647h-30.117647zM391.529412 602.352941h30.117647v30.117647h-30.117647zM391.529412 632.470588h30.117647v30.117647h-30.117647zM391.529412 662.588235h30.117647v30.117647h-30.117647zM391.529412 692.705882h30.117647v30.117647h-30.117647zM391.529412 722.823529h30.117647v30.117647h-30.117647zM391.529412 752.941176h30.117647v30.117648h-30.117647zM391.529412 783.058824h30.117647v30.117647h-30.117647z" fill="#FFD908" p-id="3268"></path><path d="M391.529412 783.058824h30.117647v30.117647h-30.117647z" fill="#FFD908" p-id="3269"></path><path d="M391.529412 783.058824h30.117647v30.117647h-30.117647zM391.529412 813.176471h30.117647v30.117647h-30.117647zM391.529412 843.294118h30.117647v30.117647h-30.117647zM391.529412 873.411765h30.117647v30.117647h-30.117647zM421.647059 120.470588h30.117647v30.117647h-30.117647z" fill="#FFD908" p-id="3270"></path><path d="M421.647059 150.588235h30.117647v30.117647h-30.117647z" fill="#FFFFFF" p-id="3271"></path><path d="M421.647059 180.705882h30.117647v30.117647h-30.117647zM421.647059 210.823529h30.117647v30.117647h-30.117647z" fill="#FBFD04" p-id="3272"></path><path d="M421.647059 240.941176h30.117647v30.117648h-30.117647z" fill="#FFB902" p-id="3273"></path><path d="M421.647059 271.058824h30.117647v30.117647h-30.117647zM421.647059 301.176471h30.117647v30.117647h-30.117647z" fill="#FFD908" p-id="3274"></path><path d="M421.647059 331.294118h30.117647v30.117647h-30.117647zM421.647059 361.411765h30.117647v30.117647h-30.117647z" fill="#FFB902" p-id="3275"></path><path d="M421.647059 391.529412h30.117647v30.117647h-30.117647zM421.647059 421.647059h30.117647v30.117647h-30.117647zM421.647059 451.764706h30.117647v30.117647h-30.117647zM421.647059 481.882353h30.117647v30.117647h-30.117647zM421.647059 512h30.117647v30.117647h-30.117647zM421.647059 542.117647h30.117647v30.117647h-30.117647zM421.647059 572.235294h30.117647v30.117647h-30.117647zM421.647059 602.352941h30.117647v30.117647h-30.117647zM421.647059 632.470588h30.117647v30.117647h-30.117647zM421.647059 662.588235h30.117647v30.117647h-30.117647zM421.647059 692.705882h30.117647v30.117647h-30.117647zM421.647059 722.823529h30.117647v30.117647h-30.117647zM421.647059 752.941176h30.117647v30.117648h-30.117647zM421.647059 783.058824h30.117647v30.117647h-30.117647z" fill="#FFD908" p-id="3276"></path><path d="M421.647059 783.058824h30.117647v30.117647h-30.117647z" fill="#FFD908" p-id="3277"></path><path d="M421.647059 783.058824h30.117647v30.117647h-30.117647zM421.647059 813.176471h30.117647v30.117647h-30.117647zM421.647059 843.294118h30.117647v30.117647h-30.117647zM421.647059 873.411765h30.117647v30.117647h-30.117647zM451.764706 120.470588h30.117647v30.117647h-30.117647z" fill="#FFD908" p-id="3278"></path><path d="M451.764706 150.588235h30.117647v30.117647h-30.117647zM451.764706 180.705882h30.117647v30.117647h-30.117647zM451.764706 210.823529h30.117647v30.117647h-30.117647z" fill="#FBFD04" p-id="3279"></path><path d="M451.764706 240.941176h30.117647v30.117648h-30.117647z" fill="#FFB902" p-id="3280"></path><path d="M451.764706 271.058824h30.117647v30.117647h-30.117647zM451.764706 301.176471h30.117647v30.117647h-30.117647zM451.764706 331.294118h30.117647v30.117647h-30.117647zM451.764706 361.411765h30.117647v30.117647h-30.117647zM451.764706 391.529412h30.117647v30.117647h-30.117647zM451.764706 421.647059h30.117647v30.117647h-30.117647zM451.764706 451.764706h30.117647v30.117647h-30.117647zM451.764706 481.882353h30.117647v30.117647h-30.117647zM451.764706 512h30.117647v30.117647h-30.117647zM451.764706 542.117647h30.117647v30.117647h-30.117647z" fill="#FFD908" p-id="3281"></path><path d="M451.764706 572.235294h30.117647v30.117647h-30.117647zM451.764706 602.352941h30.117647v30.117647h-30.117647zM451.764706 632.470588h30.117647v30.117647h-30.117647z" fill="#FBFD04" p-id="3282"></path><path d="M451.764706 662.588235h30.117647v30.117647h-30.117647z" fill="#FFB902" p-id="3283"></path><path d="M451.764706 692.705882h30.117647v30.117647h-30.117647z" fill="#FFD908" p-id="3284"></path><path d="M451.764706 722.823529h30.117647v30.117647h-30.117647z" fill="#FBFD04" p-id="3285"></path><path d="M451.764706 752.941176h30.117647v30.117648h-30.117647z" fill="#FFFFFF" p-id="3286"></path><path d="M451.764706 783.058824h30.117647v30.117647h-30.117647z" fill="#FFD908" p-id="3287"></path><path d="M451.764706 783.058824h30.117647v30.117647h-30.117647z" fill="#FFD908" p-id="3288"></path><path d="M451.764706 783.058824h30.117647v30.117647h-30.117647zM451.764706 813.176471h30.117647v30.117647h-30.117647z" fill="#FFFFFF" p-id="3289"></path><path d="M451.764706 843.294118h30.117647v30.117647h-30.117647z" fill="#FFB902" p-id="3290"></path><path d="M451.764706 873.411765h30.117647v30.117647h-30.117647zM481.882353 120.470588h30.117647v30.117647h-30.117647z" fill="#FFD908" p-id="3291"></path><path d="M481.882353 150.588235h30.117647v30.117647h-30.117647zM481.882353 180.705882h30.117647v30.117647h-30.117647zM481.882353 210.823529h30.117647v30.117647h-30.117647z" fill="#FBFD04" p-id="3292"></path><path d="M481.882353 240.941176h30.117647v30.117648h-30.117647z" fill="#FFB902" p-id="3293"></path><path d="M481.882353 271.058824h30.117647v30.117647h-30.117647zM481.882353 301.176471h30.117647v30.117647h-30.117647zM481.882353 331.294118h30.117647v30.117647h-30.117647zM481.882353 361.411765h30.117647v30.117647h-30.117647zM481.882353 391.529412h30.117647v30.117647h-30.117647zM481.882353 421.647059h30.117647v30.117647h-30.117647zM481.882353 451.764706h30.117647v30.117647h-30.117647zM481.882353 481.882353h30.117647v30.117647h-30.117647z" fill="#FFD908" p-id="3294"></path><path d="M481.882353 512h30.117647v30.117647h-30.117647zM481.882353 542.117647h30.117647v30.117647h-30.117647zM481.882353 572.235294h30.117647v30.117647h-30.117647zM481.882353 602.352941h30.117647v30.117647h-30.117647zM481.882353 632.470588h30.117647v30.117647h-30.117647z" fill="#FBFD04" p-id="3295"></path><path d="M481.882353 662.588235h30.117647v30.117647h-30.117647z" fill="#FFB902" p-id="3296"></path><path d="M481.882353 692.705882h30.117647v30.117647h-30.117647z" fill="#FFD908" p-id="3297"></path><path d="M481.882353 722.823529h30.117647v30.117647h-30.117647zM481.882353 752.941176h30.117647v30.117648h-30.117647z" fill="#FBFD04" p-id="3298"></path><path d="M481.882353 783.058824h30.117647v30.117647h-30.117647z" fill="#FFD908" p-id="3299"></path><path d="M481.882353 783.058824h30.117647v30.117647h-30.117647z" fill="#FFD908" p-id="3300"></path><path d="M481.882353 783.058824h30.117647v30.117647h-30.117647zM481.882353 813.176471h30.117647v30.117647h-30.117647z" fill="#FBFD04" p-id="3301"></path><path d="M481.882353 843.294118h30.117647v30.117647h-30.117647z" fill="#FFB902" p-id="3302"></path><path d="M481.882353 873.411765h30.117647v30.117647h-30.117647zM512 120.470588h30.117647v30.117647h-30.117647z" fill="#FFD908" p-id="3303"></path><path d="M512 150.588235h30.117647v30.117647h-30.117647zM512 180.705882h30.117647v30.117647h-30.117647zM512 210.823529h30.117647v30.117647h-30.117647z" fill="#FBFD04" p-id="3304"></path><path d="M512 240.941176h30.117647v30.117648h-30.117647z" fill="#FFB902" p-id="3305"></path><path d="M512 271.058824h30.117647v30.117647h-30.117647zM512 301.176471h30.117647v30.117647h-30.117647zM512 331.294118h30.117647v30.117647h-30.117647zM512 361.411765h30.117647v30.117647h-30.117647zM512 391.529412h30.117647v30.117647h-30.117647zM512 421.647059h30.117647v30.117647h-30.117647z" fill="#FFD908" p-id="3306"></path><path d="M512 451.764706h30.117647v30.117647h-30.117647zM512 481.882353h30.117647v30.117647h-30.117647zM512 512h30.117647v30.117647h-30.117647zM512 542.117647h30.117647v30.117647h-30.117647zM512 572.235294h30.117647v30.117647h-30.117647zM512 602.352941h30.117647v30.117647h-30.117647z" fill="#FBFD04" p-id="3307"></path><path d="M512 632.470588h30.117647v30.117647h-30.117647z" fill="#FFFFFF" p-id="3308"></path><path d="M512 662.588235h30.117647v30.117647h-30.117647z" fill="#FFB902" p-id="3309"></path><path d="M512 692.705882h30.117647v30.117647h-30.117647z" fill="#FFD908" p-id="3310"></path><path d="M512 722.823529h30.117647v30.117647h-30.117647zM512 752.941176h30.117647v30.117648h-30.117647z" fill="#FBFD04" p-id="3311"></path><path d="M512 783.058824h30.117647v30.117647h-30.117647z" fill="#FFD908" p-id="3312"></path><path d="M512 783.058824h30.117647v30.117647h-30.117647z" fill="#FFD908" p-id="3313"></path><path d="M512 783.058824h30.117647v30.117647h-30.117647zM512 813.176471h30.117647v30.117647h-30.117647z" fill="#FBFD04" p-id="3314"></path><path d="M512 843.294118h30.117647v30.117647h-30.117647z" fill="#FFB902" p-id="3315"></path><path d="M512 873.411765h30.117647v30.117647h-30.117647zM542.117647 120.470588h30.117647v30.117647h-30.117647z" fill="#FFD908" p-id="3316"></path><path d="M542.117647 150.588235h30.117647v30.117647h-30.117647zM542.117647 180.705882h30.117647v30.117647h-30.117647zM542.117647 210.823529h30.117647v30.117647h-30.117647z" fill="#FBFD04" p-id="3317"></path><path d="M542.117647 240.941176h30.117647v30.117648h-30.117647z" fill="#FFB902" p-id="3318"></path><path d="M542.117647 271.058824h30.117647v30.117647h-30.117647zM542.117647 301.176471h30.117647v30.117647h-30.117647zM542.117647 331.294118h30.117647v30.117647h-30.117647zM542.117647 361.411765h30.117647v30.117647h-30.117647zM542.117647 391.529412h30.117647v30.117647h-30.117647zM542.117647 421.647059h30.117647v30.117647h-30.117647z" fill="#FFD908" p-id="3319"></path><path d="M542.117647 451.764706h30.117647v30.117647h-30.117647zM542.117647 481.882353h30.117647v30.117647h-30.117647zM542.117647 512h30.117647v30.117647h-30.117647zM542.117647 542.117647h30.117647v30.117647h-30.117647zM542.117647 572.235294h30.117647v30.117647h-30.117647z" fill="#FBFD04" p-id="3320"></path><path d="M542.117647 602.352941h30.117647v30.117647h-30.117647zM542.117647 632.470588h30.117647v30.117647h-30.117647z" fill="#FFFFFF" p-id="3321"></path><path d="M542.117647 662.588235h30.117647v30.117647h-30.117647z" fill="#FFB902" p-id="3322"></path><path d="M542.117647 692.705882h30.117647v30.117647h-30.117647z" fill="#FFD908" p-id="3323"></path><path d="M542.117647 722.823529h30.117647v30.117647h-30.117647zM542.117647 752.941176h30.117647v30.117648h-30.117647z" fill="#FBFD04" p-id="3324"></path><path d="M542.117647 783.058824h30.117647v30.117647h-30.117647z" fill="#FFD908" p-id="3325"></path><path d="M542.117647 783.058824h30.117647v30.117647h-30.117647z" fill="#FFD908" p-id="3326"></path><path d="M542.117647 783.058824h30.117647v30.117647h-30.117647zM542.117647 813.176471h30.117647v30.117647h-30.117647z" fill="#FBFD04" p-id="3327"></path><path d="M542.117647 843.294118h30.117647v30.117647h-30.117647z" fill="#FFB902" p-id="3328"></path><path d="M542.117647 873.411765h30.117647v30.117647h-30.117647zM572.235294 120.470588h30.117647v30.117647h-30.117647z" fill="#FFD908" p-id="3329"></path><path d="M572.235294 150.588235h30.117647v30.117647h-30.117647zM572.235294 180.705882h30.117647v30.117647h-30.117647zM572.235294 210.823529h30.117647v30.117647h-30.117647z" fill="#FBFD04" p-id="3330"></path><path d="M572.235294 240.941176h30.117647v30.117648h-30.117647z" fill="#FFB902" p-id="3331"></path><path d="M572.235294 271.058824h30.117647v30.117647h-30.117647zM572.235294 301.176471h30.117647v30.117647h-30.117647zM572.235294 331.294118h30.117647v30.117647h-30.117647zM572.235294 361.411765h30.117647v30.117647h-30.117647zM572.235294 391.529412h30.117647v30.117647h-30.117647zM572.235294 421.647059h30.117647v30.117647h-30.117647z" fill="#FFD908" p-id="3332"></path><path d="M572.235294 451.764706h30.117647v30.117647h-30.117647zM572.235294 481.882353h30.117647v30.117647h-30.117647zM572.235294 512h30.117647v30.117647h-30.117647z" fill="#FBFD04" p-id="3333"></path><path d="M572.235294 542.117647h30.117647v30.117647h-30.117647zM572.235294 572.235294h30.117647v30.117647h-30.117647zM572.235294 602.352941h30.117647v30.117647h-30.117647zM572.235294 632.470588h30.117647v30.117647h-30.117647zM572.235294 662.588235h30.117647v30.117647h-30.117647z" fill="#FFB902" p-id="3334"></path><path d="M572.235294 692.705882h30.117647v30.117647h-30.117647z" fill="#FFD908" p-id="3335"></path><path d="M572.235294 722.823529h30.117647v30.117647h-30.117647zM572.235294 752.941176h30.117647v30.117648h-30.117647z" fill="#FFB902" p-id="3336"></path><path d="M572.235294 783.058824h30.117647v30.117647h-30.117647z" fill="#FFD908" p-id="3337"></path><path d="M572.235294 783.058824h30.117647v30.117647h-30.117647z" fill="#FFD908" p-id="3338"></path><path d="M572.235294 783.058824h30.117647v30.117647h-30.117647zM572.235294 813.176471h30.117647v30.117647h-30.117647zM572.235294 843.294118h30.117647v30.117647h-30.117647z" fill="#FFB902" p-id="3339"></path><path d="M572.235294 873.411765h30.117647v30.117647h-30.117647zM602.352941 120.470588h30.117647v30.117647h-30.117647z" fill="#FFD908" p-id="3340"></path><path d="M602.352941 150.588235h30.117647v30.117647h-30.117647z" fill="#FFB902" p-id="3341"></path><path d="M602.352941 180.705882h30.117647v30.117647h-30.117647zM602.352941 210.823529h30.117647v30.117647h-30.117647zM602.352941 240.941176h30.117647v30.117648h-30.117647z" fill="#FBFD04" p-id="3342"></path><path d="M602.352941 271.058824h30.117647v30.117647h-30.117647z" fill="#FFB902" p-id="3343"></path><path d="M602.352941 301.176471h30.117647v30.117647h-30.117647zM602.352941 331.294118h30.117647v30.117647h-30.117647zM602.352941 361.411765h30.117647v30.117647h-30.117647zM602.352941 391.529412h30.117647v30.117647h-30.117647z" fill="#FFD908" p-id="3344"></path><path d="M602.352941 421.647059h30.117647v30.117647h-30.117647zM602.352941 451.764706h30.117647v30.117647h-30.117647zM602.352941 481.882353h30.117647v30.117647h-30.117647z" fill="#FBFD04" p-id="3345"></path><path d="M602.352941 512h30.117647v30.117647h-30.117647z" fill="#FFB902" p-id="3346"></path><path d="M602.352941 542.117647h30.117647v30.117647h-30.117647zM602.352941 572.235294h30.117647v30.117647h-30.117647zM602.352941 602.352941h30.117647v30.117647h-30.117647zM602.352941 632.470588h30.117647v30.117647h-30.117647zM602.352941 662.588235h30.117647v30.117647h-30.117647zM602.352941 692.705882h30.117647v30.117647h-30.117647zM602.352941 722.823529h30.117647v30.117647h-30.117647zM602.352941 752.941176h30.117647v30.117648h-30.117647zM602.352941 783.058824h30.117647v30.117647h-30.117647z" fill="#FFD908" p-id="3347"></path><path d="M602.352941 783.058824h30.117647v30.117647h-30.117647z" fill="#FFD908" p-id="3348"></path><path d="M602.352941 783.058824h30.117647v30.117647h-30.117647zM602.352941 813.176471h30.117647v30.117647h-30.117647zM602.352941 843.294118h30.117647v30.117647h-30.117647zM602.352941 873.411765h30.117647v30.117647h-30.117647zM632.470588 120.470588h30.117647v30.117647h-30.117647z" fill="#FFD908" p-id="3349"></path><path d="M632.470588 150.588235h30.117647v30.117647h-30.117647z" fill="#FFB902" p-id="3350"></path><path d="M632.470588 180.705882h30.117647v30.117647h-30.117647zM632.470588 210.823529h30.117647v30.117647h-30.117647zM632.470588 240.941176h30.117647v30.117648h-30.117647zM632.470588 271.058824h30.117647v30.117647h-30.117647zM632.470588 301.176471h30.117647v30.117647h-30.117647zM632.470588 331.294118h30.117647v30.117647h-30.117647zM632.470588 361.411765h30.117647v30.117647h-30.117647zM632.470588 391.529412h30.117647v30.117647h-30.117647zM632.470588 421.647059h30.117647v30.117647h-30.117647zM632.470588 451.764706h30.117647v30.117647h-30.117647zM632.470588 481.882353h30.117647v30.117647h-30.117647z" fill="#FBFD04" p-id="3351"></path><path d="M632.470588 512h30.117647v30.117647h-30.117647z" fill="#FFB902" p-id="3352"></path><path d="M632.470588 542.117647h30.117647v30.117647h-30.117647zM632.470588 572.235294h30.117647v30.117647h-30.117647zM632.470588 602.352941h30.117647v30.117647h-30.117647zM632.470588 632.470588h30.117647v30.117647h-30.117647zM632.470588 662.588235h30.117647v30.117647h-30.117647zM632.470588 692.705882h30.117647v30.117647h-30.117647zM632.470588 722.823529h30.117647v30.117647h-30.117647zM632.470588 752.941176h30.117647v30.117648h-30.117647zM632.470588 783.058824h30.117647v30.117647h-30.117647z" fill="#FFD908" p-id="3353"></path><path d="M632.470588 783.058824h30.117647v30.117647h-30.117647z" fill="#FFD908" p-id="3354"></path><path d="M632.470588 783.058824h30.117647v30.117647h-30.117647zM632.470588 813.176471h30.117647v30.117647h-30.117647zM632.470588 843.294118h30.117647v30.117647h-30.117647zM632.470588 873.411765h30.117647v30.117647h-30.117647zM662.588235 120.470588h30.117647v30.117647h-30.117647zM662.588235 150.588235h30.117647v30.117647h-30.117647z" fill="#FFD908" p-id="3355"></path><path d="M662.588235 180.705882h30.117647v30.117647h-30.117647z" fill="#FFB902" p-id="3356"></path><path d="M662.588235 210.823529h30.117647v30.117647h-30.117647zM662.588235 240.941176h30.117647v30.117648h-30.117647zM662.588235 271.058824h30.117647v30.117647h-30.117647zM662.588235 301.176471h30.117647v30.117647h-30.117647zM662.588235 331.294118h30.117647v30.117647h-30.117647zM662.588235 361.411765h30.117647v30.117647h-30.117647z" fill="#FBFD04" p-id="3357"></path><path d="M662.588235 391.529412h30.117647v30.117647h-30.117647zM662.588235 421.647059h30.117647v30.117647h-30.117647z" fill="#FFFFFF" p-id="3358"></path><path d="M662.588235 451.764706h30.117647v30.117647h-30.117647z" fill="#FBFD04" p-id="3359"></path><path d="M662.588235 481.882353h30.117647v30.117647h-30.117647z" fill="#FFB902" p-id="3360"></path><path d="M662.588235 512h30.117647v30.117647h-30.117647zM662.588235 542.117647h30.117647v30.117647h-30.117647zM662.588235 572.235294h30.117647v30.117647h-30.117647zM662.588235 602.352941h30.117647v30.117647h-30.117647zM662.588235 632.470588h30.117647v30.117647h-30.117647zM662.588235 662.588235h30.117647v30.117647h-30.117647zM662.588235 692.705882h30.117647v30.117647h-30.117647zM662.588235 722.823529h30.117647v30.117647h-30.117647zM662.588235 752.941176h30.117647v30.117648h-30.117647zM662.588235 783.058824h30.117647v30.117647h-30.117647z" fill="#FFD908" p-id="3361"></path><path d="M662.588235 783.058824h30.117647v30.117647h-30.117647z" fill="#FFD908" p-id="3362"></path><path d="M662.588235 783.058824h30.117647v30.117647h-30.117647zM662.588235 813.176471h30.117647v30.117647h-30.117647zM662.588235 843.294118h30.117647v30.117647h-30.117647zM662.588235 873.411765h30.117647v30.117647h-30.117647zM692.705882 120.470588h30.117647v30.117647h-30.117647zM692.705882 150.588235h30.117647v30.117647h-30.117647zM692.705882 180.705882h30.117647v30.117647h-30.117647z" fill="#FFD908" p-id="3363"></path><path d="M692.705882 210.823529h30.117647v30.117647h-30.117647zM692.705882 240.941176h30.117647v30.117648h-30.117647z" fill="#FFB902" p-id="3364"></path><path d="M692.705882 271.058824h30.117647v30.117647h-30.117647zM692.705882 301.176471h30.117647v30.117647h-30.117647zM692.705882 331.294118h30.117647v30.117647h-30.117647z" fill="#FBFD04" p-id="3365"></path><path d="M692.705882 361.411765h30.117647v30.117647h-30.117647zM692.705882 391.529412h30.117647v30.117647h-30.117647z" fill="#FFFFFF" p-id="3366"></path><path d="M692.705882 421.647059h30.117647v30.117647h-30.117647zM692.705882 451.764706h30.117647v30.117647h-30.117647z" fill="#FFB902" p-id="3367"></path><path d="M692.705882 481.882353h30.117647v30.117647h-30.117647zM692.705882 512h30.117647v30.117647h-30.117647zM692.705882 542.117647h30.117647v30.117647h-30.117647zM692.705882 572.235294h30.117647v30.117647h-30.117647zM692.705882 602.352941h30.117647v30.117647h-30.117647zM692.705882 632.470588h30.117647v30.117647h-30.117647zM692.705882 662.588235h30.117647v30.117647h-30.117647zM692.705882 692.705882h30.117647v30.117647h-30.117647zM692.705882 722.823529h30.117647v30.117647h-30.117647zM692.705882 752.941176h30.117647v30.117648h-30.117647zM692.705882 783.058824h30.117647v30.117647h-30.117647z" fill="#FFD908" p-id="3368"></path><path d="M692.705882 783.058824h30.117647v30.117647h-30.117647z" fill="#FFD908" p-id="3369"></path><path d="M692.705882 783.058824h30.117647v30.117647h-30.117647zM692.705882 813.176471h30.117647v30.117647h-30.117647zM692.705882 843.294118h30.117647v30.117647h-30.117647zM692.705882 873.411765h30.117647v30.117647h-30.117647zM722.823529 120.470588h30.117647v30.117647h-30.117647zM722.823529 150.588235h30.117647v30.117647h-30.117647zM722.823529 180.705882h30.117647v30.117647h-30.117647zM722.823529 210.823529h30.117647v30.117647h-30.117647zM722.823529 240.941176h30.117647v30.117648h-30.117647z" fill="#FFD908" p-id="3370"></path><path d="M722.823529 271.058824h30.117647v30.117647h-30.117647zM722.823529 301.176471h30.117647v30.117647h-30.117647zM722.823529 331.294118h30.117647v30.117647h-30.117647zM722.823529 361.411765h30.117647v30.117647h-30.117647zM722.823529 391.529412h30.117647v30.117647h-30.117647z" fill="#FFB902" p-id="3371"></path><path d="M722.823529 421.647059h30.117647v30.117647h-30.117647zM722.823529 451.764706h30.117647v30.117647h-30.117647zM722.823529 481.882353h30.117647v30.117647h-30.117647zM722.823529 512h30.117647v30.117647h-30.117647zM722.823529 542.117647h30.117647v30.117647h-30.117647zM722.823529 572.235294h30.117647v30.117647h-30.117647zM722.823529 602.352941h30.117647v30.117647h-30.117647zM722.823529 632.470588h30.117647v30.117647h-30.117647zM722.823529 662.588235h30.117647v30.117647h-30.117647zM722.823529 692.705882h30.117647v30.117647h-30.117647zM722.823529 722.823529h30.117647v30.117647h-30.117647zM722.823529 752.941176h30.117647v30.117648h-30.117647zM722.823529 783.058824h30.117647v30.117647h-30.117647z" fill="#FFD908" p-id="3372"></path><path d="M722.823529 783.058824h30.117647v30.117647h-30.117647z" fill="#FFD908" p-id="3373"></path><path d="M722.823529 783.058824h30.117647v30.117647h-30.117647zM722.823529 813.176471h30.117647v30.117647h-30.117647zM722.823529 843.294118h30.117647v30.117647h-30.117647zM722.823529 873.411765h30.117647v30.117647h-30.117647zM752.941176 120.470588h30.117648v30.117647h-30.117648zM752.941176 150.588235h30.117648v30.117647h-30.117648zM752.941176 180.705882h30.117648v30.117647h-30.117648zM752.941176 210.823529h30.117648v30.117647h-30.117648zM752.941176 240.941176h30.117648v30.117648h-30.117648zM752.941176 271.058824h30.117648v30.117647h-30.117648zM752.941176 301.176471h30.117648v30.117647h-30.117648zM752.941176 331.294118h30.117648v30.117647h-30.117648zM752.941176 361.411765h30.117648v30.117647h-30.117648zM752.941176 391.529412h30.117648v30.117647h-30.117648zM752.941176 421.647059h30.117648v30.117647h-30.117648zM752.941176 451.764706h30.117648v30.117647h-30.117648zM752.941176 481.882353h30.117648v30.117647h-30.117648zM752.941176 512h30.117648v30.117647h-30.117648zM752.941176 542.117647h30.117648v30.117647h-30.117648zM752.941176 572.235294h30.117648v30.117647h-30.117648zM752.941176 602.352941h30.117648v30.117647h-30.117648zM752.941176 632.470588h30.117648v30.117647h-30.117648zM752.941176 662.588235h30.117648v30.117647h-30.117648zM752.941176 692.705882h30.117648v30.117647h-30.117648zM752.941176 722.823529h30.117648v30.117647h-30.117648zM752.941176 752.941176h30.117648v30.117648h-30.117648zM752.941176 783.058824h30.117648v30.117647h-30.117648z" fill="#FFD908" p-id="3374"></path><path d="M752.941176 783.058824h30.117648v30.117647h-30.117648z" fill="#FFD908" p-id="3375"></path><path d="M752.941176 783.058824h30.117648v30.117647h-30.117648zM752.941176 813.176471h30.117648v30.117647h-30.117648zM752.941176 843.294118h30.117648v30.117647h-30.117648zM752.941176 873.411765h30.117648v30.117647h-30.117648zM783.058824 120.470588h30.117647v30.117647h-30.117647zM783.058824 150.588235h30.117647v30.117647h-30.117647zM783.058824 180.705882h30.117647v30.117647h-30.117647zM783.058824 210.823529h30.117647v30.117647h-30.117647zM783.058824 240.941176h30.117647v30.117648h-30.117647zM783.058824 271.058824h30.117647v30.117647h-30.117647zM783.058824 301.176471h30.117647v30.117647h-30.117647zM783.058824 331.294118h30.117647v30.117647h-30.117647zM783.058824 361.411765h30.117647v30.117647h-30.117647zM783.058824 391.529412h30.117647v30.117647h-30.117647zM783.058824 421.647059h30.117647v30.117647h-30.117647zM783.058824 451.764706h30.117647v30.117647h-30.117647zM783.058824 481.882353h30.117647v30.117647h-30.117647zM783.058824 512h30.117647v30.117647h-30.117647zM783.058824 542.117647h30.117647v30.117647h-30.117647zM783.058824 572.235294h30.117647v30.117647h-30.117647zM783.058824 602.352941h30.117647v30.117647h-30.117647zM783.058824 632.470588h30.117647v30.117647h-30.117647zM783.058824 662.588235h30.117647v30.117647h-30.117647zM783.058824 692.705882h30.117647v30.117647h-30.117647zM783.058824 722.823529h30.117647v30.117647h-30.117647zM783.058824 752.941176h30.117647v30.117648h-30.117647zM783.058824 783.058824h30.117647v30.117647h-30.117647z" fill="#FFD908" p-id="3376"></path><path d="M783.058824 783.058824h30.117647v30.117647h-30.117647z" fill="#FFD908" p-id="3377"></path><path d="M783.058824 783.058824h30.117647v30.117647h-30.117647zM783.058824 813.176471h30.117647v30.117647h-30.117647zM783.058824 843.294118h30.117647v30.117647h-30.117647zM783.058824 873.411765h30.117647v30.117647h-30.117647zM813.176471 120.470588h30.117647v30.117647h-30.117647z" fill="#FFD908" p-id="3378"></path><path d="M813.176471 150.588235h30.117647v30.117647h-30.117647z" fill="#FFFFFF" p-id="3379"></path><path d="M813.176471 180.705882h30.117647v30.117647h-30.117647z" fill="#FBFD04" p-id="3380"></path><path d="M813.176471 210.823529h30.117647v30.117647h-30.117647z" fill="#FFB902" p-id="3381"></path><path d="M813.176471 240.941176h30.117647v30.117648h-30.117647zM813.176471 271.058824h30.117647v30.117647h-30.117647zM813.176471 301.176471h30.117647v30.117647h-30.117647zM813.176471 331.294118h30.117647v30.117647h-30.117647zM813.176471 361.411765h30.117647v30.117647h-30.117647zM813.176471 391.529412h30.117647v30.117647h-30.117647zM813.176471 421.647059h30.117647v30.117647h-30.117647zM813.176471 451.764706h30.117647v30.117647h-30.117647zM813.176471 481.882353h30.117647v30.117647h-30.117647zM813.176471 512h30.117647v30.117647h-30.117647zM813.176471 542.117647h30.117647v30.117647h-30.117647zM813.176471 572.235294h30.117647v30.117647h-30.117647zM813.176471 602.352941h30.117647v30.117647h-30.117647zM813.176471 632.470588h30.117647v30.117647h-30.117647zM813.176471 662.588235h30.117647v30.117647h-30.117647zM813.176471 692.705882h30.117647v30.117647h-30.117647zM813.176471 722.823529h30.117647v30.117647h-30.117647zM813.176471 752.941176h30.117647v30.117648h-30.117647zM813.176471 783.058824h30.117647v30.117647h-30.117647z" fill="#FFD908" p-id="3382"></path><path d="M813.176471 783.058824h30.117647v30.117647h-30.117647z" fill="#FFD908" p-id="3383"></path><path d="M813.176471 783.058824h30.117647v30.117647h-30.117647z" fill="#FFD908" p-id="3384"></path><path d="M813.176471 813.176471h30.117647v30.117647h-30.117647z" fill="#FFFFFF" p-id="3385"></path><path d="M813.176471 843.294118h30.117647v30.117647h-30.117647z" fill="#FBFD04" p-id="3386"></path><path d="M843.294118 120.470588h30.117647v30.117647h-30.117647z" fill="#FFD908" p-id="3387"></path><path d="M843.294118 150.588235h30.117647v30.117647h-30.117647zM843.294118 180.705882h30.117647v30.117647h-30.117647z" fill="#FBFD04" p-id="3388"></path><path d="M843.294118 210.823529h30.117647v30.117647h-30.117647z" fill="#FFB902" p-id="3389"></path><path d="M873.411765 210.823529h30.117647v30.117647h-30.117647zM843.294118 240.941176h30.117647v30.117648h-30.117647zM873.411765 240.941176h30.117647v30.117648h-30.117647zM843.294118 271.058824h30.117647v30.117647h-30.117647zM873.411765 271.058824h30.117647v30.117647h-30.117647zM843.294118 301.176471h30.117647v30.117647h-30.117647zM873.411765 301.176471h30.117647v30.117647h-30.117647zM843.294118 331.294118h30.117647v30.117647h-30.117647zM873.411765 331.294118h30.117647v30.117647h-30.117647zM843.294118 361.411765h30.117647v30.117647h-30.117647zM873.411765 361.411765h30.117647v30.117647h-30.117647zM843.294118 391.529412h30.117647v30.117647h-30.117647zM873.411765 391.529412h30.117647v30.117647h-30.117647zM843.294118 421.647059h30.117647v30.117647h-30.117647zM873.411765 421.647059h30.117647v30.117647h-30.117647zM843.294118 451.764706h30.117647v30.117647h-30.117647zM873.411765 451.764706h30.117647v30.117647h-30.117647zM843.294118 481.882353h30.117647v30.117647h-30.117647zM873.411765 481.882353h30.117647v30.117647h-30.117647zM843.294118 512h30.117647v30.117647h-30.117647zM873.411765 512h30.117647v30.117647h-30.117647zM843.294118 542.117647h30.117647v30.117647h-30.117647zM873.411765 542.117647h30.117647v30.117647h-30.117647zM843.294118 572.235294h30.117647v30.117647h-30.117647zM873.411765 572.235294h30.117647v30.117647h-30.117647zM843.294118 602.352941h30.117647v30.117647h-30.117647zM873.411765 602.352941h30.117647v30.117647h-30.117647zM843.294118 632.470588h30.117647v30.117647h-30.117647zM873.411765 632.470588h30.117647v30.117647h-30.117647zM843.294118 662.588235h30.117647v30.117647h-30.117647zM873.411765 662.588235h30.117647v30.117647h-30.117647zM843.294118 692.705882h30.117647v30.117647h-30.117647zM873.411765 692.705882h30.117647v30.117647h-30.117647zM843.294118 722.823529h30.117647v30.117647h-30.117647zM873.411765 722.823529h30.117647v30.117647h-30.117647zM843.294118 752.941176h30.117647v30.117648h-30.117647zM873.411765 752.941176h30.117647v30.117648h-30.117647zM843.294118 783.058824h30.117647v30.117647h-30.117647zM873.411765 783.058824h30.117647v30.117647h-30.117647z" fill="#FFD908" p-id="3390"></path><path d="M843.294118 783.058824h30.117647v30.117647h-30.117647zM873.411765 783.058824h30.117647v30.117647h-30.117647z" fill="#FFD908" p-id="3391"></path><path d="M843.294118 783.058824h30.117647v30.117647h-30.117647zM873.411765 783.058824h30.117647v30.117647h-30.117647z" fill="#FFD908" p-id="3392"></path><path d="M843.294118 813.176471h30.117647v30.117647h-30.117647zM843.294118 843.294118h30.117647v30.117647h-30.117647z" fill="#FBFD04" p-id="3393"></path><path d="M30.117647 90.352941h30.117647v30.117647H30.117647zM30.117647 120.470588h30.117647v30.117647H30.117647zM30.117647 933.647059h30.117647v30.117647H30.117647zM60.235294 963.764706h30.117647v30.117647H60.235294zM90.352941 963.764706h30.117647v30.117647H90.352941zM963.764706 933.647059h30.117647v30.117647h-30.117647zM933.647059 963.764706h30.117647v30.117647h-30.117647zM903.529412 963.764706h30.117647v30.117647h-30.117647zM963.764706 903.529412h30.117647v30.117647h-30.117647zM933.647059 933.647059h30.117647v30.117647h-30.117647zM30.117647 903.529412h30.117647v30.117647H30.117647zM60.235294 933.647059h30.117647v30.117647H60.235294zM180.705882 30.117647h30.117647v30.117647h-30.117647zM903.529412 30.117647h30.117647v30.117647h-30.117647zM933.647059 60.235294h30.117647v30.117647h-30.117647zM120.470588 30.117647h30.117647v30.117647H120.470588zM210.823529 30.117647h30.117647v30.117647h-30.117647zM933.647059 30.117647h30.117647v30.117647h-30.117647zM963.764706 60.235294h30.117647v30.117647h-30.117647zM963.764706 90.352941h30.117647v30.117647h-30.117647z" fill="#FFFFFF" p-id="3394"></path><path d="M301.176471 0h30.117647v30.117647h-30.117647zM301.176471 90.352941h30.117647v30.117647h-30.117647zM301.176471 903.529412h30.117647v30.117647h-30.117647zM120.470588 301.176471v30.117647H90.352941v-30.117647zM933.647059 301.176471v30.117647h-30.117647v-30.117647zM301.176471 993.882353h30.117647v30.117647h-30.117647zM30.117647 301.176471v30.117647H0v-30.117647zM1024 301.176471v30.117647h-30.117647v-30.117647zM542.117647 0h30.117647v30.117647h-30.117647zM542.117647 90.352941h30.117647v30.117647h-30.117647zM542.117647 903.529412h30.117647v30.117647h-30.117647zM120.470588 542.117647v30.117647H90.352941v-30.117647zM933.647059 542.117647v30.117647h-30.117647v-30.117647zM542.117647 993.882353h30.117647v30.117647h-30.117647zM30.117647 542.117647v30.117647H0v-30.117647zM1024 542.117647v30.117647h-30.117647v-30.117647zM180.705882 0h30.117647v30.117647h-30.117647zM180.705882 90.352941h30.117647v30.117647h-30.117647zM180.705882 903.529412h30.117647v30.117647h-30.117647zM180.705882 873.411765h30.117647v30.117647h-30.117647zM120.470588 180.705882v30.117647H90.352941v-30.117647zM933.647059 180.705882v30.117647h-30.117647v-30.117647zM180.705882 993.882353h30.117647v30.117647h-30.117647zM30.117647 180.705882v30.117647H0v-30.117647zM1024 180.705882v30.117647h-30.117647v-30.117647zM421.647059 0h30.117647v30.117647h-30.117647zM421.647059 90.352941h30.117647v30.117647h-30.117647zM421.647059 903.529412h30.117647v30.117647h-30.117647zM120.470588 421.647059v30.117647H90.352941v-30.117647zM933.647059 421.647059v30.117647h-30.117647v-30.117647zM421.647059 993.882353h30.117647v30.117647h-30.117647zM30.117647 421.647059v30.117647H0v-30.117647zM1024 421.647059v30.117647h-30.117647v-30.117647zM662.588235 0h30.117647v30.117647h-30.117647zM662.588235 90.352941h30.117647v30.117647h-30.117647zM662.588235 903.529412h30.117647v30.117647h-30.117647zM120.470588 662.588235v30.117647H90.352941v-30.117647zM933.647059 662.588235v30.117647h-30.117647v-30.117647zM662.588235 993.882353h30.117647v30.117647h-30.117647zM30.117647 662.588235v30.117647H0v-30.117647zM1024 662.588235v30.117647h-30.117647v-30.117647zM843.294118 0h30.117647v30.117647h-30.117647zM843.294118 90.352941h30.117647v30.117647h-30.117647zM843.294118 903.529412h30.117647v30.117647h-30.117647zM843.294118 873.411765h30.117647v30.117647h-30.117647zM120.470588 843.294118v30.117647H90.352941v-30.117647zM933.647059 843.294118v30.117647h-30.117647v-30.117647zM903.529412 843.294118v30.117647h-30.117647v-30.117647zM843.294118 993.882353h30.117647v30.117647h-30.117647zM30.117647 843.294118v30.117647H0v-30.117647zM1024 843.294118v30.117647h-30.117647v-30.117647zM120.470588 0h30.117647v30.117647H120.470588zM120.470588 90.352941h30.117647v30.117647H120.470588zM120.470588 120.470588h30.117647v30.117647H120.470588zM873.411765 120.470588h30.117647v30.117647h-30.117647zM873.411765 180.705882h30.117647v30.117647h-30.117647zM120.470588 903.529412h30.117647v30.117647H120.470588zM120.470588 873.411765h30.117647v30.117647H120.470588zM120.470588 120.470588v30.117647H90.352941V120.470588zM933.647059 120.470588v30.117647h-30.117647V120.470588zM120.470588 993.882353h30.117647v30.117647H120.470588zM30.117647 120.470588v30.117647H0V120.470588zM1024 120.470588v30.117647h-30.117647V120.470588zM361.411765 0h30.117647v30.117647h-30.117647zM361.411765 90.352941h30.117647v30.117647h-30.117647zM361.411765 903.529412h30.117647v30.117647h-30.117647zM120.470588 361.411765v30.117647H90.352941v-30.117647zM933.647059 361.411765v30.117647h-30.117647v-30.117647zM361.411765 993.882353h30.117647v30.117647h-30.117647zM30.117647 361.411765v30.117647H0v-30.117647zM1024 361.411765v30.117647h-30.117647v-30.117647zM602.352941 0h30.117647v30.117647h-30.117647zM602.352941 90.352941h30.117647v30.117647h-30.117647zM602.352941 903.529412h30.117647v30.117647h-30.117647zM120.470588 602.352941v30.117647H90.352941v-30.117647zM933.647059 602.352941v30.117647h-30.117647v-30.117647zM602.352941 993.882353h30.117647v30.117647h-30.117647zM30.117647 602.352941v30.117647H0v-30.117647zM1024 602.352941v30.117647h-30.117647v-30.117647zM783.058824 0h30.117647v30.117647h-30.117647zM783.058824 90.352941h30.117647v30.117647h-30.117647zM783.058824 903.529412h30.117647v30.117647h-30.117647zM120.470588 783.058824v30.117647H90.352941v-30.117647zM933.647059 783.058824v30.117647h-30.117647v-30.117647zM783.058824 993.882353h30.117647v30.117647h-30.117647zM30.117647 783.058824v30.117647H0v-30.117647zM1024 783.058824v30.117647h-30.117647v-30.117647zM240.941176 0h30.117648v30.117647h-30.117648zM240.941176 90.352941h30.117648v30.117647h-30.117648zM240.941176 903.529412h30.117648v30.117647h-30.117648zM120.470588 240.941176v30.117648H90.352941v-30.117648zM933.647059 240.941176v30.117648h-30.117647v-30.117648zM240.941176 993.882353h30.117648v30.117647h-30.117648zM30.117647 240.941176v30.117648H0v-30.117648zM1024 240.941176v30.117648h-30.117647v-30.117648zM481.882353 0h30.117647v30.117647h-30.117647zM481.882353 90.352941h30.117647v30.117647h-30.117647zM481.882353 903.529412h30.117647v30.117647h-30.117647zM120.470588 481.882353v30.117647H90.352941v-30.117647zM933.647059 481.882353v30.117647h-30.117647v-30.117647zM481.882353 993.882353h30.117647v30.117647h-30.117647zM30.117647 481.882353v30.117647H0v-30.117647zM1024 481.882353v30.117647h-30.117647v-30.117647zM722.823529 0h30.117647v30.117647h-30.117647zM722.823529 90.352941h30.117647v30.117647h-30.117647zM722.823529 903.529412h30.117647v30.117647h-30.117647zM120.470588 722.823529v30.117647H90.352941v-30.117647zM933.647059 722.823529v30.117647h-30.117647v-30.117647zM722.823529 993.882353h30.117647v30.117647h-30.117647zM30.117647 722.823529v30.117647H0v-30.117647zM1024 722.823529v30.117647h-30.117647v-30.117647zM903.529412 0h30.117647v30.117647h-30.117647zM903.529412 993.882353h30.117647v30.117647h-30.117647zM30.117647 903.529412v30.117647H0v-30.117647zM1024 903.529412v30.117647h-30.117647v-30.117647zM90.352941 0h30.117647v30.117647H90.352941zM90.352941 993.882353h30.117647v30.117647H90.352941zM30.117647 90.352941v30.117647H0V90.352941zM1024 90.352941v30.117647h-30.117647V90.352941zM331.294118 0h30.117647v30.117647h-30.117647zM331.294118 90.352941h30.117647v30.117647h-30.117647zM331.294118 903.529412h30.117647v30.117647h-30.117647zM120.470588 331.294118v30.117647H90.352941v-30.117647zM933.647059 331.294118v30.117647h-30.117647v-30.117647zM331.294118 993.882353h30.117647v30.117647h-30.117647zM30.117647 331.294118v30.117647H0v-30.117647zM1024 331.294118v30.117647h-30.117647v-30.117647zM572.235294 0h30.117647v30.117647h-30.117647zM572.235294 90.352941h30.117647v30.117647h-30.117647zM572.235294 903.529412h30.117647v30.117647h-30.117647zM120.470588 572.235294v30.117647H90.352941v-30.117647zM933.647059 572.235294v30.117647h-30.117647v-30.117647zM572.235294 993.882353h30.117647v30.117647h-30.117647zM30.117647 572.235294v30.117647H0v-30.117647zM1024 572.235294v30.117647h-30.117647v-30.117647zM210.823529 0h30.117647v30.117647h-30.117647zM210.823529 90.352941h30.117647v30.117647h-30.117647zM210.823529 903.529412h30.117647v30.117647h-30.117647zM120.470588 210.823529v30.117647H90.352941v-30.117647zM933.647059 210.823529v30.117647h-30.117647v-30.117647zM210.823529 993.882353h30.117647v30.117647h-30.117647zM30.117647 210.823529v30.117647H0v-30.117647zM1024 210.823529v30.117647h-30.117647v-30.117647zM451.764706 0h30.117647v30.117647h-30.117647zM451.764706 90.352941h30.117647v30.117647h-30.117647zM451.764706 903.529412h30.117647v30.117647h-30.117647zM120.470588 451.764706v30.117647H90.352941v-30.117647zM933.647059 451.764706v30.117647h-30.117647v-30.117647zM451.764706 993.882353h30.117647v30.117647h-30.117647zM30.117647 451.764706v30.117647H0v-30.117647zM1024 451.764706v30.117647h-30.117647v-30.117647zM692.705882 0h30.117647v30.117647h-30.117647zM692.705882 90.352941h30.117647v30.117647h-30.117647zM692.705882 903.529412h30.117647v30.117647h-30.117647zM120.470588 692.705882v30.117647H90.352941v-30.117647zM933.647059 692.705882v30.117647h-30.117647v-30.117647zM692.705882 993.882353h30.117647v30.117647h-30.117647zM30.117647 692.705882v30.117647H0v-30.117647zM1024 692.705882v30.117647h-30.117647v-30.117647zM873.411765 0h30.117647v30.117647h-30.117647zM873.411765 90.352941h30.117647v30.117647h-30.117647zM873.411765 150.588235h30.117647v30.117647h-30.117647zM873.411765 903.529412h30.117647v30.117647h-30.117647zM120.470588 873.411765v30.117647H90.352941v-30.117647zM933.647059 873.411765v30.117647h-30.117647v-30.117647zM903.529412 873.411765v30.117647h-30.117647v-30.117647zM873.411765 993.882353h30.117647v30.117647h-30.117647zM30.117647 873.411765v30.117647H0v-30.117647zM1024 873.411765v30.117647h-30.117647v-30.117647zM150.588235 0h30.117647v30.117647h-30.117647zM150.588235 90.352941h30.117647v30.117647h-30.117647zM150.588235 903.529412h30.117647v30.117647h-30.117647zM150.588235 873.411765h30.117647v30.117647h-30.117647zM120.470588 150.588235v30.117647H90.352941v-30.117647zM933.647059 150.588235v30.117647h-30.117647v-30.117647zM150.588235 993.882353h30.117647v30.117647h-30.117647zM30.117647 150.588235v30.117647H0v-30.117647zM1024 150.588235v30.117647h-30.117647v-30.117647zM391.529412 0h30.117647v30.117647h-30.117647zM391.529412 90.352941h30.117647v30.117647h-30.117647zM391.529412 903.529412h30.117647v30.117647h-30.117647zM120.470588 391.529412v30.117647H90.352941v-30.117647zM933.647059 391.529412v30.117647h-30.117647v-30.117647zM391.529412 993.882353h30.117647v30.117647h-30.117647zM30.117647 391.529412v30.117647H0v-30.117647zM1024 391.529412v30.117647h-30.117647v-30.117647zM632.470588 0h30.117647v30.117647h-30.117647zM632.470588 90.352941h30.117647v30.117647h-30.117647zM632.470588 903.529412h30.117647v30.117647h-30.117647zM120.470588 632.470588v30.117647H90.352941v-30.117647zM933.647059 632.470588v30.117647h-30.117647v-30.117647zM632.470588 993.882353h30.117647v30.117647h-30.117647zM30.117647 632.470588v30.117647H0v-30.117647zM1024 632.470588v30.117647h-30.117647v-30.117647zM813.176471 0h30.117647v30.117647h-30.117647zM813.176471 90.352941h30.117647v30.117647h-30.117647zM813.176471 903.529412h30.117647v30.117647h-30.117647zM813.176471 873.411765h30.117647v30.117647h-30.117647zM120.470588 813.176471v30.117647H90.352941v-30.117647zM933.647059 813.176471v30.117647h-30.117647v-30.117647zM903.529412 813.176471v30.117647h-30.117647v-30.117647zM813.176471 993.882353h30.117647v30.117647h-30.117647zM30.117647 813.176471v30.117647H0v-30.117647zM1024 813.176471v30.117647h-30.117647v-30.117647zM271.058824 0h30.117647v30.117647h-30.117647zM271.058824 90.352941h30.117647v30.117647h-30.117647zM271.058824 903.529412h30.117647v30.117647h-30.117647zM120.470588 271.058824v30.117647H90.352941v-30.117647zM933.647059 271.058824v30.117647h-30.117647v-30.117647zM271.058824 993.882353h30.117647v30.117647h-30.117647zM30.117647 271.058824v30.117647H0v-30.117647zM1024 271.058824v30.117647h-30.117647v-30.117647zM512 0h30.117647v30.117647h-30.117647zM512 90.352941h30.117647v30.117647h-30.117647zM512 903.529412h30.117647v30.117647h-30.117647zM120.470588 512v30.117647H90.352941v-30.117647zM933.647059 512v30.117647h-30.117647v-30.117647zM512 993.882353h30.117647v30.117647h-30.117647zM30.117647 512v30.117647H0v-30.117647zM1024 512v30.117647h-30.117647v-30.117647zM752.941176 0h30.117648v30.117647h-30.117648zM752.941176 90.352941h30.117648v30.117647h-30.117648zM752.941176 903.529412h30.117648v30.117647h-30.117648zM120.470588 752.941176v30.117648H90.352941v-30.117648zM933.647059 752.941176v30.117648h-30.117647v-30.117648zM752.941176 993.882353h30.117648v30.117647h-30.117648zM30.117647 752.941176v30.117648H0v-30.117648zM1024 752.941176v30.117648h-30.117647v-30.117648zM933.647059 0h30.117647v30.117647h-30.117647zM933.647059 993.882353h30.117647v30.117647h-30.117647zM30.117647 933.647059v30.117647H0v-30.117647zM60.235294 963.764706v30.117647H30.117647v-30.117647zM1024 933.647059v30.117647h-30.117647v-30.117647zM993.882353 963.764706v30.117647h-30.117647v-30.117647zM963.764706 30.117647h30.117647v30.117647h-30.117647z" fill="#FFB902" p-id="3395"></path><path d="M240.941176 30.117647h30.117648v30.117647h-30.117648zM90.352941 150.588235v30.117647H60.235294v-30.117647zM993.882353 120.470588v30.117647h-30.117647V120.470588zM903.529412 993.882353h-30.117647v-30.117647h30.117647zM60.235294 150.588235v30.117647H30.117647v-30.117647zM963.764706 120.470588v30.117647h-30.117647V120.470588zM903.529412 963.764706h-30.117647v-30.117647h30.117647zM90.352941 60.235294h30.117647v30.117647H90.352941zM60.235294 90.352941h30.117647v30.117647H60.235294zM60.235294 120.470588h30.117647v30.117647H60.235294zM271.058824 30.117647h30.117647v30.117647h-30.117647zM90.352941 180.705882v30.117647H60.235294v-30.117647zM993.882353 150.588235v30.117647h-30.117647v-30.117647zM873.411765 993.882353h-30.117647v-30.117647h30.117647zM60.235294 180.705882v30.117647H30.117647v-30.117647zM963.764706 150.588235v30.117647h-30.117647v-30.117647zM873.411765 963.764706h-30.117647v-30.117647h30.117647zM120.470588 60.235294h30.117647v30.117647H120.470588zM90.352941 90.352941h30.117647v30.117647H90.352941zM301.176471 30.117647h30.117647v30.117647h-30.117647zM90.352941 210.823529v30.117647H60.235294v-30.117647zM993.882353 180.705882v30.117647h-30.117647v-30.117647zM843.294118 993.882353h-30.117647v-30.117647h30.117647zM60.235294 210.823529v30.117647H30.117647v-30.117647zM963.764706 180.705882v30.117647h-30.117647v-30.117647zM843.294118 963.764706h-30.117647v-30.117647h30.117647zM150.588235 60.235294h30.117647v30.117647h-30.117647zM331.294118 30.117647h30.117647v30.117647h-30.117647zM90.352941 240.941176v30.117648H60.235294v-30.117648zM993.882353 210.823529v30.117647h-30.117647v-30.117647zM813.176471 993.882353h-30.117647v-30.117647h30.117647zM60.235294 240.941176v30.117648H30.117647v-30.117648zM963.764706 210.823529v30.117647h-30.117647v-30.117647zM813.176471 963.764706h-30.117647v-30.117647h30.117647zM180.705882 60.235294h30.117647v30.117647h-30.117647zM361.411765 30.117647h30.117647v30.117647h-30.117647zM90.352941 271.058824v30.117647H60.235294v-30.117647zM993.882353 240.941176v30.117648h-30.117647v-30.117648zM783.058824 993.882353h-30.117648v-30.117647h30.117648zM60.235294 271.058824v30.117647H30.117647v-30.117647zM963.764706 240.941176v30.117648h-30.117647v-30.117648zM783.058824 963.764706h-30.117648v-30.117647h30.117648zM210.823529 60.235294h30.117647v30.117647h-30.117647zM391.529412 30.117647h30.117647v30.117647h-30.117647zM90.352941 301.176471v30.117647H60.235294v-30.117647zM993.882353 271.058824v30.117647h-30.117647v-30.117647zM752.941176 993.882353h-30.117647v-30.117647h30.117647zM60.235294 301.176471v30.117647H30.117647v-30.117647zM963.764706 271.058824v30.117647h-30.117647v-30.117647zM752.941176 963.764706h-30.117647v-30.117647h30.117647zM240.941176 60.235294h30.117648v30.117647h-30.117648zM421.647059 30.117647h30.117647v30.117647h-30.117647zM90.352941 331.294118v30.117647H60.235294v-30.117647zM993.882353 301.176471v30.117647h-30.117647v-30.117647zM722.823529 993.882353h-30.117647v-30.117647h30.117647zM60.235294 331.294118v30.117647H30.117647v-30.117647zM963.764706 301.176471v30.117647h-30.117647v-30.117647zM722.823529 963.764706h-30.117647v-30.117647h30.117647zM271.058824 60.235294h30.117647v30.117647h-30.117647zM451.764706 30.117647h30.117647v30.117647h-30.117647zM90.352941 361.411765v30.117647H60.235294v-30.117647zM993.882353 331.294118v30.117647h-30.117647v-30.117647zM692.705882 993.882353h-30.117647v-30.117647h30.117647zM60.235294 361.411765v30.117647H30.117647v-30.117647zM963.764706 331.294118v30.117647h-30.117647v-30.117647zM692.705882 963.764706h-30.117647v-30.117647h30.117647zM301.176471 60.235294h30.117647v30.117647h-30.117647zM481.882353 30.117647h30.117647v30.117647h-30.117647zM90.352941 391.529412v30.117647H60.235294v-30.117647zM993.882353 361.411765v30.117647h-30.117647v-30.117647zM662.588235 993.882353h-30.117647v-30.117647h30.117647zM60.235294 391.529412v30.117647H30.117647v-30.117647zM963.764706 361.411765v30.117647h-30.117647v-30.117647zM662.588235 963.764706h-30.117647v-30.117647h30.117647zM331.294118 60.235294h30.117647v30.117647h-30.117647zM512 30.117647h30.117647v30.117647h-30.117647zM90.352941 421.647059v30.117647H60.235294v-30.117647zM993.882353 391.529412v30.117647h-30.117647v-30.117647zM632.470588 993.882353h-30.117647v-30.117647h30.117647zM60.235294 421.647059v30.117647H30.117647v-30.117647zM963.764706 391.529412v30.117647h-30.117647v-30.117647zM632.470588 963.764706h-30.117647v-30.117647h30.117647zM361.411765 60.235294h30.117647v30.117647h-30.117647zM542.117647 30.117647h30.117647v30.117647h-30.117647zM90.352941 451.764706v30.117647H60.235294v-30.117647zM993.882353 421.647059v30.117647h-30.117647v-30.117647zM602.352941 993.882353h-30.117647v-30.117647h30.117647zM60.235294 451.764706v30.117647H30.117647v-30.117647zM963.764706 421.647059v30.117647h-30.117647v-30.117647zM602.352941 963.764706h-30.117647v-30.117647h30.117647zM391.529412 60.235294h30.117647v30.117647h-30.117647zM572.235294 30.117647h30.117647v30.117647h-30.117647zM90.352941 481.882353v30.117647H60.235294v-30.117647zM993.882353 451.764706v30.117647h-30.117647v-30.117647zM572.235294 993.882353h-30.117647v-30.117647h30.117647zM60.235294 481.882353v30.117647H30.117647v-30.117647zM963.764706 451.764706v30.117647h-30.117647v-30.117647zM572.235294 963.764706h-30.117647v-30.117647h30.117647zM421.647059 60.235294h30.117647v30.117647h-30.117647zM602.352941 30.117647h30.117647v30.117647h-30.117647zM90.352941 512v30.117647H60.235294v-30.117647zM993.882353 481.882353v30.117647h-30.117647v-30.117647zM542.117647 993.882353h-30.117647v-30.117647h30.117647zM60.235294 512v30.117647H30.117647v-30.117647zM963.764706 481.882353v30.117647h-30.117647v-30.117647zM542.117647 963.764706h-30.117647v-30.117647h30.117647zM451.764706 60.235294h30.117647v30.117647h-30.117647zM632.470588 30.117647h30.117647v30.117647h-30.117647zM90.352941 542.117647v30.117647H60.235294v-30.117647zM993.882353 512v30.117647h-30.117647v-30.117647zM512 993.882353h-30.117647v-30.117647h30.117647zM60.235294 542.117647v30.117647H30.117647v-30.117647zM963.764706 512v30.117647h-30.117647v-30.117647zM512 963.764706h-30.117647v-30.117647h30.117647zM481.882353 60.235294h30.117647v30.117647h-30.117647zM662.588235 30.117647h30.117647v30.117647h-30.117647zM90.352941 572.235294v30.117647H60.235294v-30.117647zM993.882353 542.117647v30.117647h-30.117647v-30.117647zM481.882353 993.882353h-30.117647v-30.117647h30.117647zM60.235294 572.235294v30.117647H30.117647v-30.117647zM963.764706 542.117647v30.117647h-30.117647v-30.117647zM481.882353 963.764706h-30.117647v-30.117647h30.117647zM512 60.235294h30.117647v30.117647h-30.117647zM722.823529 60.235294h30.117647v30.117647h-30.117647zM692.705882 30.117647h30.117647v30.117647h-30.117647zM90.352941 602.352941v30.117647H60.235294v-30.117647zM993.882353 572.235294v30.117647h-30.117647v-30.117647zM451.764706 993.882353h-30.117647v-30.117647h30.117647zM60.235294 602.352941v30.117647H30.117647v-30.117647zM963.764706 572.235294v30.117647h-30.117647v-30.117647zM451.764706 963.764706h-30.117647v-30.117647h30.117647zM542.117647 60.235294h30.117647v30.117647h-30.117647zM752.941176 60.235294h30.117648v30.117647h-30.117648zM722.823529 30.117647h30.117647v30.117647h-30.117647zM90.352941 632.470588v30.117647H60.235294v-30.117647zM993.882353 602.352941v30.117647h-30.117647v-30.117647zM421.647059 993.882353h-30.117647v-30.117647h30.117647zM90.352941 783.058824v30.117647H60.235294v-30.117647zM993.882353 752.941176v30.117648h-30.117647v-30.117648zM271.058824 993.882353h-30.117648v-30.117647h30.117648zM60.235294 632.470588v30.117647H30.117647v-30.117647zM963.764706 602.352941v30.117647h-30.117647v-30.117647zM421.647059 963.764706h-30.117647v-30.117647h30.117647zM60.235294 783.058824v30.117647H30.117647v-30.117647zM963.764706 752.941176v30.117648h-30.117647v-30.117648zM271.058824 963.764706h-30.117648v-30.117647h30.117648zM572.235294 60.235294h30.117647v30.117647h-30.117647zM783.058824 60.235294h30.117647v30.117647h-30.117647zM752.941176 30.117647h30.117648v30.117647h-30.117648zM90.352941 662.588235v30.117647H60.235294v-30.117647zM993.882353 632.470588v30.117647h-30.117647v-30.117647zM391.529412 993.882353h-30.117647v-30.117647h30.117647zM90.352941 813.176471v30.117647H60.235294v-30.117647zM993.882353 783.058824v30.117647h-30.117647v-30.117647zM240.941176 993.882353h-30.117647v-30.117647h30.117647zM60.235294 662.588235v30.117647H30.117647v-30.117647zM963.764706 632.470588v30.117647h-30.117647v-30.117647zM391.529412 963.764706h-30.117647v-30.117647h30.117647zM60.235294 813.176471v30.117647H30.117647v-30.117647zM963.764706 783.058824v30.117647h-30.117647v-30.117647zM240.941176 963.764706h-30.117647v-30.117647h30.117647zM602.352941 60.235294h30.117647v30.117647h-30.117647zM813.176471 60.235294h30.117647v30.117647h-30.117647zM783.058824 30.117647h30.117647v30.117647h-30.117647zM90.352941 692.705882v30.117647H60.235294v-30.117647zM993.882353 662.588235v30.117647h-30.117647v-30.117647zM361.411765 993.882353h-30.117647v-30.117647h30.117647zM90.352941 843.294118v30.117647H60.235294v-30.117647zM993.882353 813.176471v30.117647h-30.117647v-30.117647zM210.823529 993.882353h-30.117647v-30.117647h30.117647zM60.235294 692.705882v30.117647H30.117647v-30.117647zM963.764706 662.588235v30.117647h-30.117647v-30.117647zM361.411765 963.764706h-30.117647v-30.117647h30.117647zM60.235294 843.294118v30.117647H30.117647v-30.117647zM963.764706 813.176471v30.117647h-30.117647v-30.117647zM210.823529 963.764706h-30.117647v-30.117647h30.117647zM632.470588 60.235294h30.117647v30.117647h-30.117647zM843.294118 60.235294h30.117647v30.117647h-30.117647zM813.176471 30.117647h30.117647v30.117647h-30.117647zM90.352941 722.823529v30.117647H60.235294v-30.117647zM993.882353 692.705882v30.117647h-30.117647v-30.117647zM331.294118 993.882353h-30.117647v-30.117647h30.117647zM90.352941 873.411765v30.117647H60.235294v-30.117647zM993.882353 843.294118v30.117647h-30.117647v-30.117647zM180.705882 993.882353h-30.117647v-30.117647h30.117647zM993.882353 873.411765v30.117647h-30.117647v-30.117647zM150.588235 993.882353H120.470588v-30.117647h30.117647zM963.764706 903.529412v30.117647h-30.117647v-30.117647zM90.352941 903.529412v30.117647H60.235294v-30.117647zM120.470588 903.529412v30.117647H90.352941v-30.117647zM120.470588 933.647059v30.117647H90.352941v-30.117647zM60.235294 722.823529v30.117647H30.117647v-30.117647zM963.764706 692.705882v30.117647h-30.117647v-30.117647zM331.294118 963.764706h-30.117647v-30.117647h30.117647zM60.235294 873.411765v30.117647H30.117647v-30.117647zM963.764706 843.294118v30.117647h-30.117647v-30.117647zM180.705882 963.764706h-30.117647v-30.117647h30.117647zM963.764706 873.411765v30.117647h-30.117647v-30.117647zM150.588235 963.764706H120.470588v-30.117647h30.117647zM933.647059 903.529412v30.117647h-30.117647v-30.117647zM933.647059 933.647059v30.117647h-30.117647v-30.117647zM662.588235 60.235294h30.117647v30.117647h-30.117647zM873.411765 60.235294h30.117647v30.117647h-30.117647zM903.529412 90.352941h30.117647v30.117647h-30.117647zM843.294118 30.117647h30.117647v30.117647h-30.117647zM90.352941 752.941176v30.117648H60.235294v-30.117648zM993.882353 722.823529v30.117647h-30.117647v-30.117647zM301.176471 993.882353h-30.117647v-30.117647h30.117647zM60.235294 752.941176v30.117648H30.117647v-30.117648zM963.764706 722.823529v30.117647h-30.117647v-30.117647zM301.176471 963.764706h-30.117647v-30.117647h30.117647zM692.705882 60.235294h30.117647v30.117647h-30.117647zM903.529412 60.235294h30.117647v30.117647h-30.117647zM933.647059 90.352941h30.117647v30.117647h-30.117647z" fill="#FBFD04" p-id="3396"></path></svg>